<svg xmlns="http://www.w3.org/2000/svg" width="11" height="11" fill="none"><g fill="#fff" opacity=".7"><mask id="a"><path d="M4.387 0C1.962 0 0 1.917 0 4.287s1.962 4.286 4.387 4.286c.866 0 1.667-.248 2.347-.67L9.904 11 11 9.928l-3.129-3.05a4.194 4.194 0 0 0 .903-2.591C8.774 1.917 6.813 0 4.387 0Zm0 1.009c1.858 0 3.355 1.462 3.355 3.278 0 1.815-1.497 3.277-3.355 3.277-1.858 0-3.355-1.462-3.355-3.277 0-1.816 1.497-3.278 3.355-3.278Z"/></mask><path d="m6.734 7.903 1.398-1.43L7.01 5.378l-1.332.826 1.055 1.7ZM9.904 11l-1.399 1.43 1.398 1.366 1.398-1.365L9.903 11ZM11 9.928l1.398 1.43 1.466-1.431-1.468-1.43L11 9.927Zm-3.129-3.05-1.577-1.23-1.102 1.413 1.283 1.25L7.871 6.88ZM4.387-2C.901-2-2 .769-2 4.287h4C2 3.065 3.022 2 4.387 2v-4ZM-2 4.287c0 3.517 2.901 6.286 6.387 6.286v-4C3.022 6.573 2 5.508 2 4.287h-4Zm6.387 6.286c1.255 0 2.42-.361 3.401-.97l-2.109-3.4c-.377.235-.815.37-1.292.37v4Zm.95-1.24 3.168 3.098 2.796-2.862-3.17-3.096-2.795 2.86Zm5.964 3.098 1.097-1.072-2.796-2.861-1.097 1.071 2.796 2.861Zm1.095-3.935-3.13-3.05-2.79 2.865 3.128 3.05 2.792-2.865ZM9.448 8.11a6.194 6.194 0 0 0 1.326-3.822h-4c0 .5-.171.966-.48 1.362l3.154 2.46Zm1.326-3.822C10.774.769 7.874-2 4.387-2v4c1.365 0 2.387 1.065 2.387 2.287h4ZM4.387 3.009c.797 0 1.355.61 1.355 1.278h4c0-2.964-2.436-5.278-5.355-5.278v4Zm1.355 1.278c0 .667-.558 1.277-1.355 1.277v4c2.919 0 5.355-2.314 5.355-5.277h-4ZM4.387 5.564c-.797 0-1.355-.61-1.355-1.277h-4c0 2.963 2.437 5.277 5.355 5.277v-4ZM3.032 4.287c0-.668.558-1.278 1.355-1.278v-4C1.47-.991-.968 1.323-.968 4.287h4Z" mask="url(#a)"/></g></svg>