<svg xmlns="http://www.w3.org/2000/svg" width="27" height="26" fill="none"><g stroke="#fff" stroke-width="1.7" opacity=".7"><path d="M6.897 12.554a3.02 3.02 0 0 1-3.024 3.017A3.02 3.02 0 0 1 .85 12.554a3.02 3.02 0 0 1 3.023-3.017 3.02 3.02 0 0 1 3.024 3.017ZM11.819 21.24a3.02 3.02 0 0 1-3.024 3.017 3.02 3.02 0 0 1-3.023-3.017 3.02 3.02 0 0 1 3.023-3.017 3.02 3.02 0 0 1 3.024 3.017ZM21.373 21.24a3.02 3.02 0 0 1-3.023 3.017 3.02 3.02 0 0 1-3.023-3.017 3.02 3.02 0 0 1 3.023-3.017 3.02 3.02 0 0 1 3.023 3.017ZM26.15 12.554a3.02 3.02 0 0 1-3.023 3.017 3.02 3.02 0 0 1-3.024-3.017 3.02 3.02 0 0 1 3.023-3.017 3.02 3.02 0 0 1 3.024 3.017ZM21.373 3.867a3.02 3.02 0 0 1-3.023 3.018 3.02 3.02 0 0 1-3.023-3.018A3.02 3.02 0 0 1 18.35.85a3.02 3.02 0 0 1 3.023 3.017ZM11.819 3.867a3.02 3.02 0 0 1-3.024 3.018 3.02 3.02 0 0 1-3.023-3.018A3.02 3.02 0 0 1 8.795.85a3.02 3.02 0 0 1 3.024 3.017Z"/></g></svg>