<svg width="35" height="20" viewBox="0 0 35 20" fill="none" xmlns="http://www.w3.org/2000/svg">
<path fill-rule="evenodd" clip-rule="evenodd" d="M17.0683 0C17.8766 0 18.6359 0.0306017 19.0278 0.0795644C19.3829 0.128527 20.0014 0.238693 20.4055 0.330498C20.8096 0.422303 21.4465 0.599794 21.8138 0.728321C22.1812 0.856848 22.7017 1.04046 22.965 1.15062C23.2222 1.25467 23.7427 1.49336 24.1101 1.67698C24.4775 1.86059 25.1633 2.24617 25.6287 2.5277C26.0879 2.80924 26.7615 3.26214 27.1166 3.52532C27.4779 3.78849 28.1086 4.27812 28.525 4.61474C28.9413 4.95136 29.6272 5.52667 30.0497 5.89389C30.4722 6.26111 31.556 7.23425 32.4561 8.06661C33.3624 8.89286 34.1523 9.65178 34.2196 9.75583C34.2808 9.85375 34.336 9.9884 34.336 10.0435C34.336 10.1047 34.2319 10.2699 34.1094 10.4107C33.9808 10.5454 33.2399 11.2431 32.4684 11.953C31.6968 12.663 30.8396 13.4403 30.5701 13.679C30.3007 13.9115 29.7496 14.3828 29.3455 14.7194C28.9413 15.056 28.3045 15.564 27.9371 15.8517C27.5697 16.1393 26.9574 16.5861 26.59 16.8371C26.2226 17.088 25.6287 17.4675 25.2735 17.6817C24.9184 17.8898 24.4224 18.1652 24.1713 18.2937C23.9203 18.4222 23.4671 18.6303 23.161 18.7527C22.8548 18.8813 22.3772 19.0649 22.0894 19.1628C21.8016 19.2607 21.3362 19.4076 21.0484 19.4872C20.7606 19.5667 20.2402 19.6891 19.885 19.7565C19.5299 19.8177 18.9114 19.9095 18.5073 19.9523C18.0358 19.9952 17.3867 20.0135 16.7009 19.989C16.1131 19.9646 15.3599 19.9095 15.0354 19.8544C14.7047 19.8054 14.1414 19.6953 13.7801 19.6096C13.4127 19.5239 12.8432 19.3586 12.5065 19.2424C12.1697 19.1322 11.5329 18.8813 11.0981 18.6976C10.6634 18.5079 9.94081 18.1591 9.50605 17.9142C9.0713 17.6755 8.33651 17.2288 7.88338 16.9289C7.43026 16.6228 6.78119 16.1699 6.44441 15.9129C6.10763 15.6558 5.50143 15.1784 5.09729 14.8418C4.69315 14.5052 4.12981 14.0278 3.84202 13.7708C3.55422 13.5198 3.07661 13.0914 2.77657 12.8221C2.4704 12.5467 1.8642 11.9959 1.42945 11.5919C0.98857 11.188 0.498707 10.7351 0.339502 10.5821C0.18642 10.4291 0.0394611 10.221 0.014968 10.123C-0.0156484 10.0068 0.00272146 9.88436 0.0517077 9.79867C0.100694 9.71911 0.553817 9.26008 1.05593 8.78269C1.56416 8.29919 2.45816 7.47294 3.04599 6.93435C3.63383 6.39576 4.53395 5.61848 5.03606 5.19617C5.54429 4.77387 6.18723 4.24752 6.47503 4.02107C6.76282 3.80073 7.47925 3.29887 8.06708 2.90104C8.73452 2.46038 9.51218 2.00747 10.1184 1.70758C10.6572 1.4444 11.3553 1.12614 11.6676 1.00986C11.9737 0.88745 12.5126 0.70996 12.8616 0.605914C13.2045 0.507988 13.7495 0.373341 14.0679 0.299897C14.3863 0.232573 14.9007 0.140768 15.2007 0.0918051C15.5375 0.036722 16.2662 0.00612034 17.0683 0ZM14.9252 3.17034C14.7415 3.23766 14.3006 3.48248 13.9454 3.72117C13.5903 3.95374 13.0882 4.32708 12.831 4.54742C12.5677 4.76775 12.2309 5.11049 12.0778 5.30022C11.9247 5.49607 11.6676 5.84493 11.5084 6.08362C11.3492 6.32232 11.1165 6.75686 10.9879 7.06288C10.8532 7.36277 10.6817 7.87688 10.6021 8.19514C10.5041 8.56236 10.4368 9.04587 10.4123 9.51102C10.3939 9.9272 10.4062 10.4903 10.449 10.8085C10.4858 11.1207 10.6021 11.647 10.7062 11.9714C10.8103 12.3019 11.0063 12.7793 11.141 13.0302C11.2757 13.2811 11.5329 13.679 11.7043 13.9115C11.8758 14.1441 12.237 14.5419 12.5065 14.7929C12.7759 15.0377 13.2045 15.3743 13.4556 15.5273C13.7066 15.6864 14.1475 15.9129 14.4353 16.0353C14.7231 16.1577 15.1885 16.3168 15.4763 16.3903C15.8314 16.4821 16.2723 16.5372 16.854 16.5616C17.5153 16.5922 17.8582 16.5739 18.3542 16.4882C18.7093 16.4331 19.2298 16.2985 19.5176 16.2005C19.8054 16.1026 20.2157 15.919 20.4361 15.8027C20.6565 15.6803 21.0117 15.4539 21.2321 15.2886C21.4526 15.1295 21.8383 14.7806 22.0955 14.5174C22.3527 14.2543 22.6895 13.8503 22.8364 13.6116C22.9895 13.3729 23.1855 13.0424 23.2651 12.8772C23.3508 12.7058 23.4916 12.3815 23.5774 12.1428C23.6631 11.9041 23.7794 11.494 23.8345 11.2247C23.9019 10.9003 23.9386 10.4658 23.9325 9.93944C23.9325 9.41309 23.8896 8.9357 23.81 8.53176C23.7488 8.19514 23.6263 7.74224 23.5406 7.5219C23.461 7.30157 23.2896 6.91599 23.161 6.66506C23.0385 6.41412 22.7875 6.0163 22.616 5.77761C22.4384 5.53891 22.1139 5.17169 21.8996 4.95136C21.6791 4.73103 21.2444 4.35769 20.926 4.11287C20.6076 3.87418 20.1238 3.57428 19.8544 3.45187C19.585 3.32335 19.2543 3.17034 19.1196 3.10914C18.9849 3.05405 18.593 2.97449 18.2501 2.93777C17.9011 2.90104 17.3806 2.87044 17.0867 2.87656C16.7866 2.88268 16.26 2.9194 15.9049 2.96225C15.5497 3.00509 15.1089 3.09689 14.9252 3.17034ZM9.10804 5.31858C8.72227 5.54503 8.06096 5.97346 7.63845 6.27335C7.21595 6.56713 6.51177 7.08124 6.07702 7.42398C5.64226 7.76672 5.02994 8.26246 4.72989 8.52564C4.42985 8.79493 3.93999 9.2356 3.63995 9.5049C3.34603 9.78031 3.10722 10.0374 3.10722 10.0741C3.10722 10.1169 3.3889 10.4107 3.73792 10.729C4.08083 11.0411 4.59518 11.5001 4.88298 11.7511C5.17077 11.9959 5.65451 12.3876 5.95455 12.6324C6.25459 12.8711 6.79344 13.275 7.14859 13.5321C7.50374 13.7891 8.16506 14.2298 8.61818 14.5174C9.0713 14.799 9.80609 15.2213 10.2408 15.4539C11.0246 15.8639 11.0369 15.8639 10.8715 15.6558C10.7736 15.5457 10.5286 15.2152 10.3205 14.9275C10.1123 14.6399 9.80609 14.1625 9.64689 13.8565C9.48768 13.5504 9.24888 12.9751 9.11416 12.5712C8.97945 12.1672 8.82637 11.5491 8.77738 11.1941C8.72227 10.8391 8.67941 10.3189 8.67941 10.0312C8.67941 9.74359 8.71003 9.2662 8.74677 8.96019C8.78351 8.65417 8.90597 8.09109 9.02232 7.70551C9.13866 7.31993 9.34072 6.78134 9.46931 6.51205C9.59178 6.24275 9.81834 5.84493 9.9653 5.6246C10.1123 5.40426 10.3511 5.07989 10.498 4.9024C10.645 4.73103 10.7613 4.55354 10.7613 4.52293C10.7613 4.48621 10.7552 4.46173 10.7491 4.46173C10.7368 4.46173 10.5225 4.55966 10.2715 4.68206C10.0204 4.80447 9.49381 5.08601 9.10804 5.31858ZM24.1958 5.36142C24.3734 5.6246 24.6489 6.08362 24.802 6.38964C24.949 6.68954 25.1449 7.1608 25.2306 7.4301C25.3164 7.69939 25.4327 8.1523 25.4939 8.43995C25.5797 8.82554 25.6042 9.22948 25.6042 10.0006C25.6042 10.7473 25.5797 11.188 25.5001 11.5613C25.4388 11.849 25.3225 12.3019 25.2368 12.5712C25.151 12.8405 24.9673 13.2934 24.8387 13.581C24.704 13.8687 24.4469 14.3216 24.2693 14.5909C24.0856 14.8602 23.8162 15.2274 23.657 15.3988C23.5039 15.5763 23.3753 15.7354 23.3753 15.7538C23.3753 15.7721 23.5896 15.6803 23.8529 15.5457C24.1101 15.4171 24.5999 15.1478 24.9367 14.9581C25.2735 14.7623 25.9226 14.3522 26.3757 14.0523C26.8288 13.7463 27.5452 13.2383 27.9677 12.9139C28.3903 12.5895 29.0761 12.0326 29.4986 11.6776C29.9211 11.3165 30.4967 10.8085 30.7783 10.5454L31.2927 10.0618C30.2579 9.12543 29.6516 8.59908 29.2843 8.28695C28.9169 7.98093 28.2678 7.46682 27.8453 7.14244C27.4228 6.82418 26.6819 6.29783 26.192 5.97346C25.7021 5.6552 25.0286 5.23901 24.6918 5.04928C24.355 4.85955 24.0305 4.70654 23.9692 4.70654C23.9141 4.70654 23.8652 4.74939 23.8652 4.79835C23.8652 4.84731 24.0121 5.10437 24.1958 5.36142Z" fill="#FDFDFD"/>
<path d="M13.4737 3.35527C13.8594 3.25123 14.3983 3.12882 14.6677 3.07986C14.9371 3.0309 15.2127 2.99417 15.28 2.98805C15.3474 2.98805 15.2372 3.04314 15.0351 3.11046C14.833 3.17166 14.4901 3.33079 14.2697 3.46544C14.0493 3.59397 13.639 3.8755 13.3512 4.08972C13.0634 4.29781 12.6409 4.66503 12.4021 4.90372C12.3715 4.8976 11.7408 5.63204 11.7591 5.65652C11.6551 5.80341 11.5489 5.94782 11.5489 5.94782C11.5489 5.94782 9.73234 6.2502 9.53027 6.28692C9.53027 6.28692 9.80582 5.78505 9.94053 5.58308C10.0814 5.38111 10.3079 5.06897 10.4549 4.89148C10.6018 4.72011 10.7182 4.54262 10.7182 4.51202C10.7182 4.4753 10.6692 4.46306 10.608 4.48754C10.5529 4.5059 10.7672 4.38961 11.0856 4.2366C11.404 4.0836 11.9184 3.86326 12.2184 3.74698C12.5184 3.63681 13.0879 3.45932 13.4737 3.35527Z" fill="#BAB8C8" fill-opacity="0.8"/>
<path d="M19.8113 3.44096C19.5418 3.31243 19.2112 3.15942 19.0765 3.09822C18.9418 3.0309 18.8805 2.98193 18.9418 2.98193C18.9969 2.98193 19.3398 3.03702 19.701 3.11046C20.0684 3.17778 20.5522 3.28795 20.791 3.35527C21.0298 3.4226 21.4952 3.57561 21.8319 3.69801C22.1687 3.82042 22.7811 4.07135 23.1852 4.26109C23.5954 4.45082 23.8955 4.66503 23.9261 4.69563C23.871 4.69563 23.822 4.73847 23.822 4.78743C23.822 4.8364 23.969 5.09345 24.1527 5.35051C24.3302 5.61368 24.577 6.017 24.6811 6.23733L22.4994 5.66264C22.3647 5.48515 22.0708 5.16078 21.8564 4.94044C21.636 4.72011 21.2012 4.34677 20.8828 4.10196C20.5644 3.86326 20.0807 3.56337 19.8113 3.44096Z" fill="#BAB8C8" fill-opacity="0.8"/>
<circle cx="17.0958" cy="9.79835" r="4.7599" stroke="#FDFDFD" stroke-width="1.25"/>
<ellipse cx="27.8373" cy="10.1168" rx="0.781679" ry="0.781679" fill="#FDFDFD"/>
<ellipse cx="6.41351" cy="10.1168" rx="0.781679" ry="0.781679" fill="#FDFDFD"/>
<ellipse cx="17.0963" cy="9.85616" rx="1.50546" ry="1.50546" fill="#FDFDFD"/>
</svg>
