<svg width="15" height="15" viewBox="0 0 15 15" fill="none" xmlns="http://www.w3.org/2000/svg">
<g opacity="0.7" clip-path="url(#clip0_207_337)">
<path d="M6.55077 0.198017C6.21872 0.196893 5.88006 0.245217 5.54471 0.350856C3.76094 0.91501 2.74054 2.86483 3.29432 4.68428V4.70226C3.36712 4.90679 3.56238 5.55411 3.68262 5.95194H2.65891C2.17905 5.95194 1.81171 6.32617 1.81171 6.81503V13.7197C1.81171 14.2086 2.17905 14.5828 2.65891 14.5828H11.6958C12.1756 14.5828 12.543 14.2086 12.543 13.7197V6.81503C12.543 6.32617 12.1756 5.95194 11.6958 5.95194H4.28272C4.19558 5.66649 3.93303 4.82251 3.82382 4.51346H3.83265C3.37043 2.99519 4.21212 1.38027 5.70356 0.908267C7.19169 0.437389 8.78571 1.29036 9.25123 2.80526C9.25123 2.80639 9.25123 2.81313 9.25123 2.81425C9.31522 3.04239 9.62189 4.05494 9.62189 4.05494C9.64726 4.15833 9.72668 4.24037 9.82817 4.2651C9.93076 4.29094 10.0378 4.25723 10.1073 4.17744C10.1768 4.09652 10.1977 3.98414 10.1602 3.88412C10.1602 3.88412 9.84141 2.83673 9.78956 2.65243V2.64343C9.37479 1.28025 8.19443 0.354227 6.87729 0.215998C6.76808 0.20476 6.66108 0.198017 6.55077 0.198017ZM7.17734 8.8289C7.65721 8.8289 8.02455 9.20313 8.02455 9.69199C8.02455 9.95047 7.91203 10.1775 7.74215 10.3213V11.1305C7.74215 11.4474 7.48843 11.7059 7.17734 11.7059C6.86626 11.7059 6.61254 11.4474 6.61254 11.1305V10.3213C6.44266 10.1775 6.33014 9.95047 6.33014 9.69199C6.33014 9.20313 6.69748 8.8289 7.17734 8.8289Z" fill="white"/>
</g>
<defs>
<clipPath id="clip0_207_337">
<rect width="14.1201" height="14.3848" fill="white" transform="translate(0.117294 0.197998)"/>
</clipPath>
</defs>
</svg>
