<svg xmlns="http://www.w3.org/2000/svg" width="442" height="543" fill="none"><path stroke="url(#a)" d="M220 497a144 144 0 1 0 0-289 144 144 0 0 0 0 289Z"/><path stroke="url(#b)" d="M221 467a115 115 0 1 0 0-229c-64 0-115 51-115 114s51 115 115 115Z"/><path stroke="url(#c)" d="M220 440c48 0 87-39 87-86 0-48-39-86-87-86s-87 38-87 86c0 47 39 86 87 86Z"/><path stroke="url(#d)" d="M220 412a58 58 0 0 0 0-117c-32 0-58 26-58 59 0 32 26 58 58 58Z"/><path stroke="url(#e)" d="M220 383c16 0 29-13 29-29 0-15-13-28-29-28s-28 13-28 28c0 16 12 29 28 29Z"/><g filter="url(#f)"><path fill="#593FAB" d="M225 353c0 2-3 5-5 5-3 0-5-3-5-5 0-3 2-5 5-5 2 0 5 2 5 5Z"/><path stroke="#4D3B85" d="M224 353c0 2-2 4-4 4-3 0-5-2-5-4 0-3 2-5 5-5 2 0 4 2 4 5Z"/></g><g filter="url(#g)"><path stroke="#4D3B85" stroke-width="2" d="m219 348-23-154"/></g><circle cx="143.5" cy="311" r="4" fill="#4D3B85"/><circle cx="123.3" cy="243" r="4" fill="#4D3B85"/><ellipse cx="218.2" cy="348.3" fill="url(#h)" rx="152.1" ry="148.8"/><path stroke="url(#i)" stroke-width="1.2" d="M123 240v-8"/><path stroke="url(#j)" stroke-width="1.2" d="M143 308v-8"/><path fill="#090912" d="M11 354h431v144H11V354Z"/><defs><linearGradient id="a" x1="219.8" x2="220.4" y1="209.4" y2="358.4" gradientUnits="userSpaceOnUse"><stop stop-color="#806FE8"/><stop offset="1" stop-color="#5B38B3" stop-opacity="0"/></linearGradient><linearGradient id="b" x1="220.9" x2="221.3" y1="238.2" y2="356.7" gradientUnits="userSpaceOnUse"><stop stop-color="#806FE8"/><stop offset="1" stop-color="#5B38B3" stop-opacity="0"/></linearGradient><linearGradient id="c" x1="219.8" x2="220.1" y1="268.1" y2="357.2" gradientUnits="userSpaceOnUse"><stop stop-color="#806FE8"/><stop offset="1" stop-color="#5B38B3" stop-opacity="0"/></linearGradient><linearGradient id="d" x1="220.3" x2="220.6" y1="295.7" y2="356.1" gradientUnits="userSpaceOnUse"><stop stop-color="#806FE8"/><stop offset="1" stop-color="#5B38B3" stop-opacity="0"/></linearGradient><linearGradient id="e" x1="220.3" x2="220.4" y1="326.7" y2="355.5" gradientUnits="userSpaceOnUse"><stop stop-color="#806FE8"/><stop offset="1" stop-color="#5B38B3" stop-opacity="0"/></linearGradient><linearGradient id="i" x1="124.2" x2="124.2" y1="232" y2="240" gradientUnits="userSpaceOnUse"><stop stop-color="#544895"/><stop offset="1" stop-color="#4D3B85"/></linearGradient><linearGradient id="j" x1="144.5" x2="144.5" y1="300" y2="308" gradientUnits="userSpaceOnUse"><stop stop-color="#544895"/><stop offset="1" stop-color="#4D3B85"/></linearGradient><filter id="f" width="77.8" height="78" x="180.9" y="313.7" color-interpolation-filters="sRGB" filterUnits="userSpaceOnUse"><feFlood flood-opacity="0" result="BackgroundImageFix"/><feColorMatrix in="SourceAlpha" result="hardAlpha" values="0 0 0 0 0 0 0 0 0 0 0 0 0 0 0 0 0 0 127 0"/><feOffset/><feGaussianBlur stdDeviation=".4"/><feColorMatrix values="0 0 0 0 0.301961 0 0 0 0 0.231373 0 0 0 0 0.521569 0 0 0 1 0"/><feBlend in2="BackgroundImageFix" result="effect1_dropShadow_739_152"/><feColorMatrix in="SourceAlpha" result="hardAlpha" values="0 0 0 0 0 0 0 0 0 0 0 0 0 0 0 0 0 0 127 0"/><feOffset/><feGaussianBlur stdDeviation=".8"/><feColorMatrix values="0 0 0 0 0.301961 0 0 0 0 0.231373 0 0 0 0 0.521569 0 0 0 1 0"/><feBlend in2="effect1_dropShadow_739_152" result="effect2_dropShadow_739_152"/><feColorMatrix in="SourceAlpha" result="hardAlpha" values="0 0 0 0 0 0 0 0 0 0 0 0 0 0 0 0 0 0 127 0"/><feOffset/><feGaussianBlur stdDeviation="2.8"/><feColorMatrix values="0 0 0 0 0.301961 0 0 0 0 0.231373 0 0 0 0 0.521569 0 0 0 1 0"/><feBlend in2="effect2_dropShadow_739_152" result="effect3_dropShadow_739_152"/><feColorMatrix in="SourceAlpha" result="hardAlpha" values="0 0 0 0 0 0 0 0 0 0 0 0 0 0 0 0 0 0 127 0"/><feOffset/><feGaussianBlur stdDeviation="5.7"/><feColorMatrix values="0 0 0 0 0.301961 0 0 0 0 0.231373 0 0 0 0 0.521569 0 0 0 1 0"/><feBlend in2="effect3_dropShadow_739_152" result="effect4_dropShadow_739_152"/><feColorMatrix in="SourceAlpha" result="hardAlpha" values="0 0 0 0 0 0 0 0 0 0 0 0 0 0 0 0 0 0 127 0"/><feOffset/><feGaussianBlur stdDeviation="9.7"/><feColorMatrix values="0 0 0 0 0.301961 0 0 0 0 0.231373 0 0 0 0 0.521569 0 0 0 1 0"/><feBlend in2="effect4_dropShadow_739_152" result="effect5_dropShadow_739_152"/><feColorMatrix in="SourceAlpha" result="hardAlpha" values="0 0 0 0 0 0 0 0 0 0 0 0 0 0 0 0 0 0 127 0"/><feOffset/><feGaussianBlur stdDeviation="17"/><feColorMatrix values="0 0 0 0 0.301961 0 0 0 0 0.231373 0 0 0 0 0.521569 0 0 0 1 0"/><feBlend in2="effect5_dropShadow_739_152" result="effect6_dropShadow_739_152"/><feBlend in="SourceGraphic" in2="effect6_dropShadow_739_152" result="shape"/></filter><filter id="g" width="412.8" height="541.8" x="1" y=".2" color-interpolation-filters="sRGB" filterUnits="userSpaceOnUse"><feFlood flood-opacity="0" result="BackgroundImageFix"/><feColorMatrix in="SourceAlpha" result="hardAlpha" values="0 0 0 0 0 0 0 0 0 0 0 0 0 0 0 0 0 0 127 0"/><feOffset/><feGaussianBlur stdDeviation="32.3"/><feColorMatrix values="0 0 0 0 0.505882 0 0 0 0 0.258824 0 0 0 0 1 0 0 0 1 0"/><feBlend in2="BackgroundImageFix" result="effect1_dropShadow_739_152"/><feColorMatrix in="SourceAlpha" result="hardAlpha" values="0 0 0 0 0 0 0 0 0 0 0 0 0 0 0 0 0 0 127 0"/><feOffset/><feGaussianBlur stdDeviation="55.3"/><feColorMatrix values="0 0 0 0 0.505882 0 0 0 0 0.258824 0 0 0 0 1 0 0 0 1 0"/><feBlend in2="effect1_dropShadow_739_152" result="effect2_dropShadow_739_152"/><feColorMatrix in="SourceAlpha" result="hardAlpha" values="0 0 0 0 0 0 0 0 0 0 0 0 0 0 0 0 0 0 127 0"/><feOffset/><feGaussianBlur stdDeviation="96.8"/><feColorMatrix values="0 0 0 0 0.505882 0 0 0 0 0.258824 0 0 0 0 1 0 0 0 1 0"/><feBlend in2="effect2_dropShadow_739_152" result="effect3_dropShadow_739_152"/><feBlend in="SourceGraphic" in2="effect3_dropShadow_739_152" result="shape"/></filter><radialGradient id="h" cx="0" cy="0" r="1" gradientTransform="matrix(-21 -147 150 -22 218 348)" gradientUnits="userSpaceOnUse"><stop offset="0" stop-opacity="0"/><stop offset="1" stop-color="#806FE8" stop-opacity=".1"/></radialGradient></defs></svg>