<svg xmlns="http://www.w3.org/2000/svg" width="348" height="341" fill="none"><path fill="url(#a)" d="m9.32492 113.818 20.63708-9.732 24.4386 1.107 20.094-31.5361 11.9478 23.237 32.5846-26.5566 25.525-3.3196 18.465-35.962 27.154 16.0446 24.438-1.1065 15.75-8.2989 11.948 8.8522 23.352-23.237h60.859c7.18 0 13 5.8203 13 13V327.882c0 7.18-5.82 13-13 13H22.3249c-7.1797 0-12.99998-5.82-12.99998-13V113.818Z"/><ellipse cx="178.624" cy="143.009" fill="url(#b)" rx="169.075" ry="100.11"/><path stroke="#806FE8" stroke-width=".5" d="M320.306 23.8633v15.6365c0 3.3468-2.666 6.0619-5.951 6.0619H282.81c-3.285 0-5.951 2.7151-5.951 6.0619v28.8176c0 3.3468-2.665 6.0619-5.951 6.0619h-29.372c-3.286 0-5.951 2.7151-5.951 6.0619v29.924c0 3.347-2.665 6.062-5.951 6.062h-28.286c-3.286 0-5.951 2.715-5.951 6.062v32.137c0 3.347-2.665 6.062-5.951 6.062h-31.545c-3.285 0-5.95 2.715-5.95 6.062v32.137c0 3.347-2.666 6.062-5.951 6.062h-31.545c-3.286 0-5.951 2.715-5.951 6.062v28.943c0 3.347-2.665 6.062-5.951 6.062H73.1808c-3.2854 0-5.9507 2.715-5.9507 6.062V294c0 3.347-2.6653 6.062-5.9508 6.062H32.9927c-3.2854 0-5.9507 2.715-5.9507 6.062v34.516"/><g stroke="#44336B" stroke-width=".7" opacity=".4"><rect width="34.0572" height="34.7088" x="199.753" y="132.653" rx="2.65"/><rect width="34.0572" height="34.7088" x="239.942" y="90.6049" rx="2.65"/><rect width="34.0572" height="34.7088" x="281.215" y="49.6635" rx="2.65"/><path d="M324.662 24.2133h2.407c6.188 0 11.296 4.8372 11.633 11.0156l.447 8.2018h-11.837c-1.463 0-2.65-1.1864-2.65-2.65V24.2133Z"/><rect width="34.0572" height="34.7088" x="156.307" y="176.914" rx="2.65"/></g><g stroke="#44336B" stroke-width=".7" opacity=".4"><rect width="34.0572" height="34.7088" x="31.3977" y="304.164" rx="2.65"/><rect width="34.0572" height="34.7088" x="71.5858" y="262.116" rx="2.65"/><rect width="34.0572" height="34.7088" x="112.859" y="221.175" rx="2.65"/></g><path fill="#ADADAD" d="M168.205 196.476c-.24 0-.478-.042-.714-.126-.236-.084-.406-.178-.51-.282l.318-.57c.084.076.214.156.39.24.18.08.352.12.516.12.212 0 .384-.05.516-.15.136-.1.204-.238.204-.414 0-.136-.036-.254-.108-.354-.072-.1-.16-.182-.264-.246-.104-.068-.252-.15-.444-.246-.228-.112-.384-.196-.468-.252-.388-.26-.582-.62-.582-1.08 0-.38.126-.67.378-.87.252-.204.57-.306.954-.306.412 0 .762.118 1.05.354l-.318.546c-.076-.08-.184-.148-.324-.204-.136-.06-.282-.09-.438-.09-.2 0-.358.046-.474.138-.112.088-.168.22-.168.396 0 .124.036.236.108.336.072.096.162.18.27.252.112.072.262.16.45.264.18.1.318.18.414.24.096.056.186.124.27.204.116.104.21.228.282.372.072.144.108.302.108.474 0 .268-.062.496-.186.684-.12.188-.288.33-.504.426-.212.096-.454.144-.726.144Zm3.398 0c-.328 0-.602-.064-.822-.192-.22-.132-.382-.306-.486-.522-.104-.22-.156-.46-.156-.72 0-.292.06-.548.18-.768.124-.22.294-.388.51-.504.216-.12.46-.18.732-.18.424 0 .738.118.942.354.208.232.312.56.312.984 0 .108-.006.22-.018.336h-1.98c.044.244.13.42.258.528.132.108.314.162.546.162.192 0 .35-.016.474-.048s.238-.076.342-.132l.198.462c-.1.064-.236.12-.408.168-.172.048-.38.072-.624.072Zm.582-1.662c.004-.248-.05-.422-.162-.522-.112-.104-.272-.156-.48-.156-.42 0-.662.226-.726.678h1.368Zm2.612 1.662c-.328 0-.602-.064-.822-.192-.22-.132-.382-.306-.486-.522-.104-.22-.156-.46-.156-.72 0-.292.06-.548.18-.768.124-.22.294-.388.51-.504.216-.12.46-.18.732-.18.424 0 .738.118.942.354.208.232.312.56.312.984 0 .108-.006.22-.018.336h-1.98c.044.244.13.42.258.528.132.108.314.162.546.162.192 0 .35-.016.474-.048s.238-.076.342-.132l.198.462c-.1.064-.236.12-.408.168-.172.048-.38.072-.624.072Zm.582-1.662c.004-.248-.05-.422-.162-.522-.112-.104-.272-.156-.48-.156-.42 0-.662.226-.726.678h1.368Zm2.527 1.662c-.248 0-.478-.058-.69-.174-.208-.12-.376-.288-.504-.504-.124-.22-.186-.476-.186-.768 0-.436.122-.784.366-1.044.244-.264.574-.396.99-.396.232 0 .444.058.636.174.192.112.322.248.39.408l-.03-.468v-1.698h.636v4.41h-.618l-.012-.486c-.068.144-.192.272-.372.384-.18.108-.382.162-.606.162Zm.108-.546c.228 0 .42-.078.576-.234.156-.16.234-.368.234-.624v-.042c0-.172-.036-.326-.108-.462-.072-.136-.17-.242-.294-.318-.124-.076-.26-.114-.408-.114-.256 0-.454.084-.594.252-.14.164-.21.378-.21.642 0 .268.068.486.204.654.14.164.34.246.6.246Z"/><path fill="#ADADAD" d="m217.353 147.739 2.124 4.416h-.774l-.378-.864h-2.022l-.378.864h-.75l2.112-4.416h.066Zm-.3 1.878-.48 1.068h1.488l-.474-1.062-.258-.606h-.012l-.264.6ZM255.56 105.697h1.122c.632 0 1.052.106 1.26.318.208.212.312.468.312.768 0 .2-.044.39-.132.57-.088.176-.228.308-.42.396.284.072.492.198.624.378.136.18.204.392.204.636 0 .256-.04.48-.12.672-.08.192-.246.352-.498.48s-.616.192-1.092.192h-1.26v-4.41Zm1.23 1.872c.284 0 .486-.068.606-.204.12-.14.18-.316.18-.528 0-.38-.272-.57-.816-.57h-.54v1.302h.57Zm.12 1.974c.364 0 .608-.072.732-.216.128-.148.192-.334.192-.558 0-.212-.072-.376-.216-.492-.144-.116-.362-.174-.654-.174h-.744v1.44h.69ZM298.767 69.2075c-.456 0-.852-.102-1.188-.306-.332-.204-.586-.476-.762-.816-.176-.344-.264-.722-.264-1.134 0-.436.094-.826.282-1.17.192-.344.46-.612.804-.804.344-.196.734-.294 1.17-.294.196 0 .378.022.546.066.172.04.314.088.426.144.112.052.186.096.222.132l-.294.6c-.244-.216-.562-.324-.954-.324-.276 0-.526.068-.75.204-.224.136-.4.33-.528.582-.128.252-.192.544-.192.876 0 .304.056.58.168.828.116.248.284.444.504.588.22.144.482.216.786.216.352 0 .692-.1 1.02-.3l.198.57c-.088.08-.25.158-.486.234-.232.072-.468.108-.708.108Z" opacity=".9"/><path fill="#4C3E75" stroke="#81769F" d="M191.3 150.561c0 11.038-8.781 19.97-19.594 19.97s-19.594-8.932-19.594-19.97c0-11.039 8.781-19.971 19.594-19.971s19.594 8.932 19.594 19.971Z"/><ellipse cx="171.706" cy="150.561" fill="#D0CFD9" rx="16.8355" ry="17.1511"/><path stroke="#806FE8" d="m10.0417 114.094 19.8556-9.694 24.7065.987 19.6453-31.1277L86.712 97.4738l32.559-26.8257 25.181-3.3216 18.336-36.0476 27.381 16.2378 24.944-1.1676 15.686-8.0277 11.187 9.1006 24.216-23.5586"/><defs><radialGradient id="a" cx="0" cy="0" r="1" gradientTransform="matrix(-115 169 -174 -118 89.9643 14.5436)" gradientUnits="userSpaceOnUse"><stop stop-color="#4D3B85" stop-opacity=".5"/><stop offset="1" stop-color="#100F1D"/></radialGradient><radialGradient id="b" cx="0" cy="0" r="1" gradientTransform="matrix(0 91 -154 0 178.624 143.009)" gradientUnits="userSpaceOnUse"><stop offset=".126144" stop-color="#4D3B85" stop-opacity=".4"/><stop offset="1" stop-color="#231244" stop-opacity="0"/></radialGradient></defs></svg>