<svg width="16" height="13" viewBox="0 0 16 13" fill="none" xmlns="http://www.w3.org/2000/svg">
<path d="M3.47826 5.57974V5.57522V1.05313L3.43652 1.02217H3.43304L2.48348 0.319565C1.90261 -0.111739 1.07478 -0.0908694 0.56 0.416957C0.215652 0.757826 0 1.23087 0 1.75609V3.00896L3.47826 5.57974ZM12.5217 5.57522V5.57974L16 3.00896V1.75609C16 1.23783 15.7913 0.764783 15.4504 0.423913C14.9426 -0.0828695 14.1409 -0.142348 13.5638 0.283739L12.5635 1.02217L12.5217 1.05313V5.57522ZM4.17391 6.08931L7.79339 8.76478C7.91617 8.85557 8.08417 8.85557 8.20696 8.76478L11.8261 6.08931V1.56722L8 4.39609L4.17391 1.56722V6.08931ZM12.5217 6.44444V11.7004C12.5217 11.8924 12.6776 12.0483 12.8696 12.0483H15.1304C15.6108 12.0483 16 11.659 16 11.1787V3.8733L12.5217 6.44444ZM3.47826 6.44444L0 3.8733V11.1787C0 11.659 0.389217 12.0483 0.869565 12.0483H3.13043C3.32243 12.0483 3.47826 11.8924 3.47826 11.7004V6.44444Z" fill="white"/>
</svg>
