<svg width="17" height="17" viewBox="0 0 17 17" fill="none" xmlns="http://www.w3.org/2000/svg">
<g opacity="0.9" clip-path="url(#clip0_834_848)">
<path d="M4.97965 0.0595385C4.07525 0.102209 3.45764 0.246539 2.91772 0.458699C2.35893 0.676469 1.88531 0.968699 1.41407 1.44164C0.942834 1.91458 0.652644 2.38854 0.436404 2.94818C0.227134 3.48929 0.0853538 4.10741 0.0454038 5.01232C0.00545379 5.91723 -0.00338622 6.2081 0.00103378 8.51636C0.00545378 10.8246 0.0156538 11.114 0.0595138 12.0207C0.102694 12.925 0.246514 13.5424 0.458674 14.0825C0.676784 14.6413 0.968674 15.1147 1.44178 15.5861C1.91489 16.0576 2.38851 16.3471 2.94951 16.5636C3.49011 16.7726 4.1084 16.915 5.01314 16.9546C5.91788 16.9943 6.20909 17.0034 8.51667 16.999C10.8243 16.9946 11.1148 16.9844 12.0214 16.9414C12.928 16.8984 13.5422 16.7535 14.0825 16.5424C14.6413 16.3238 15.1151 16.0324 15.5861 15.5591C16.0572 15.0858 16.3472 14.6115 16.5633 14.0516C16.7727 13.511 16.915 12.8927 16.9543 11.9886C16.9939 11.0813 17.0032 10.7916 16.9988 8.48372C16.9944 6.1758 16.984 5.88646 16.941 4.98002C16.898 4.07358 16.754 3.45801 16.542 2.91758C16.3236 2.35879 16.032 1.88568 15.5591 1.41393C15.0862 0.942179 14.6115 0.652329 14.0517 0.436769C13.5108 0.227499 12.8928 0.0848685 11.9881 0.0457685C11.0833 0.00666852 10.7921 -0.00336148 8.48369 0.00105852C6.17526 0.00547852 5.88626 0.0153385 4.97965 0.0595385ZM5.07893 15.4255C4.25018 15.3895 3.80019 15.2518 3.50031 15.1365C3.10319 14.9835 2.82031 14.7985 2.52145 14.5026C2.22259 14.2066 2.03899 13.9227 1.88395 13.5264C1.7675 13.2265 1.62725 12.7771 1.58849 11.9483C1.54633 11.0526 1.53749 10.7836 1.53256 8.51432C1.52763 6.24499 1.5363 5.97639 1.57557 5.08032C1.61093 4.25225 1.74948 3.80175 1.86457 3.50204C2.01757 3.10441 2.20185 2.82204 2.4985 2.52335C2.79515 2.22466 3.0782 2.04072 3.47481 1.88568C3.77435 1.76872 4.22383 1.62966 5.05224 1.59022C5.94865 1.54772 6.21725 1.53922 8.48624 1.53429C10.7552 1.52936 11.0245 1.53786 11.9213 1.5773C12.7493 1.61334 13.2 1.75053 13.4994 1.8663C13.8967 2.0193 14.1794 2.20307 14.4781 2.50023C14.7768 2.79739 14.9609 3.07942 15.1159 3.47688C15.233 3.77557 15.3721 4.22488 15.4112 5.0538C15.4539 5.95021 15.4636 6.21898 15.4676 8.4878C15.4717 10.7566 15.4637 11.0261 15.4245 11.9218C15.3882 12.7505 15.2509 13.2007 15.1355 13.5009C14.9825 13.8979 14.798 14.1809 14.5012 14.4794C14.2044 14.778 13.9217 14.9619 13.5249 15.1169C13.2257 15.2337 12.7757 15.3731 11.948 15.4126C11.0515 15.4547 10.7829 15.4636 8.5131 15.4685C6.24326 15.4734 5.97551 15.4643 5.0791 15.4255M12.0083 3.95713C12.0086 4.15888 12.0688 4.356 12.1812 4.52356C12.2935 4.69112 12.4531 4.82159 12.6396 4.89847C12.8261 4.97535 13.0313 4.99518 13.2291 4.95547C13.4269 4.91576 13.6085 4.81827 13.7509 4.67535C13.8933 4.53243 13.9901 4.35049 14.0291 4.15254C14.0681 3.95459 14.0475 3.74953 13.9699 3.56328C13.8923 3.37704 13.7613 3.21798 13.5933 3.10622C13.4254 2.99446 13.228 2.93503 13.0263 2.93543C12.7558 2.93597 12.4966 3.04391 12.3057 3.2355C12.1148 3.4271 12.0079 3.68667 12.0083 3.95713ZM4.1356 8.50854C4.14036 10.9191 6.09808 12.8689 8.50817 12.8643C10.9183 12.8597 12.8694 10.9021 12.8648 8.49154C12.8602 6.08094 10.9019 4.1307 8.49151 4.13546C6.08108 4.14022 4.13101 6.09828 4.1356 8.50854ZM5.66662 8.50548C5.66552 7.94509 5.83061 7.39695 6.14102 6.93039C6.45143 6.46383 6.89323 6.09979 7.41054 5.88431C7.92785 5.66884 8.49743 5.6116 9.04727 5.71984C9.59711 5.82808 10.1025 6.09693 10.4995 6.4924C10.8966 6.88787 11.1674 7.3922 11.2779 7.94161C11.3883 8.49101 11.3333 9.06082 11.1199 9.57898C10.9064 10.0971 10.5441 10.5404 10.0788 10.8526C9.61349 11.1649 9.06601 11.3321 8.50562 11.3333C8.13352 11.334 7.76492 11.2615 7.42085 11.1198C7.07679 10.9781 6.764 10.77 6.50037 10.5074C6.23674 10.2449 6.02741 9.9329 5.88436 9.5894C5.7413 9.2459 5.66731 8.87758 5.66662 8.50548Z" fill="white"/>
</g>
<defs>
<clipPath id="clip0_834_848">
<rect width="17" height="17" fill="white"/>
</clipPath>
</defs>
</svg>
