<svg xmlns="http://www.w3.org/2000/svg" width="259" height="28" fill="none"><path fill="#FBC02D" d="M25.44 11.715h-.94v-.048H14v4.666h6.593A6.997 6.997 0 0 1 7 14a7 7 0 0 1 7-7c1.784 0 3.408.673 4.644 1.773l3.3-3.3A11.613 11.613 0 0 0 14 2.333C7.557 2.333 2.333 7.557 2.333 14S7.557 25.667 14 25.667 25.667 20.443 25.667 14c0-.782-.08-1.546-.227-2.285Z"/><path fill="#E53935" d="m3.678 8.57 3.834 2.81A6.997 6.997 0 0 1 14 7c1.784 0 3.408.673 4.644 1.773l3.3-3.3A11.613 11.613 0 0 0 14 2.333c-4.481 0-8.367 2.53-10.322 6.237Z"/><path fill="#4CAF50" d="M14 25.667c3.014 0 5.752-1.154 7.822-3.029l-3.61-3.056A6.948 6.948 0 0 1 14 21a6.997 6.997 0 0 1-6.582-4.635l-3.804 2.931c1.93 3.778 5.852 6.37 10.386 6.37Z"/><path fill="#1565C0" d="m25.44 11.715-.01-.048H14v4.666h6.593a7.023 7.023 0 0 1-2.384 3.25l.002-.001 3.61 3.055c-.255.233 3.846-2.804 3.846-8.637 0-.782-.08-1.546-.227-2.285Z"/><path fill="#fff" d="M49.701 7.742v13.091h-1.975V7.743h1.975Zm4.635 7.262v5.83h-1.912v-9.819h1.835v1.598h.121c.226-.52.58-.937 1.061-1.253.486-.315 1.098-.473 1.835-.473.669 0 1.255.14 1.758.422.503.277.893.69 1.17 1.24.277.55.415 1.23.415 2.04v6.244h-1.911v-6.015c0-.711-.185-1.267-.556-1.668-.371-.405-.88-.607-1.528-.607-.443 0-.837.096-1.183.288-.34.191-.611.473-.811.843-.196.367-.294.81-.294 1.33Zm8.846 5.83v-9.819h1.912v9.818h-1.912ZM64.147 9.5c-.332 0-.617-.11-.856-.332a1.081 1.081 0 0 1-.352-.806c0-.315.118-.583.352-.805.239-.226.524-.339.856-.339.333 0 .616.113.85.339.24.222.359.49.359.805 0 .312-.12.58-.358.806a1.193 1.193 0 0 1-.85.332ZM71.8 21.032c-.95 0-1.768-.216-2.454-.646a4.275 4.275 0 0 1-1.573-1.796c-.366-.763-.55-1.637-.55-2.621 0-.997.188-1.877.563-2.64.375-.767.903-1.366 1.585-1.796.682-.43 1.485-.646 2.41-.646.746 0 1.41.139 1.994.416a3.576 3.576 0 0 1 1.413 1.15c.362.495.578 1.072.646 1.733h-1.86a2.228 2.228 0 0 0-.704-1.19c-.362-.332-.847-.498-1.457-.498-.532 0-1 .14-1.4.422-.396.277-.705.673-.927 1.189-.221.511-.332 1.116-.332 1.815 0 .716.109 1.334.326 1.854.217.52.524.923.92 1.208.401.285.872.428 1.413.428.362 0 .69-.066.984-.198.299-.136.548-.33.748-.582.205-.251.348-.553.429-.907h1.86a3.614 3.614 0 0 1-.62 1.7c-.346.499-.808.89-1.387 1.176-.576.286-1.251.428-2.027.428Zm6.078-.199v-9.818h1.91v9.818h-1.91ZM78.843 9.5c-.333 0-.618-.11-.857-.332a1.081 1.081 0 0 1-.351-.806c0-.315.117-.583.351-.805.239-.226.524-.339.857-.339.332 0 .615.113.85.339.239.222.358.49.358.805 0 .312-.12.58-.358.806a1.193 1.193 0 0 1-.85.332Zm6.374 11.55a4.01 4.01 0 0 1-1.687-.345 2.844 2.844 0 0 1-1.196-1.016c-.29-.443-.434-.986-.434-1.63 0-.554.106-1.01.32-1.368.212-.358.5-.641.862-.85a4.505 4.505 0 0 1 1.215-.473 12.08 12.08 0 0 1 1.368-.243l1.431-.166c.367-.047.633-.121.8-.224.166-.102.249-.268.249-.498v-.045c0-.558-.158-.99-.473-1.298-.311-.306-.776-.46-1.394-.46-.643 0-1.15.143-1.521.428-.367.282-.62.595-.76.94l-1.797-.409c.213-.597.524-1.078.933-1.445.414-.37.889-.639 1.426-.805a5.563 5.563 0 0 1 1.694-.256c.392 0 .807.047 1.246.14.443.09.857.257 1.24.5.388.242.706.59.953 1.041.247.448.37 1.03.37 1.745v6.52h-1.866v-1.342h-.077c-.123.247-.309.49-.556.729a2.953 2.953 0 0 1-.952.594c-.388.158-.853.237-1.394.237Zm.416-1.533c.528 0 .98-.105 1.355-.314.38-.209.667-.481.863-.818.2-.34.3-.705.3-1.093v-1.266c-.068.069-.2.133-.396.192a6.16 6.16 0 0 1-.658.147c-.248.039-.488.075-.723.109-.234.03-.43.055-.588.077-.37.047-.71.125-1.016.236-.303.11-.546.27-.729.48-.179.204-.268.477-.268.818 0 .473.174.83.524 1.074.35.238.794.358 1.336.358Zm19.096-6.105-1.732.307a2.076 2.076 0 0 0-.345-.633 1.716 1.716 0 0 0-.627-.492c-.264-.128-.594-.192-.991-.192-.541 0-.993.122-1.355.365-.362.238-.543.547-.543.926 0 .329.121.593.364.793.243.2.635.364 1.176.492l1.56.358c.903.209 1.577.53 2.02.965.443.435.665 1 .665 1.694 0 .588-.171 1.113-.512 1.573-.336.456-.807.814-1.412 1.074-.601.26-1.298.39-2.09.39-1.1 0-1.997-.235-2.691-.704-.695-.473-1.121-1.144-1.279-2.013l1.847-.281c.115.481.352.846.71 1.093.358.242.824.364 1.4.364.626 0 1.127-.13 1.502-.39.375-.264.562-.586.562-.965 0-.307-.115-.565-.345-.774-.226-.208-.573-.366-1.042-.473l-1.662-.364c-.916-.209-1.593-.541-2.032-.997-.435-.456-.652-1.034-.652-1.732 0-.58.162-1.087.486-1.522.323-.434.77-.773 1.342-1.016.57-.247 1.225-.37 1.962-.37 1.061 0 1.896.23 2.506.69.609.456 1.012 1.067 1.208 1.834Zm6.525 7.62c-.968 0-1.801-.207-2.5-.62a4.206 4.206 0 0 1-1.61-1.758c-.375-.759-.563-1.647-.563-2.666 0-1.005.188-1.892.563-2.659.379-.767.907-1.366 1.585-1.796.682-.43 1.478-.646 2.39-.646.554 0 1.091.092 1.611.275.52.183.987.471 1.4.863.413.392.739.901.978 1.528.239.622.358 1.378.358 2.269v.678h-7.805v-1.432h5.932c0-.503-.102-.948-.307-1.336a2.315 2.315 0 0 0-.863-.927c-.366-.226-.796-.339-1.291-.339-.537 0-1.005.132-1.406.396-.396.26-.703.601-.921 1.023a2.952 2.952 0 0 0-.319 1.362v1.118c0 .657.115 1.215.345 1.675.234.46.56.812.978 1.055.418.238.906.358 1.464.358.362 0 .692-.052.991-.154.298-.106.556-.264.773-.473.217-.209.384-.466.499-.773l1.809.326c-.145.532-.405 1-.78 1.4a3.786 3.786 0 0 1-1.4.927c-.558.217-1.195.326-1.911.326Zm13.69-7.62-1.732.307a2.058 2.058 0 0 0-.346-.633 1.704 1.704 0 0 0-.626-.492c-.264-.128-.594-.192-.991-.192-.541 0-.993.122-1.355.365-.362.238-.543.547-.543.926 0 .329.121.593.364.793.243.2.635.364 1.176.492l1.56.358c.903.209 1.577.53 2.02.965.443.435.665 1 .665 1.694 0 .588-.171 1.113-.512 1.573-.336.456-.807.814-1.412 1.074-.601.26-1.298.39-2.091.39-1.099 0-1.996-.235-2.691-.704-.694-.473-1.12-1.144-1.278-2.013l1.847-.281c.115.481.352.846.71 1.093.358.242.824.364 1.4.364.626 0 1.127-.13 1.502-.39.375-.264.562-.586.562-.965 0-.307-.115-.565-.345-.774-.226-.208-.573-.366-1.042-.473l-1.662-.364c-.916-.209-1.594-.541-2.032-.997-.435-.456-.652-1.034-.652-1.732 0-.58.161-1.087.485-1.522.324-.434.772-.773 1.343-1.016.571-.247 1.225-.37 1.962-.37 1.061 0 1.896.23 2.506.69.609.456 1.012 1.067 1.208 1.834Zm2.293 7.421v-9.818h1.911v9.818h-1.911Zm.965-11.333c-.332 0-.618-.11-.856-.332a1.079 1.079 0 0 1-.352-.806c0-.315.117-.583.352-.805a1.2 1.2 0 0 1 .856-.339c.333 0 .616.113.85.339.239.222.358.49.358.805 0 .312-.119.58-.358.806a1.19 1.19 0 0 1-.85.332Zm7.653 11.532c-.92 0-1.724-.212-2.41-.633a4.266 4.266 0 0 1-1.598-1.77c-.379-.76-.569-1.646-.569-2.66 0-1.018.19-1.91.569-2.672.379-.763.912-1.355 1.598-1.777.686-.422 1.49-.633 2.41-.633.92 0 1.724.211 2.41.633.686.422 1.219 1.014 1.598 1.777.379.763.569 1.653.569 2.672 0 1.014-.19 1.9-.569 2.66a4.266 4.266 0 0 1-1.598 1.77c-.686.421-1.49.633-2.41.633Zm.006-1.605c.597 0 1.091-.158 1.483-.473.392-.315.682-.735.87-1.26a5.026 5.026 0 0 0 .287-1.731c0-.627-.096-1.202-.287-1.726-.188-.529-.478-.953-.87-1.272-.392-.32-.886-.48-1.483-.48-.6 0-1.099.16-1.495.48-.392.32-.684.743-.876 1.272a5.08 5.08 0 0 0-.281 1.726c0 .63.093 1.208.281 1.732.192.524.484.944.876 1.26.396.314.895.472 1.495.472Zm-.792-9.722 1.496-2.947h2.013l-1.981 2.947h-1.528Zm9.407 5.299v5.83h-1.911v-9.819h1.835v1.598h.121a2.81 2.81 0 0 1 1.061-1.253c.486-.315 1.097-.473 1.835-.473.669 0 1.255.14 1.757.422.503.277.893.69 1.17 1.24.277.55.416 1.23.416 2.04v6.244h-1.912v-6.015c0-.711-.185-1.267-.556-1.668-.37-.405-.88-.607-1.527-.607-.444 0-.838.096-1.183.288a2.073 2.073 0 0 0-.812.843c-.196.367-.294.81-.294 1.33Zm17.746 6.028c-.95 0-1.768-.216-2.454-.646a4.278 4.278 0 0 1-1.573-1.796c-.366-.763-.549-1.637-.549-2.621 0-.997.187-1.877.562-2.64.375-.767.903-1.366 1.585-1.796.682-.43 1.485-.646 2.41-.646.746 0 1.411.139 1.994.416a3.577 3.577 0 0 1 1.413 1.15c.362.495.577 1.072.646 1.733h-1.86a2.232 2.232 0 0 0-.704-1.19c-.362-.332-.848-.498-1.457-.498-.533 0-.999.14-1.4.422-.396.277-.705.673-.927 1.189-.221.511-.332 1.116-.332 1.815 0 .716.109 1.334.326 1.854.217.52.524.923.92 1.208.401.285.872.428 1.413.428.362 0 .69-.066.984-.198.299-.136.548-.33.748-.582.205-.251.348-.553.429-.907h1.86a3.625 3.625 0 0 1-.62 1.7c-.346.499-.808.89-1.388 1.176-.575.286-1.25.428-2.026.428Zm10.213 0c-.92 0-1.724-.212-2.41-.633a4.273 4.273 0 0 1-1.598-1.77c-.379-.76-.569-1.646-.569-2.66 0-1.018.19-1.91.569-2.672.38-.763.912-1.355 1.598-1.777.686-.422 1.49-.633 2.41-.633.921 0 1.724.211 2.41.633.686.422 1.219 1.014 1.598 1.777.379.763.569 1.653.569 2.672 0 1.014-.19 1.9-.569 2.66a4.266 4.266 0 0 1-1.598 1.77c-.686.421-1.489.633-2.41.633Zm.006-1.605c.597 0 1.091-.158 1.483-.473.392-.315.682-.735.87-1.26a5.002 5.002 0 0 0 .287-1.731c0-.627-.095-1.202-.287-1.726-.188-.529-.478-.953-.87-1.272-.392-.32-.886-.48-1.483-.48-.6 0-1.099.16-1.495.48-.392.32-.684.743-.876 1.272a5.104 5.104 0 0 0-.281 1.726c0 .63.094 1.208.281 1.732.192.524.484.944.876 1.26.396.314.895.472 1.495.472Zm8.615-4.423v5.83h-1.911v-9.819h1.835v1.598h.121a2.81 2.81 0 0 1 1.061-1.253c.486-.315 1.097-.473 1.835-.473.669 0 1.255.14 1.758.422.502.277.892.69 1.169 1.24s.416 1.23.416 2.04v6.244h-1.911v-6.015c0-.711-.186-1.267-.557-1.668-.37-.405-.88-.607-1.527-.607-.443 0-.838.096-1.183.288a2.073 2.073 0 0 0-.812.843c-.196.367-.294.81-.294 1.33Zm22.623-3.126a3.97 3.97 0 0 0-.498-1.042 3.206 3.206 0 0 0-.735-.793 3.099 3.099 0 0 0-.978-.504 3.934 3.934 0 0 0-1.196-.173c-.737 0-1.402.19-1.994.569-.592.38-1.061.935-1.406 1.668-.341.729-.511 1.622-.511 2.678 0 1.061.172 1.959.517 2.691.345.733.818 1.29 1.419 1.669.601.38 1.285.569 2.052.569.712 0 1.332-.145 1.86-.435.533-.29.944-.699 1.234-1.227.294-.533.441-1.16.441-1.88l.511.096h-3.745v-1.63h5.145v1.49c0 1.1-.234 2.054-.703 2.863a4.786 4.786 0 0 1-1.93 1.867c-.819.439-1.756.658-2.813.658-1.184 0-2.224-.272-3.119-.818-.891-.545-1.585-1.319-2.084-2.32-.499-1.006-.748-2.2-.748-3.58 0-1.044.145-1.981.435-2.812.29-.831.697-1.536 1.221-2.116a5.323 5.323 0 0 1 1.86-1.336 5.824 5.824 0 0 1 2.346-.467c.707 0 1.365.105 1.975.314a5.329 5.329 0 0 1 1.636.888c.482.384.88.84 1.195 1.368.316.524.529 1.106.64 1.745h-2.027Zm8.606 9.154c-.921 0-1.724-.212-2.41-.633a4.266 4.266 0 0 1-1.598-1.77c-.379-.76-.569-1.646-.569-2.66 0-1.018.19-1.91.569-2.672.379-.763.912-1.355 1.598-1.777.686-.422 1.489-.633 2.41-.633.92 0 1.723.211 2.41.633.686.422 1.218 1.014 1.598 1.777.379.763.568 1.653.568 2.672 0 1.014-.189 1.9-.568 2.66a4.273 4.273 0 0 1-1.598 1.77c-.687.421-1.49.633-2.41.633Zm.006-1.605c.597 0 1.091-.158 1.483-.473.392-.315.682-.735.869-1.26a5.002 5.002 0 0 0 .288-1.731c0-.627-.096-1.202-.288-1.726-.187-.529-.477-.953-.869-1.272-.392-.32-.886-.48-1.483-.48-.601 0-1.099.16-1.496.48-.392.32-.684.743-.875 1.272a5.08 5.08 0 0 0-.282 1.726c0 .63.094 1.208.282 1.732.191.524.483.944.875 1.26.397.314.895.472 1.496.472Zm10.839 1.605c-.92 0-1.723-.212-2.409-.633a4.266 4.266 0 0 1-1.598-1.77c-.38-.76-.569-1.646-.569-2.66 0-1.018.189-1.91.569-2.672.379-.763.912-1.355 1.598-1.777.686-.422 1.489-.633 2.409-.633.921 0 1.724.211 2.41.633.686.422 1.219 1.014 1.598 1.777.379.763.569 1.653.569 2.672 0 1.014-.19 1.9-.569 2.66a4.266 4.266 0 0 1-1.598 1.77c-.686.421-1.489.633-2.41.633Zm.007-1.605c.596 0 1.091-.158 1.483-.473.392-.315.682-.735.869-1.26a5.002 5.002 0 0 0 .288-1.731c0-.627-.096-1.202-.288-1.726-.187-.529-.477-.953-.869-1.272-.392-.32-.887-.48-1.483-.48-.601 0-1.1.16-1.496.48-.392.32-.684.743-.876 1.272a5.104 5.104 0 0 0-.281 1.726c0 .63.094 1.208.281 1.732.192.524.484.944.876 1.26.396.314.895.472 1.496.472Zm10.82 5.293c-.78 0-1.451-.103-2.014-.307-.558-.205-1.014-.475-1.367-.812a3.41 3.41 0 0 1-.793-1.106l1.643-.677c.115.187.268.385.46.594.196.213.46.394.793.544.336.149.769.223 1.297.223.725 0 1.323-.177 1.796-.53.473-.35.71-.908.71-1.675v-1.93h-.122a4.367 4.367 0 0 1-.498.696c-.213.256-.507.478-.882.665-.375.188-.863.281-1.464.281-.776 0-1.475-.18-2.097-.543-.618-.367-1.108-.906-1.47-1.617-.358-.716-.537-1.596-.537-2.64s.177-1.94.531-2.685c.358-.745.848-1.317 1.47-1.713.622-.4 1.327-.6 2.116-.6.609 0 1.101.102 1.476.306.375.2.667.435.876.703.213.269.377.505.492.71h.141v-1.592h1.873v10.036c0 .843-.196 1.536-.588 2.077-.392.541-.923.942-1.592 1.202-.665.26-1.415.39-2.25.39Zm-.019-5.619c.549 0 1.014-.128 1.393-.383.384-.26.674-.631.87-1.113.2-.486.3-1.067.3-1.745 0-.66-.098-1.242-.294-1.745-.196-.503-.484-.895-.863-1.176-.379-.285-.848-.428-1.406-.428-.576 0-1.055.149-1.438.447-.384.294-.674.695-.87 1.202a4.771 4.771 0 0 0-.287 1.7c0 .644.098 1.208.294 1.694.196.486.485.865.869 1.138.388.273.865.41 1.432.41Zm8.923-11.359v13.091h-1.911V7.743h1.911Zm6.803 13.29c-.968 0-1.801-.207-2.499-.62a4.202 4.202 0 0 1-1.611-1.758c-.375-.759-.563-1.647-.563-2.666 0-1.005.188-1.892.563-2.659.379-.767.907-1.366 1.585-1.796.682-.43 1.479-.646 2.391-.646.554 0 1.09.092 1.61.275.52.183.987.471 1.4.863.414.392.74.901.978 1.528.239.622.358 1.378.358 2.269v.678h-7.805v-1.432h5.932c0-.503-.102-.948-.307-1.336a2.32 2.32 0 0 0-.862-.927c-.367-.226-.797-.339-1.292-.339-.537 0-1.005.132-1.406.396-.396.26-.703.601-.92 1.023-.213.418-.32.872-.32 1.362v1.118c0 .657.115 1.215.345 1.675.235.46.561.812.978 1.055.418.238.906.358 1.464.358.362 0 .692-.052.991-.154a2.047 2.047 0 0 0 1.272-1.246l1.809.326c-.145.532-.405 1-.78 1.4a3.778 3.778 0 0 1-1.4.927c-.558.217-1.195.326-1.911.326Z"/></svg>