<svg width="29" height="44" viewBox="0 0 29 44" fill="none" xmlns="http://www.w3.org/2000/svg">
<mask id="mask0_316_685" style="mask-type:luminance" maskUnits="userSpaceOnUse" x="0" y="0" width="29" height="44">
<path d="M0.59668 0.57373H28.847V43.8751H0.59668V0.57373Z" fill="white"/>
</mask>
<g mask="url(#mask0_316_685)">
<path fill-rule="evenodd" clip-rule="evenodd" d="M-156.812 39.1663V39.0471C-156.812 27.8145 -147.954 18.2972 -135.491 18.2972C-129.293 18.2972 -125.163 19.7278 -121.383 22.3637C-120.396 23.0724 -119.905 24.0327 -119.905 25.2315C-119.905 27.1257 -121.497 28.7285 -123.505 28.7285C-124.452 28.7285 -125.157 28.3311 -125.748 27.9271C-128.407 26.0329 -131.301 24.7745 -135.787 24.7745C-143.408 24.7745 -149.19 31.2518 -149.19 38.9345V39.0471C-149.19 47.306 -143.583 53.3794 -135.135 53.3794C-131.241 53.3794 -127.702 52.1806 -125.157 50.346V42.8355H-133.309C-135.082 42.8355 -136.552 41.5175 -136.552 39.7955C-136.552 38.0735 -135.082 36.696 -133.309 36.696H-121.792C-119.724 36.696 -118.133 38.2457 -118.133 40.2525V50.9752C-118.133 52.982 -118.959 54.4126 -120.671 55.4458C-124.217 57.7373 -129.172 59.8037 -135.37 59.8037C-148.31 59.8037 -156.812 50.8626 -156.812 39.1663ZM-111.619 20.4166C-111.619 18.5224 -110.088 16.9792 -108.08 16.9792C-106.072 16.9792 -104.474 18.5224 -104.474 20.4166V55.9623C-104.474 57.9095 -106.072 59.3997 -108.08 59.3997C-110.028 59.3997 -111.619 57.9095 -111.619 55.9623V20.4166ZM-98.941 44.1535V44.0343C-98.941 35.378 -91.8566 28.2119 -82.2876 28.2119C-72.7253 28.2119 -65.6946 35.2654 -65.6946 43.9217V44.0343C-65.6946 52.6376 -72.7858 59.8037 -82.4085 59.8037C-91.917 59.8037 -98.941 52.7502 -98.941 44.1535ZM-72.8395 44.1535V44.0343C-72.8395 38.7027 -76.8014 34.2918 -82.4085 34.2918C-88.1364 34.2918 -91.7962 38.6497 -91.7962 43.9217V44.0343C-91.7962 49.3128 -87.841 53.7238 -82.2876 53.7238C-76.5059 53.7238 -72.8462 49.3658 -72.8462 44.1535H-72.8395ZM-47.8594 59.6845H-48.2153C-50.1627 59.6845 -51.4587 58.4857 -52.2846 56.6511L-62.6796 33.5434C-62.8542 33.0268 -63.0892 32.4572 -63.0892 31.8214C-63.0892 30.106 -61.4977 28.4966 -59.5503 28.4966C-57.603 28.4966 -56.5957 29.5894 -56.0048 31.02L-47.9736 51.0878L-39.8282 30.9074C-39.2977 29.702 -38.3509 28.4966 -36.4639 28.4966C-34.5165 28.4966 -32.9788 29.9338 -32.9788 31.8214C-32.9788 32.4572 -33.2138 33.146 -33.3884 33.4838L-43.7833 56.6511C-44.616 58.4261 -45.912 59.6911 -47.8594 59.6911V59.6845ZM-30.3733 44.1535V44.0343C-30.3733 35.378 -23.2889 28.2119 -13.72 28.2119C-4.15768 28.2119 -0.972809 38.743 -0.972809 47.3993L2.873 44.0343C2.873 52.6376 -4.2114 59.8037 -13.8408 59.8037C-23.3427 59.8037 -30.3733 52.7502 -30.3733 44.1535ZM-4.27184 44.1535V44.0343C-4.27184 38.7027 -8.22702 34.2918 -13.8408 34.2918C-19.5688 34.2918 -23.2285 38.6497 -23.2285 43.9217V44.0343C-23.2285 49.3128 -19.2733 53.7238 -13.72 53.7238C-7.93828 53.7238 -4.27184 49.3658 -4.27184 44.1535ZM14.8191 0.73291C7.08336 0.73291 0.791321 6.84597 0.791321 14.3565C0.791321 17.2176 1.70459 19.9662 3.43707 22.2975L3.80641 22.8008L11.1124 32.8082C11.1124 32.8082 12.0055 34.2256 13.9462 34.2256H15.6921C17.6395 34.2256 18.5258 32.8082 18.5258 32.8082L25.8318 22.8008L26.2012 22.2975C27.9673 19.9397 28.8469 17.2905 28.8469 14.3565C28.8469 6.84597 22.5549 0.73291 14.8191 0.73291ZM20.5941 18.3767L20.2046 18.9065L14.8191 26.2846L9.44707 18.9197L9.05089 18.3899C8.15106 17.1911 7.70114 15.8467 7.70114 14.3565C7.70114 10.5416 10.8908 7.44204 14.8191 7.44204C18.7475 7.44204 21.9371 10.5416 21.9371 14.3565C21.9371 15.8003 21.4738 17.1911 20.5941 18.3767ZM10.8707 40.3717V40.3386C10.8707 38.3054 12.536 36.6231 14.7856 36.6231C17.0351 36.6231 18.687 38.2789 18.687 40.3121V40.3386C18.687 42.3587 17.0217 44.0475 14.7587 44.0475C12.5293 44.0475 10.8707 42.3918 10.8707 40.3717Z" fill="white"/>
</g>
</svg>
