<svg width="92" height="29" viewBox="0 0 92 29" fill="none" xmlns="http://www.w3.org/2000/svg">
<path d="M19.7409 22.7406L23.5497 0.550537H26.6195L22.8107 22.7406H19.7409ZM38.5006 22.319C37.7616 26.641 35.0898 28.9075 30.8262 28.9075C28.2112 28.9075 26.1647 28.0114 24.8003 26.4829L26.5058 24.5327C27.6996 25.8504 29.1208 26.4302 30.8262 26.4302C33.3843 26.4302 34.9761 25.0598 35.4877 22.319L35.6583 21.2121H35.6014C34.2371 22.4244 32.5885 23.0569 30.8262 23.0569C27.529 23.0569 25.9373 21.5283 25.9373 18.5767C25.9373 17.9969 25.9941 17.4171 26.1078 16.7846L27.6427 7.66612H30.6557L29.1208 16.7846C29.0071 17.259 29.0071 17.6807 29.0071 18.0496C29.0071 19.7363 29.8029 20.5269 31.5652 20.5269C33.4412 20.5269 35.0898 19.4727 36.1699 17.6279L37.8753 7.61342H40.9451L38.5006 22.319ZM73.0641 10.4069L73.6894 7.61342H70.6765L68.1183 22.7933H71.1881L72.5524 14.6763C73.1777 11.6719 75.5085 10.1961 78.0098 10.1961C78.2941 10.1961 78.5214 10.1961 78.8057 10.1961L79.2605 7.508C76.3612 7.13904 74.201 8.50945 73.0641 10.4069ZM61.4671 7.71883L56.4077 18.2077L54.5886 7.71883H51.6325L46.4593 18.2077L44.7539 7.71883H41.6273L44.2423 22.846H47.4826L52.542 12.3571L54.3043 22.846H57.4309L64.7074 7.71883H61.4671ZM62.5472 22.846L65.1054 7.71883H68.1752L65.617 22.846H62.5472ZM68.971 4.66177C68.971 5.5578 68.1752 6.29571 67.2087 6.29571C66.2423 6.29571 65.4465 5.5578 65.4465 4.66177C65.4465 3.76573 66.2423 3.02782 67.2087 3.02782C68.232 3.02782 68.971 3.76573 68.971 4.66177ZM11.9528 11.8828L12.237 10.2488H1.32224L1.77702 7.61342H12.6918L12.9192 6.34842C13.5445 2.65886 16.1595 0.550537 20.1957 0.550537H22.4127L21.958 3.13323H19.9114C17.6944 3.13323 16.4437 4.13468 16.0458 6.45384L15.8753 7.61342H20.082L19.6272 10.2488H15.4205L13.0897 23.0042C12.4644 26.6937 9.79255 28.8021 5.75636 28.7493H5.52897L5.98375 25.9558H6.15429C8.4282 25.9558 9.622 25.0598 10.0199 22.7933L11.498 14.5182H0.526367L0.981149 11.8828H11.9528ZM83.3535 20.5796C87.6171 20.5269 87.7308 17.7334 87.7308 17.7334H90.5732C90.5732 17.7334 89.9478 23.0042 83.2967 23.0042C81.2501 23.0042 79.5447 22.3717 78.5783 21.2121C77.4982 19.9471 77.1571 18.4186 77.4413 16.5211L77.6687 15.1507C78.2941 11.6192 79.1468 7.19175 85.798 7.19175C87.6171 7.19175 89.152 7.66612 90.1752 8.61487C91.0848 9.40549 91.5964 10.5651 91.5964 11.6719C91.5964 13.3059 90.8574 14.5709 89.4362 15.3615C87.9582 16.2048 86.139 16.363 84.7747 16.363H80.2837C79.9995 17.8388 80.17 18.9456 80.7954 19.5781C81.3638 20.3161 82.2166 20.6323 83.3535 20.5796ZM80.7954 13.6221L80.6817 14.0965H84.8315C87.4465 14.0965 88.6403 13.3586 88.6403 11.7774C88.6403 10.4597 87.4465 9.66903 85.5706 9.66903C82.9556 9.66903 81.307 11.0921 80.7954 13.6221Z" fill="white"/>
</svg>
