<svg width="131" height="23" viewBox="0 0 131 23" fill="none" xmlns="http://www.w3.org/2000/svg">
<path opacity="0.7" d="M121.646 0.550537V3.62053H127.554V19.4343H121.646V22.5043H130.562V0.572625H121.646V0.550537ZM9.63558 0.550537V3.62053H3.72774V19.4343H9.63558V22.5043H0.719727V0.572625H9.63558V0.550537ZM106.996 6.33714H114.786V8.41325H109.246V10.5556H114.115V12.6317H109.246V14.8404H114.851V16.9165H106.974V6.33714H106.996ZM94.163 6.33714H96.6084L99.3134 10.7986L102.018 6.33714H104.464V16.8944H102.213V10.0035L99.3134 14.5091H99.2485L96.3703 10.0476V16.8944H94.1414V6.33714H94.163ZM89.77 11.6378V11.6158C89.77 9.80468 88.4716 8.30282 86.6322 8.30282C84.7927 8.30282 83.5376 9.7826 83.5376 11.5937V11.6158C83.5376 13.4268 84.836 14.9287 86.6754 14.9287C88.4932 14.9287 89.77 13.4489 89.77 11.6378ZM81.1571 11.6378V11.6158C81.1571 8.61203 83.4727 6.16045 86.6538 6.16045C89.8349 6.16045 92.1288 8.58994 92.1288 11.5937V11.6158C92.1288 14.6195 89.8133 17.0711 86.6322 17.0711C83.451 17.0711 81.1571 14.6416 81.1571 11.6378ZM70.4018 6.33714H72.6741V10.5114H76.8723V6.33714H79.1446V16.8944H76.8723V12.6538H72.6741V16.8944H70.4018V6.33714ZM65.2947 13.0293L62.9576 7.64023L60.5987 13.0293H65.2947ZM62.4165 6.2488H63.4986L68.2162 16.8944H66.961L65.7492 14.1115H60.1227L58.8891 16.8944H57.6989L62.4165 6.2488ZM51.5747 8.47951H48.4368V6.33714H57.0064V8.47951H53.8469V16.8944H51.5747V8.47951ZM45.2124 11.6378V11.6158C45.2124 9.80468 43.914 8.30282 42.0746 8.30282C40.2351 8.30282 38.98 9.7826 38.98 11.5937V11.6158C38.98 13.4268 40.2784 14.9287 42.1178 14.9287C43.9573 14.9287 45.2124 13.4489 45.2124 11.6378ZM36.6212 11.6378V11.6158C36.6212 8.61203 38.9367 6.16045 42.1178 6.16045C45.299 6.16045 47.5929 8.58994 47.5929 11.5937V11.6158C47.5929 14.6195 45.2773 17.0711 42.0962 17.0711C38.8934 17.0711 36.6212 14.6416 36.6212 11.6378ZM31.276 11.6599C32.4229 11.6599 33.0721 10.9753 33.0721 10.0697V10.0476C33.0721 9.00958 32.358 8.45742 31.2327 8.45742H29.4798V11.682H31.276V11.6599ZM27.2076 6.33714H31.4275C33.8945 6.33714 35.3877 7.83901 35.3877 9.98138V10.0035C35.3877 12.455 33.5266 13.714 31.2111 13.714H29.4798V16.8944H27.2076V6.33714ZM17.0582 15.3704L18.3999 13.736C19.3305 14.5311 20.3043 15.017 21.4945 15.017C22.4251 15.017 22.9877 14.6416 22.9877 14.0232V14.0011C22.9877 13.4047 22.6415 13.1176 20.9102 12.6538C18.8328 12.1017 17.491 11.5274 17.491 9.42922V9.40713C17.491 7.48563 19.0059 6.22671 21.105 6.22671C22.6198 6.22671 23.8966 6.71261 24.9353 7.57397L23.7451 9.31879C22.8362 8.67829 21.9273 8.28073 21.0617 8.28073C20.1961 8.28073 19.7416 8.67829 19.7416 9.20836V9.23044C19.7416 9.91512 20.1745 10.1581 21.9706 10.6219C24.0697 11.174 25.2383 11.9471 25.2383 13.8023V13.8244C25.2383 15.9226 23.6802 17.0932 21.4512 17.0932C19.8715 17.049 18.2917 16.4968 17.0582 15.3704Z" fill="white"/>
</svg>
