<svg xmlns="http://www.w3.org/2000/svg" width="309" height="160" fill="none"><rect width="307" height="159" x=".6" y=".5" fill="#0F111E" stroke="url(#a)" rx="4.5"/><rect width="58" height="14" x="39.6" y="68.5" fill="#0F111E" stroke="#1F1F32" rx="7"/><rect width="58" height="14" x="39.6" y="96.5" fill="#0F111E" stroke="#1F1F32" rx="7"/><rect width="58" height="14" x="39.6" y="40.5" fill="#0F111E" stroke="#1F1F32" rx="7"/><rect width="131" height="14" x="104.6" y="68.5" fill="#0F111E" stroke="#1F1F32" rx="7"/><rect width="131" height="14" x="104.6" y="96.5" fill="#0F111E" stroke="#1F1F32" rx="7"/><rect width="131" height="14" x="104.6" y="40.5" fill="#0F111E" stroke="#1F1F32" rx="7"/><circle cx="20.1" cy="75" r="7.5" fill="#0F111E" stroke="#1F1F32"/><circle cx="20.1" cy="47" r="7.5" fill="#0F111E" stroke="#1F1F32"/><circle cx="20.1" cy="103" r="7.5" fill="#0F111E" stroke="#1F1F32"/><path stroke="#1F1F32" stroke-width=".8" d="M1 25h306"/><path fill="#7E7E98" d="M109 17h-2l3-8h2l3 8h-2l-2-7-2 7Zm0-3h4v1h-4v-1Zm11-2-1 1v-1h-2v1h1l1 1h1l1 1-1 1-1 1h-3v-2h1v1h2v-1h-1l-1-1h-1v-2l1-1h3v1Zm5-1v1h-3v-1h3Zm-3-1h2v6h1v1a2 2 0 0 1-2 0v-1l-1-1v-5Zm4 7v-6h2v1-1h1a5 5 0 0 1 1 0v1h-2a1 1 0 0 0 0 1v4h-2Zm7 0h-1l-1-1v-2h2l1-1v-1h-2v1l-1-1a2 2 0 0 1 1-1 3 3 0 0 1 2 0h1v1l1 1v4h-2v-1 1h-1Zm0-1h1a1 1 0 0 0 0-1v-1a45 45 0 0 1-2 1v1h1Zm7 1h-2l-1-1v-4l1-1h3a2 2 0 0 1 1 2v1h-4v-1h3a1 1 0 0 0-1-1h-1l-1 1v2l1 1h2v-1l1 1-1 1h-1Zm10 0h-3V9h5l1 2 1 2-1 2-1 2h-2Zm-2-1h3l1-1 1-2-1-2-1-1h-3v6Zm9 1h-1l-1-1v-2h2l1-1h1v-1h-2l-1 1-1-1a2 2 0 0 1 2-1 3 3 0 0 1 2 0l1 1v5h-1v-1 1h-2Zm0-1h1a1 1 0 0 0 1-1v-1h-1a45 45 0 0 1-1 1h-1l1 1Zm9-4-1 1v-1h-2v1h1l1 1h1l1 1-1 1-1 1h-3v-2h1v1h2v-1h-1l-1-1h-1v-2l1-1h3v1Zm3 1v4h-1V9h1v3l1-1h2l1 1v5h-1v-5h-2l-1 1Zm6 4V9h1v3h1v-1h1a2 2 0 0 1 2 1v4l-1 1h-2l-1-1v1h-1Zm1-3v1l1 1h2v-4h-2l-1 1v1Zm9 3h-2l-1-1v-4a3 3 0 0 1 3-1h1l1 1v4a3 3 0 0 1-2 1Zm0-1 1-1v-2l-1-1h-1l-1 1v2l1 1h1Zm6 1h-1l-1-1v-2h2l1-1v-1h-2v1l-1-1a2 2 0 0 1 1-1 3 3 0 0 1 2 0h1v1l1 1v4h-2v-1 1h-1Zm0-1h1a1 1 0 0 0 0-1v-1a45 45 0 0 1-2 1v1h1Zm4 1v-6h2v1-1h1a5 5 0 0 1 1 0v1h-2a1 1 0 0 0 0 1v4h-2Zm7 0a2 2 0 0 1-2-1l-1-2 1-2 1-1h2v1h1V9h1v8h-1v-1l-1 1a2 2 0 0 1-1 0Zm0-1h1l1-1v-2l-1-1h-2v4h1Z"/><circle cx="22.5" cy="13.5" r="2.5" fill="#1A1B2D"/><g filter="url(#b)"><circle cx="31.5" cy="13.5" r="2.5" fill="#4C409F"/></g><circle cx="12.5" cy="13.5" r="2.5" fill="#1A1B2D"/><defs><radialGradient id="a" cx="0" cy="0" r="1" gradientTransform="matrix(1 93 -408 4 162 0)" gradientUnits="userSpaceOnUse"><stop stop-color="#4D3B85"/><stop offset="1" stop-color="#223" stop-opacity="0"/></radialGradient><filter id="b" width="26.6" height="26.6" x="18.2" y=".2" color-interpolation-filters="sRGB" filterUnits="userSpaceOnUse"><feFlood flood-opacity="0" result="BackgroundImageFix"/><feColorMatrix in="SourceAlpha" result="hardAlpha" values="0 0 0 0 0 0 0 0 0 0 0 0 0 0 0 0 0 0 127 0"/><feOffset/><feGaussianBlur stdDeviation="1.6"/><feColorMatrix values="0 0 0 0 0.298039 0 0 0 0 0.25098 0 0 0 0 0.623529 0 0 0 1 0"/><feBlend in2="BackgroundImageFix" result="effect1_dropShadow_558_76"/><feColorMatrix in="SourceAlpha" result="hardAlpha" values="0 0 0 0 0 0 0 0 0 0 0 0 0 0 0 0 0 0 127 0"/><feOffset/><feGaussianBlur stdDeviation="5.4"/><feColorMatrix values="0 0 0 0 0.298039 0 0 0 0 0.25098 0 0 0 0 0.623529 0 0 0 1 0"/><feBlend in2="effect1_dropShadow_558_76" result="effect2_dropShadow_558_76"/><feBlend in="SourceGraphic" in2="effect2_dropShadow_558_76" result="shape"/></filter></defs></svg>