<svg xmlns="http://www.w3.org/2000/svg" width="151" height="63" fill="none"><g filter="url(#a)"><circle cx="119.5" cy="27.5" r="27" fill="#101220" stroke="#212132"/><g filter="url(#b)" opacity=".5"><path fill="#806FE8" d="M139 44c0 6-9 10-19 10s-21-6-19-9c2-4 9-11 19-11s16 5 19 10Z"/></g><g filter="url(#c)" opacity=".5"><path fill="#806FE8" d="M130 21a10 10 0 1 1-20 0 10 10 0 0 1 20 0Z"/></g><g filter="url(#d)"><path fill="url(#e)" d="M103 30v2l2 1h-2v2l-1-2h-2l2-1 1-2Z"/></g><circle cx="90.5" cy="27.5" r="27" fill="#101220" stroke="#212132"/><g filter="url(#f)" opacity=".5"><path fill="#806FE8" d="M110 44c0 6-9 10-19 10s-21-6-19-9c2-4 9-11 19-11s16 5 19 10Z"/></g><g filter="url(#g)" opacity=".5"><path fill="#806FE8" d="M101 21a10 10 0 1 1-20 0 10 10 0 0 1 20 0Z"/></g><g filter="url(#h)"><path fill="url(#i)" d="M74 30v2l2 1h-2v2l-1-2h-2l2-1 1-2Z"/></g><circle cx="60.5" cy="27.5" r="27" fill="#101220" stroke="#212132"/><g filter="url(#j)" opacity=".5"><path fill="#806FE8" d="M80 44c0 6-9 10-19 10s-21-6-19-9c2-4 9-11 19-11s16 5 19 10Z"/></g><g filter="url(#k)" opacity=".5"><path fill="#806FE8" d="M71 21a10 10 0 1 1-20 0 10 10 0 0 1 20 0Z"/></g><circle cx="31.5" cy="27.5" r="27" fill="#101220" stroke="#212132"/><g filter="url(#l)"><path fill="#806FE8" d="M51 44c0 6-9 10-19 10s-21-6-19-9c2-4 9-11 19-11s16 5 19 10Z"/></g><g filter="url(#m)"><path fill="#806FE8" d="M42 21a10 10 0 1 1-20 0 10 10 0 0 1 20 0Z"/></g><g filter="url(#n)"><path fill="url(#o)" d="M48 18v2l2 1h-2v2l-1-2h-2l2-1 1-2Z"/></g><g filter="url(#p)"><path fill="url(#q)" d="M51 25v1l1 1h-1v1l-1-1h-1l1-1 1-1Z"/></g><g filter="url(#r)"><path fill="url(#s)" d="M15 30v2l2 1h-2v2l-1-2h-2l2-1 1-2Z"/></g></g><defs><filter id="a" width="151" height="63" x="0" y="0" color-interpolation-filters="sRGB" filterUnits="userSpaceOnUse"><feFlood flood-opacity="0" result="BackgroundImageFix"/><feColorMatrix in="SourceAlpha" result="hardAlpha" values="0 0 0 0 0 0 0 0 0 0 0 0 0 0 0 0 0 0 127 0"/><feOffset dy="4"/><feGaussianBlur stdDeviation="2"/><feComposite in2="hardAlpha" operator="out"/><feColorMatrix values="0 0 0 0 0 0 0 0 0 0 0 0 0 0 0 0 0 0 0.25 0"/><feBlend in2="BackgroundImageFix" result="effect1_dropShadow_405_105"/><feBlend in="SourceGraphic" in2="effect1_dropShadow_405_105" result="shape"/></filter><filter id="b" width="47.4" height="29.3" x="95.8" y="29.4" color-interpolation-filters="sRGB" filterUnits="userSpaceOnUse"><feFlood flood-opacity="0" result="BackgroundImageFix"/><feColorMatrix in="SourceAlpha" result="hardAlpha" values="0 0 0 0 0 0 0 0 0 0 0 0 0 0 0 0 0 0 127 0"/><feOffset/><feGaussianBlur stdDeviation="2.3"/><feColorMatrix values="0 0 0 0 0.501961 0 0 0 0 0.435294 0 0 0 0 0.909804 0 0 0 1 0"/><feBlend in2="BackgroundImageFix" result="effect1_dropShadow_405_105"/><feBlend in="SourceGraphic" in2="effect1_dropShadow_405_105" result="shape"/></filter><filter id="c" width="29" height="29" x="105.5" y="6.5" color-interpolation-filters="sRGB" filterUnits="userSpaceOnUse"><feFlood flood-opacity="0" result="BackgroundImageFix"/><feColorMatrix in="SourceAlpha" result="hardAlpha" values="0 0 0 0 0 0 0 0 0 0 0 0 0 0 0 0 0 0 127 0"/><feOffset/><feGaussianBlur stdDeviation="2.3"/><feColorMatrix values="0 0 0 0 0.501961 0 0 0 0 0.435294 0 0 0 0 0.909804 0 0 0 1 0"/><feBlend in2="BackgroundImageFix" result="effect1_dropShadow_405_105"/><feBlend in="SourceGraphic" in2="effect1_dropShadow_405_105" result="shape"/></filter><filter id="d" width="9" height="9" x="98" y="28" color-interpolation-filters="sRGB" filterUnits="userSpaceOnUse"><feFlood flood-opacity="0" result="BackgroundImageFix"/><feColorMatrix in="SourceAlpha" result="hardAlpha" values="0 0 0 0 0 0 0 0 0 0 0 0 0 0 0 0 0 0 127 0"/><feOffset/><feGaussianBlur stdDeviation="1"/><feColorMatrix values="0 0 0 0 0.501961 0 0 0 0 0.435294 0 0 0 0 0.909804 0 0 0 1 0"/><feBlend in2="BackgroundImageFix" result="effect1_dropShadow_405_105"/><feBlend in="SourceGraphic" in2="effect1_dropShadow_405_105" result="shape"/></filter><filter id="f" width="47.4" height="29.3" x="66.8" y="29.4" color-interpolation-filters="sRGB" filterUnits="userSpaceOnUse"><feFlood flood-opacity="0" result="BackgroundImageFix"/><feColorMatrix in="SourceAlpha" result="hardAlpha" values="0 0 0 0 0 0 0 0 0 0 0 0 0 0 0 0 0 0 127 0"/><feOffset/><feGaussianBlur stdDeviation="2.3"/><feColorMatrix values="0 0 0 0 0.501961 0 0 0 0 0.435294 0 0 0 0 0.909804 0 0 0 1 0"/><feBlend in2="BackgroundImageFix" result="effect1_dropShadow_405_105"/><feBlend in="SourceGraphic" in2="effect1_dropShadow_405_105" result="shape"/></filter><filter id="g" width="29" height="29" x="76.5" y="6.5" color-interpolation-filters="sRGB" filterUnits="userSpaceOnUse"><feFlood flood-opacity="0" result="BackgroundImageFix"/><feColorMatrix in="SourceAlpha" result="hardAlpha" values="0 0 0 0 0 0 0 0 0 0 0 0 0 0 0 0 0 0 127 0"/><feOffset/><feGaussianBlur stdDeviation="2.3"/><feColorMatrix values="0 0 0 0 0.501961 0 0 0 0 0.435294 0 0 0 0 0.909804 0 0 0 1 0"/><feBlend in2="BackgroundImageFix" result="effect1_dropShadow_405_105"/><feBlend in="SourceGraphic" in2="effect1_dropShadow_405_105" result="shape"/></filter><filter id="h" width="9" height="9" x="69" y="28" color-interpolation-filters="sRGB" filterUnits="userSpaceOnUse"><feFlood flood-opacity="0" result="BackgroundImageFix"/><feColorMatrix in="SourceAlpha" result="hardAlpha" values="0 0 0 0 0 0 0 0 0 0 0 0 0 0 0 0 0 0 127 0"/><feOffset/><feGaussianBlur stdDeviation="1"/><feColorMatrix values="0 0 0 0 0.501961 0 0 0 0 0.435294 0 0 0 0 0.909804 0 0 0 1 0"/><feBlend in2="BackgroundImageFix" result="effect1_dropShadow_405_105"/><feBlend in="SourceGraphic" in2="effect1_dropShadow_405_105" result="shape"/></filter><filter id="j" width="47.4" height="29.3" x="36.8" y="29.4" color-interpolation-filters="sRGB" filterUnits="userSpaceOnUse"><feFlood flood-opacity="0" result="BackgroundImageFix"/><feColorMatrix in="SourceAlpha" result="hardAlpha" values="0 0 0 0 0 0 0 0 0 0 0 0 0 0 0 0 0 0 127 0"/><feOffset/><feGaussianBlur stdDeviation="2.3"/><feColorMatrix values="0 0 0 0 0.501961 0 0 0 0 0.435294 0 0 0 0 0.909804 0 0 0 1 0"/><feBlend in2="BackgroundImageFix" result="effect1_dropShadow_405_105"/><feBlend in="SourceGraphic" in2="effect1_dropShadow_405_105" result="shape"/></filter><filter id="k" width="29" height="29" x="46.5" y="6.5" color-interpolation-filters="sRGB" filterUnits="userSpaceOnUse"><feFlood flood-opacity="0" result="BackgroundImageFix"/><feColorMatrix in="SourceAlpha" result="hardAlpha" values="0 0 0 0 0 0 0 0 0 0 0 0 0 0 0 0 0 0 127 0"/><feOffset/><feGaussianBlur stdDeviation="2.3"/><feColorMatrix values="0 0 0 0 0.501961 0 0 0 0 0.435294 0 0 0 0 0.909804 0 0 0 1 0"/><feBlend in2="BackgroundImageFix" result="effect1_dropShadow_405_105"/><feBlend in="SourceGraphic" in2="effect1_dropShadow_405_105" result="shape"/></filter><filter id="l" width="47.4" height="29.3" x="7.8" y="29.4" color-interpolation-filters="sRGB" filterUnits="userSpaceOnUse"><feFlood flood-opacity="0" result="BackgroundImageFix"/><feColorMatrix in="SourceAlpha" result="hardAlpha" values="0 0 0 0 0 0 0 0 0 0 0 0 0 0 0 0 0 0 127 0"/><feOffset/><feGaussianBlur stdDeviation="2.3"/><feColorMatrix values="0 0 0 0 0.501961 0 0 0 0 0.435294 0 0 0 0 0.909804 0 0 0 1 0"/><feBlend in2="BackgroundImageFix" result="effect1_dropShadow_405_105"/><feBlend in="SourceGraphic" in2="effect1_dropShadow_405_105" result="shape"/></filter><filter id="m" width="29" height="29" x="17.5" y="6.5" color-interpolation-filters="sRGB" filterUnits="userSpaceOnUse"><feFlood flood-opacity="0" result="BackgroundImageFix"/><feColorMatrix in="SourceAlpha" result="hardAlpha" values="0 0 0 0 0 0 0 0 0 0 0 0 0 0 0 0 0 0 127 0"/><feOffset/><feGaussianBlur stdDeviation="2.3"/><feColorMatrix values="0 0 0 0 0.501961 0 0 0 0 0.435294 0 0 0 0 0.909804 0 0 0 1 0"/><feBlend in2="BackgroundImageFix" result="effect1_dropShadow_405_105"/><feBlend in="SourceGraphic" in2="effect1_dropShadow_405_105" result="shape"/></filter><filter id="n" width="9" height="9" x="43" y="16" color-interpolation-filters="sRGB" filterUnits="userSpaceOnUse"><feFlood flood-opacity="0" result="BackgroundImageFix"/><feColorMatrix in="SourceAlpha" result="hardAlpha" values="0 0 0 0 0 0 0 0 0 0 0 0 0 0 0 0 0 0 127 0"/><feOffset/><feGaussianBlur stdDeviation="1"/><feColorMatrix values="0 0 0 0 0.501961 0 0 0 0 0.435294 0 0 0 0 0.909804 0 0 0 1 0"/><feBlend in2="BackgroundImageFix" result="effect1_dropShadow_405_105"/><feBlend in="SourceGraphic" in2="effect1_dropShadow_405_105" result="shape"/></filter><filter id="p" width="7" height="7" x="47" y="23" color-interpolation-filters="sRGB" filterUnits="userSpaceOnUse"><feFlood flood-opacity="0" result="BackgroundImageFix"/><feColorMatrix in="SourceAlpha" result="hardAlpha" values="0 0 0 0 0 0 0 0 0 0 0 0 0 0 0 0 0 0 127 0"/><feOffset/><feGaussianBlur stdDeviation="1"/><feColorMatrix values="0 0 0 0 0.501961 0 0 0 0 0.435294 0 0 0 0 0.909804 0 0 0 1 0"/><feBlend in2="BackgroundImageFix" result="effect1_dropShadow_405_105"/><feBlend in="SourceGraphic" in2="effect1_dropShadow_405_105" result="shape"/></filter><filter id="r" width="9" height="9" x="10" y="28" color-interpolation-filters="sRGB" filterUnits="userSpaceOnUse"><feFlood flood-opacity="0" result="BackgroundImageFix"/><feColorMatrix in="SourceAlpha" result="hardAlpha" values="0 0 0 0 0 0 0 0 0 0 0 0 0 0 0 0 0 0 127 0"/><feOffset/><feGaussianBlur stdDeviation="1"/><feColorMatrix values="0 0 0 0 0.501961 0 0 0 0 0.435294 0 0 0 0 0.909804 0 0 0 1 0"/><feBlend in2="BackgroundImageFix" result="effect1_dropShadow_405_105"/><feBlend in="SourceGraphic" in2="effect1_dropShadow_405_105" result="shape"/></filter><linearGradient id="e" x1="100" x2="105.1" y1="32.5" y2="32.5" gradientUnits="userSpaceOnUse"><stop stop-color="#806FE8"/><stop offset=".2" stop-color="#8D7EE6" stop-opacity=".9"/><stop offset=".4" stop-color="#A095E3" stop-opacity=".6"/><stop offset=".6" stop-color="#B2ABE0" stop-opacity=".4"/><stop offset=".8" stop-color="#C4C0DD" stop-opacity=".2"/><stop offset="1" stop-color="#D9D9D9" stop-opacity="0"/></linearGradient><linearGradient id="i" x1="71" x2="76.1" y1="32.5" y2="32.5" gradientUnits="userSpaceOnUse"><stop stop-color="#806FE8"/><stop offset=".2" stop-color="#8D7EE6" stop-opacity=".9"/><stop offset=".4" stop-color="#A095E3" stop-opacity=".6"/><stop offset=".6" stop-color="#B2ABE0" stop-opacity=".4"/><stop offset=".8" stop-color="#C4C0DD" stop-opacity=".2"/><stop offset="1" stop-color="#D9D9D9" stop-opacity="0"/></linearGradient><linearGradient id="o" x1="45" x2="50.1" y1="20.5" y2="20.5" gradientUnits="userSpaceOnUse"><stop stop-color="#806FE8"/><stop offset=".2" stop-color="#8D7EE6" stop-opacity=".9"/><stop offset=".4" stop-color="#A095E3" stop-opacity=".6"/><stop offset=".6" stop-color="#B2ABE0" stop-opacity=".4"/><stop offset=".8" stop-color="#C4C0DD" stop-opacity=".2"/><stop offset="1" stop-color="#D9D9D9" stop-opacity="0"/></linearGradient><linearGradient id="q" x1="49" x2="52.1" y1="26.5" y2="26.5" gradientUnits="userSpaceOnUse"><stop stop-color="#806FE8"/><stop offset=".2" stop-color="#8D7EE6" stop-opacity=".9"/><stop offset=".4" stop-color="#A095E3" stop-opacity=".6"/><stop offset=".6" stop-color="#B2ABE0" stop-opacity=".4"/><stop offset=".8" stop-color="#C4C0DD" stop-opacity=".2"/><stop offset="1" stop-color="#D9D9D9" stop-opacity="0"/></linearGradient><linearGradient id="s" x1="12" x2="17.1" y1="32.5" y2="32.5" gradientUnits="userSpaceOnUse"><stop stop-color="#806FE8"/><stop offset=".2" stop-color="#8D7EE6" stop-opacity=".9"/><stop offset=".4" stop-color="#A095E3" stop-opacity=".6"/><stop offset=".6" stop-color="#B2ABE0" stop-opacity=".4"/><stop offset=".8" stop-color="#C4C0DD" stop-opacity=".2"/><stop offset="1" stop-color="#D9D9D9" stop-opacity="0"/></linearGradient></defs></svg>