<svg xmlns="http://www.w3.org/2000/svg" width="432" height="412" fill="none"><circle cx="208.5" cy="205.5" r="36" fill="#0F111E" stroke="url(#a)"/><g filter="url(#b)"><path stroke="url(#c)" stroke-width="2" d="m191 221 17-24 19 11 14-17"/></g><g filter="url(#d)"><path fill="#6B6C8B" d="M223 197a13 13 0 1 1-27 0 13 13 0 0 1 27 0Z"/><path stroke="#7C7C96" d="M223 197a13 13 0 1 1-26 0 13 13 0 0 1 26 0Z"/></g><g filter="url(#e)"><path fill="#6B6C8B" d="M234 228c3 8-12 13-25 13s-28-8-26-12c3-6 13-14 26-15 13 1 21 7 25 14Z"/></g><path stroke="#7C7C96" d="M184 229c2-6 12-14 25-14s21 6 25 13l-1 5-6 4a44 44 0 0 1-37-1l-5-4-1-2v-1Z"/><circle cx="208.5" cy="205.5" r="36" stroke="url(#f)"/><defs><linearGradient id="a" x1="183" x2="245" y1="230.5" y2="193" gradientUnits="userSpaceOnUse"><stop stop-color="#1F1F32"/><stop offset="1" stop-color="#4B4584"/></linearGradient><linearGradient id="c" x1="230.3" x2="190.3" y1="200" y2="227.7" gradientUnits="userSpaceOnUse"><stop stop-color="#806FE8"/><stop offset="1" stop-color="#806FE8" stop-opacity="0"/></linearGradient><linearGradient id="f" x1="183" x2="245" y1="230.5" y2="193" gradientUnits="userSpaceOnUse"><stop stop-color="#1F1F32"/><stop offset="1" stop-color="#4B4584"/></linearGradient><filter id="b" width="430.9" height="411" x=".7" y=".6" color-interpolation-filters="sRGB" filterUnits="userSpaceOnUse"><feFlood flood-opacity="0" result="BackgroundImageFix"/><feColorMatrix in="SourceAlpha" result="hardAlpha" values="0 0 0 0 0 0 0 0 0 0 0 0 0 0 0 0 0 0 127 0"/><feOffset/><feGaussianBlur stdDeviation="2.3"/><feColorMatrix values="0 0 0 0 0.501961 0 0 0 0 0.435294 0 0 0 0 0.886275 0 0 0 1 0"/><feBlend in2="BackgroundImageFix" result="effect1_dropShadow_173_121"/><feColorMatrix in="SourceAlpha" result="hardAlpha" values="0 0 0 0 0 0 0 0 0 0 0 0 0 0 0 0 0 0 127 0"/><feOffset/><feGaussianBlur stdDeviation="4.5"/><feColorMatrix values="0 0 0 0 0.501961 0 0 0 0 0.435294 0 0 0 0 0.886275 0 0 0 1 0"/><feBlend in2="effect1_dropShadow_173_121" result="effect2_dropShadow_173_121"/><feColorMatrix in="SourceAlpha" result="hardAlpha" values="0 0 0 0 0 0 0 0 0 0 0 0 0 0 0 0 0 0 127 0"/><feOffset/><feGaussianBlur stdDeviation="54.2"/><feColorMatrix values="0 0 0 0 0.501961 0 0 0 0 0.435294 0 0 0 0 0.886275 0 0 0 1 0"/><feBlend in2="effect2_dropShadow_173_121" result="effect3_dropShadow_173_121"/><feColorMatrix in="SourceAlpha" result="hardAlpha" values="0 0 0 0 0 0 0 0 0 0 0 0 0 0 0 0 0 0 127 0"/><feOffset/><feGaussianBlur stdDeviation="94.8"/><feColorMatrix values="0 0 0 0 0.501961 0 0 0 0 0.435294 0 0 0 0 0.886275 0 0 0 1 0"/><feBlend in2="effect3_dropShadow_173_121" result="effect4_dropShadow_173_121"/><feBlend in="SourceGraphic" in2="effect4_dropShadow_173_121" result="shape"/></filter><filter id="d" width="75" height="75" x="172" y="160" color-interpolation-filters="sRGB" filterUnits="userSpaceOnUse"><feFlood flood-opacity="0" result="BackgroundImageFix"/><feColorMatrix in="SourceAlpha" result="hardAlpha" values="0 0 0 0 0 0 0 0 0 0 0 0 0 0 0 0 0 0 127 0"/><feOffset dy="4"/><feGaussianBlur stdDeviation="2"/><feComposite in2="hardAlpha" operator="out"/><feColorMatrix values="0 0 0 0 0 0 0 0 0 0 0 0 0 0 0 0 0 0 0.25 0"/><feBlend in2="BackgroundImageFix" result="effect1_dropShadow_173_121"/><feColorMatrix in="SourceAlpha" result="hardAlpha" values="0 0 0 0 0 0 0 0 0 0 0 0 0 0 0 0 0 0 127 0"/><feOffset dy="1"/><feGaussianBlur stdDeviation="12"/><feComposite in2="hardAlpha" operator="out"/><feColorMatrix values="0 0 0 0 0 0 0 0 0 0 0 0 0 0 0 0 0 0 0.25 0"/><feBlend in2="effect1_dropShadow_173_121" result="effect2_dropShadow_173_121"/><feBlend in="SourceGraphic" in2="effect2_dropShadow_173_121" result="shape"/></filter><filter id="e" width="51.3" height="31" x="183" y="214" color-interpolation-filters="sRGB" filterUnits="userSpaceOnUse"><feFlood flood-opacity="0" result="BackgroundImageFix"/><feBlend in="SourceGraphic" in2="BackgroundImageFix" result="shape"/><feColorMatrix in="SourceAlpha" result="hardAlpha" values="0 0 0 0 0 0 0 0 0 0 0 0 0 0 0 0 0 0 127 0"/><feOffset dy="4"/><feGaussianBlur stdDeviation="2"/><feComposite in2="hardAlpha" k2="-1" k3="1" operator="arithmetic"/><feColorMatrix values="0 0 0 0 0 0 0 0 0 0 0 0 0 0 0 0 0 0 0.25 0"/><feBlend in2="shape" result="effect1_innerShadow_173_121"/></filter></defs></svg>