<svg xmlns="http://www.w3.org/2000/svg" width="432" height="412" fill="none"><circle cx="164.6" cy="204.5" r="23" fill="#0F111E" stroke="#1F1F32"/><path fill="#2B2C40" stroke="#333447" d="M173 200a8 8 0 1 1-16-1 8 8 0 0 1 16 1Z"/><path fill="#242537" stroke="url(#a)" d="M149 218c-1 1 0 3 1 4 3 3 7 4 14 4l10-1 2-2v-4l-2-4-1-2-3-1h-6c-7 0-13 3-15 6Z"/><circle cx="254.6" cy="204.5" r="23" fill="#0F111E" stroke="#1F1F32"/><path fill="#2B2C40" stroke="#333447" d="M263 200a8 8 0 1 1-16-1 8 8 0 0 1 16 1Z"/><path fill="#242537" stroke="url(#b)" d="M269 218c1 1 1 3-1 4-3 3-7 4-14 4l-10-1-2-2v-2l1-2 1-4 2-2 3-1h6c6 0 12 3 14 6Z"/><circle cx="208.6" cy="205.5" r="36" fill="#0F111E" stroke="#1F1F32"/><g filter="url(#c)"><path stroke="url(#d)" stroke-width="2" d="m191 221 17-24 19 11 14-17"/></g><g filter="url(#e)"><path fill="#6B6C8B" d="M223 197a13 13 0 1 1-27 0 13 13 0 0 1 27 0Z"/><path stroke="#7C7C96" d="M223 197a13 13 0 1 1-26 0 13 13 0 0 1 26 0Z"/></g><circle cx="208.6" cy="205.5" r="36" stroke="#1F1F32"/><g filter="url(#f)"><path fill="#6B6C8B" d="M234 228c0 7-12 13-25 13s-24-7-24-14c3-5 11-12 24-13 13 1 22 7 25 14Z"/></g><path stroke="#7C7C96" d="M234 228c0 3-3 6-8 9-4 2-10 4-17 4-6 0-12-2-17-5-4-2-7-5-7-9 4-5 11-12 24-12s21 6 25 13Z"/><defs><linearGradient id="a" x1="162.4" x2="162.4" y1="211" y2="227" gradientUnits="userSpaceOnUse"><stop stop-color="#353648"/><stop offset="1" stop-color="#353648" stop-opacity="0"/></linearGradient><linearGradient id="b" x1="254.1" x2="254.6" y1="208" y2="220.5" gradientUnits="userSpaceOnUse"><stop stop-color="#353648"/><stop offset="1" stop-color="#353648" stop-opacity="0"/></linearGradient><linearGradient id="d" x1="230.4" x2="190.4" y1="200" y2="227.7" gradientUnits="userSpaceOnUse"><stop stop-color="#806FE8"/><stop offset="1" stop-color="#806FE8" stop-opacity="0"/></linearGradient><filter id="c" width="430.9" height="411" x=".7" y=".6" color-interpolation-filters="sRGB" filterUnits="userSpaceOnUse"><feFlood flood-opacity="0" result="BackgroundImageFix"/><feColorMatrix in="SourceAlpha" result="hardAlpha" values="0 0 0 0 0 0 0 0 0 0 0 0 0 0 0 0 0 0 127 0"/><feOffset/><feGaussianBlur stdDeviation="2.3"/><feColorMatrix values="0 0 0 0 0.501961 0 0 0 0 0.435294 0 0 0 0 0.886275 0 0 0 1 0"/><feBlend in2="BackgroundImageFix" result="effect1_dropShadow_163_489"/><feColorMatrix in="SourceAlpha" result="hardAlpha" values="0 0 0 0 0 0 0 0 0 0 0 0 0 0 0 0 0 0 127 0"/><feOffset/><feGaussianBlur stdDeviation="4.5"/><feColorMatrix values="0 0 0 0 0.501961 0 0 0 0 0.435294 0 0 0 0 0.886275 0 0 0 1 0"/><feBlend in2="effect1_dropShadow_163_489" result="effect2_dropShadow_163_489"/><feColorMatrix in="SourceAlpha" result="hardAlpha" values="0 0 0 0 0 0 0 0 0 0 0 0 0 0 0 0 0 0 127 0"/><feOffset/><feGaussianBlur stdDeviation="54.2"/><feColorMatrix values="0 0 0 0 0.501961 0 0 0 0 0.435294 0 0 0 0 0.886275 0 0 0 1 0"/><feBlend in2="effect2_dropShadow_163_489" result="effect3_dropShadow_163_489"/><feColorMatrix in="SourceAlpha" result="hardAlpha" values="0 0 0 0 0 0 0 0 0 0 0 0 0 0 0 0 0 0 127 0"/><feOffset/><feGaussianBlur stdDeviation="94.8"/><feColorMatrix values="0 0 0 0 0.501961 0 0 0 0 0.435294 0 0 0 0 0.886275 0 0 0 1 0"/><feBlend in2="effect3_dropShadow_163_489" result="effect4_dropShadow_163_489"/><feBlend in="SourceGraphic" in2="effect4_dropShadow_163_489" result="shape"/></filter><filter id="e" width="75" height="75" x="172.1" y="160" color-interpolation-filters="sRGB" filterUnits="userSpaceOnUse"><feFlood flood-opacity="0" result="BackgroundImageFix"/><feColorMatrix in="SourceAlpha" result="hardAlpha" values="0 0 0 0 0 0 0 0 0 0 0 0 0 0 0 0 0 0 127 0"/><feOffset dy="4"/><feGaussianBlur stdDeviation="2"/><feComposite in2="hardAlpha" operator="out"/><feColorMatrix values="0 0 0 0 0 0 0 0 0 0 0 0 0 0 0 0 0 0 0.25 0"/><feBlend in2="BackgroundImageFix" result="effect1_dropShadow_163_489"/><feColorMatrix in="SourceAlpha" result="hardAlpha" values="0 0 0 0 0 0 0 0 0 0 0 0 0 0 0 0 0 0 127 0"/><feOffset dy="1"/><feGaussianBlur stdDeviation="12"/><feComposite in2="hardAlpha" operator="out"/><feColorMatrix values="0 0 0 0 0 0 0 0 0 0 0 0 0 0 0 0 0 0 0.25 0"/><feBlend in2="effect1_dropShadow_163_489" result="effect2_dropShadow_163_489"/><feBlend in="SourceGraphic" in2="effect2_dropShadow_163_489" result="shape"/></filter><filter id="f" width="49.5" height="31" x="184.6" y="214" color-interpolation-filters="sRGB" filterUnits="userSpaceOnUse"><feFlood flood-opacity="0" result="BackgroundImageFix"/><feBlend in="SourceGraphic" in2="BackgroundImageFix" result="shape"/><feColorMatrix in="SourceAlpha" result="hardAlpha" values="0 0 0 0 0 0 0 0 0 0 0 0 0 0 0 0 0 0 127 0"/><feOffset dy="4"/><feGaussianBlur stdDeviation="2"/><feComposite in2="hardAlpha" k2="-1" k3="1" operator="arithmetic"/><feColorMatrix values="0 0 0 0 0 0 0 0 0 0 0 0 0 0 0 0 0 0 0.25 0"/><feBlend in2="shape" result="effect1_innerShadow_163_489"/></filter></defs></svg>