<svg xmlns="http://www.w3.org/2000/svg" width="258" height="226" fill="none"><path fill="url(#a)" d="M19 64h-2l-1-2v-4l1-1h3l1 1 1 2-1 2-1 2h-1Zm0-1 1-1v-4h-2l-1 2 1 2v1h1Zm10-6v7h-1v-6l-2 1v-1l2-1h1Zm7 7h-1l-1-2v-4l1-1h3l1 1v4l-1 2h-2Zm0-1 2-1v-3l-1-1h-2v4l1 1Zm10 1h-1l-1-2-1-2 1-2 1-1h3l1 1v4l-1 2h-2Zm0-1 1-1 1-2-1-1v-1h-2v5h1Zm10-6v7h-1v-6l-2 1v-1l2-1h1Zm8 0v7h-1v-6h-1l-1 1v-1l2-1h1Zm7 7h-1l-1-2v-4l1-1h3l1 1v4l-1 2h-2Zm0-1 1-1 1-2v-1l-1-1h-2v4l1 1Zm10 1h-1l-1-2-1-2 1-2 1-1h3l1 1v4l-1 2h-2Zm0-1 1-1 1-2-1-1v-1h-2v5h1Zm10-6v7h-1v-6l-2 1v-1l2-1h1Zm8 7h-2l-1-2v-4l1-1h3l1 1v4l-1 2h-1Zm0-1 1-1v-3l-1-1h-2v4l1 1h1Zm9-6v7h-1v-6l-2 1v-1l2-1h1Zm8 7h-2v-2l-1-2 1-2v-1h4v1l1 2-1 2v2h-2Zm0-1 1-1v-4h-2v5h1Zm10 1h-2l-1-2v-4l1-1h3l1 1v4l-1 2h-1Zm0-1 1-1v-3l-1-1h-1l-1 2v2l1 1h1Zm10-6v7h-2v-6l-1 1v-1l1-1h2Zm7 7h-1l-1-2-1-2 1-2 1-1h3l1 1v4l-1 2h-2Zm0-1 1-1 1-2-1-1v-1h-2v5h1Zm10-6v7h-1v-6l-2 1v-1l2-1h1Zm8 7h-2l-1-2v-4l1-1h3l1 1v4l-1 2h-1Zm0-1 1-1v-3l-1-1h-1l-1 2v2l1 1h1Zm9 1h-1l-1-2-1-2 1-2 1-1h3l1 1v4l-1 2h-2Zm0-1 1-1 1-2v-1l-1-1h-2v4l1 1Zm10 1h-2l-1-2v-4l1-1h3l1 1 1 2-1 2-1 2h-1Zm0-1 1-1v-4h-2l-1 2 1 2v1h1Zm10-6v7h-1v-6l-2 1v-1l2-1h1Zm8 0v7h-2v-6l-1 1v-1l1-1h2Zm7 7h-1l-1-2-1-2 1-2 1-1h3l1 1v4l-1 2h-2Zm0-1 1-1 1-2v-1l-1-1h-2v5h1Zm10-6v7h-1v-6l-2 1v-1l2-1h1ZM16 79h-2v-2l-1-2 1-2v-1h3l1 1 1 2-1 2-1 2h-1Zm0-1 1-1v-4h-2v5h1Zm10-6v7h-1v-6l-2 1v-1l2-1h1Zm7 7h-1l-1-2v-4l1-1h3l1 1v4l-1 2h-2Zm0-1 2-1v-3l-1-1h-2v4l1 1Zm10 1h-1l-1-2-1-2 1-2 1-1h3l1 1v4l-1 2h-2Zm0-1 1-1 1-2-1-1v-1h-2v5h1Zm10-6v7h-1v-6l-2 1v-1l2-1h1Zm8 7h-2l-1-2v-4l1-1h3l1 1v4l-1 2h-1Zm0-1 1-1v-3l-1-1h-1l-1 2v2l1 1h1Zm10-6v7h-2v-6l-2 1v-1l2-1h2Zm7 7h-1l-1-2-1-2 1-2 1-1h3l1 1v4l-1 2h-2Zm0-1 1-1 1-2-1-1v-1h-2v5h1Zm10-6v7h-1v-6l-2 1v-1l2-1h1Zm8 7h-2l-1-2v-4l1-1h3l1 1v4l-1 2h-1Zm0-1 1-1v-3l-1-1h-2v4l1 1h1Zm9-6v7h-1v-6l-2 1v-1l2-1h1Zm8 0v7h-1v-6l-2 1v-1l2-1h1Zm8 7h-2l-1-2v-4l1-1h3l1 1 1 2-1 2-1 2h-1Zm0-1 1-1v-4h-2l-1 2 1 2v1h1Zm10-6v7h-2v-6l-1 1v-1l2-1h1Zm8 0v7h-2v-6l-1 1v-1l1-1h2Zm7 0v7h-1v-6l-2 1v-1l2-1h1Zm8 7h-2l-1-2v-4l1-1h3l1 1 1 2-1 2-1 2h-1Zm0-1 1-1v-4h-2l-1 2 1 2v1h1Zm10 1h-2l-1-2v-4l1-1h3l1 1v4l-1 2h-1Zm0-1 1-1v-3l-1-1h-1l-1 2v2l1 1h1Zm10-6v7h-2v-6l-2 1v-1l2-1h2Zm7 0v7h-1v-6l-2 1v-1l2-1h1Zm8 7h-2l-1-2v-4l1-1h3l1 1 1 2-1 2-1 2h-1Zm0-1 1-1v-4h-2l-1 2 1 2v1h1Zm10-6v7h-2v-6l-1 1v-1l2-1h1Zm7 7h-1l-1-2v-4l1-1h3l1 1v4l-1 2h-2Zm0-1 1-1 1-2v-1l-1-1h-2v4l1 1Zm10 1h-1l-1-2-1-2 1-2 1-1h3v1l1 2-1 2v2h-2Zm0-1 1-1v-4h-2v5h1ZM16 87v7h-1v-6l-2 1v-1l2-1h1Zm8 7h-2l-1-2v-4l1-1h3l1 1 1 2-1 2-1 2h-1Zm0-1 1-1v-4h-2l-1 2v2l1 1h1Zm10-6v7h-2v-6l-1 1v-1l1-1h2Zm7 7h-1l-1-2-1-2 1-2 1-1h3l1 1v4l-1 2h-2Zm0-1 1-1 1-2v-1l-1-1h-2v5h1Zm10-6v7h-1v-6l-2 1v-1l2-1h1Zm8 0v7h-1v-6l-2 1v-1l2-1h1Zm8 0v7h-2v-6l-1 1v-1l2-1h1Zm7 7h-1l-1-2v-4l1-1h3l1 1v4l-1 2h-2Zm0-1 1-1 1-2v-1l-1-1h-2v4l1 1Zm10-6v7h-1v-6l-2 1v-1l2-1h1Zm8 7h-2l-1-2v-4l1-1h3l1 1 1 2-1 2-1 2h-1Zm0-1 1-1v-4h-2l-1 2 1 2v1h1Zm9 1h-1l-1-2v-4l1-1h3l1 1v4l-1 2h-2Zm0-1 2-1v-3l-1-1h-2v4l1 1Zm10-6v7h-1v-6l-2 1v-1l2-1h1Zm8 7h-2v-2l-1-2 1-2v-1h3l1 1 1 2-1 2-1 2h-1Zm0-1 1-1v-4h-2l-1 2 1 2v1h1Zm10-6v7h-1v-6l-2 1v-1l2-1h1Zm8 0v7h-2v-6l-1 1v-1l1-1h2Zm7 7h-1l-1-2-1-2 1-2 1-1h3l1 1v4l-1 2h-2Zm0-1 1-1 1-2v-1l-1-1h-2v5h1Zm10-6v7h-1v-6l-2 1v-1l2-1h1Zm8 7h-2l-1-2v-4l1-1h3l1 1 1 2-1 2-1 2h-1Zm0-1 1-1v-4h-2l-1 2v2l1 1h1Zm9 1h-1l-1-2v-4l1-1h3l1 1v4l-1 2h-2Zm0-1 1-1 1-2v-1l-1-1h-2v4l1 1Zm10-6v7h-1v-6l-2 1v-1l2-1h1Zm8 7h-2l-1-2v-4l1-1h3l1 1 1 2-1 2-1 2h-1Zm0-1 1-1v-4h-2l-1 2 1 2v1h1Zm10-6v7h-2v-6l-1 1v-1l2-1h1Zm7 7h-1l-1-2v-4l1-1h3l1 1v4l-1 2h-2Zm0-1 1-1 1-2v-1l-1-1h-2v4l1 1Zm10 1h-1l-1-2-1-2 1-2 1-1h3v1l1 2-1 2v2h-2Zm0-1 1-1v-4h-2v5h1Zm-198 9v7h-1v-6l-2 1v-1l2-1h1Zm8 0v7h-1v-6l-2 1v-1l2-1h1Zm7 7h-1l-1-2v-4l1-1h3l1 1v4l-1 2h-2Zm0-1 2-1v-3l-1-1h-2v4l1 1Zm10 1h-1l-1-2-1-2 1-2 1-1h3l1 1v4l-1 2h-2Zm0-1 1-1 1-2-1-1v-1h-2v5h1Zm10-6v7h-1v-6l-2 1v-1l2-1h1Zm8 0v7h-1v-6l-2 1v-1l2-1h1Zm7 7h-1l-1-2v-4l1-1h3l1 1v4l-1 2h-2Zm0-1 1-1 1-2v-1l-1-1h-2v4l1 1Zm10-6v7h-1v-6l-2 1v-1l2-1h1Zm8 7h-2l-1-2v-4l1-1h3l1 1 1 2-1 2-1 2h-1Zm0-1 1-1v-4h-2l-1 2 1 2v1h1Zm10-6v7h-1v-6h-1l-1 1v-1l2-1h1Zm7 7h-1l-1-2v-4l1-1h3l1 1v4l-1 2h-2Zm0-1 1-1 1-2v-1l-1-1h-2v4l1 1Zm10-6v7h-1v-6l-2 1v-1l2-1h1Zm8 0v7h-1v-6l-2 1v-1l2-1h1Zm8 0v7h-1v-6l-2 1v-1l2-1h1Zm7 7h-1l-1-2v-4l1-1h3l1 1v4l-1 2h-2Zm0-1 2-1v-3l-1-1h-2v4l1 1Zm10-6v7h-1v-6l-2 1v-1l2-1h1Zm8 7h-2l-1-2v-4l1-1h3l1 1 1 2-1 2-1 2h-1Zm0-1 1-1v-4h-2l-1 2 1 2v1h1Zm10-6v7h-1v-6h-1l-1 1v-1l2-1h1Zm8 0v7h-2v-6l-1 1v-1l1-1h2Zm7 7h-1l-1-2-1-2 1-2 1-1h3l1 1v4l-1 2h-2Zm0-1 1-1 1-2-1-1v-1h-2v5h1Zm10 1h-2l-1-2v-4l1-1h3l1 1 1 2-1 2-1 2h-1Zm0-1 1-1v-4h-2l-1 2 1 2v1h1Zm10 1h-2l-1-2v-4l1-1h3l1 1v4l-1 2h-1Zm0-1 1-1v-3l-1-1h-2v4l1 1h1Zm9-6v7h-1v-6l-2 1v-1l2-1h1Zm8 0v7h-1v-6l-2 1v-1l2-1h1ZM16 124h-2v-2l-1-2 1-2v-1h3l1 1 1 2-1 2-1 2h-1Zm0-1 1-1v-4h-2v5h1Zm10-6v7h-1v-6l-2 1v-1l2-1h1Zm7 7h-1l-1-2v-4l1-1h3l1 1v4l-1 2h-2Zm0-1 2-1v-3l-1-1h-2v4l1 1Zm10-6v7h-1v-6l-2 1v-1l2-1h1Zm8 0v7h-1v-6l-2 1v-1l2-1h1Zm8 7h-2l-1-2v-4l1-1h3l1 1 1 2-1 2-1 2h-1Zm0-1 1-1v-4h-2l-1 2v2l1 1h1Zm10-6v7h-2v-6l-1 1v-1l1-1h2Zm7 0v7h-1v-6l-2 1v-1l2-1h1Zm8 7h-1l-1-2-1-2 1-2 1-1h3v1l1 2-1 2v2h-2Zm0-1 1-1v-4h-2v5h1Zm10-6v7h-1v-6l-2 1v-1l2-1h1Zm8 0v7h-2v-6l-1 1v-1l2-1h1Zm8 0v7h-2v-6l-1 1v-1l1-1h2Zm7 7h-1l-1-2-1-2 1-2 1-1h3l1 1v4l-1 2h-2Zm0-1 1-1 1-2-1-1v-1h-2v5h1Zm10 1h-2l-1-2v-4l1-1h3l1 1 1 2-1 2-1 2h-1Zm0-1 1-1v-4h-2l-1 2v2l1 1h1Zm9 1h-1l-1-2v-4l1-1h3l1 1v4l-1 2h-2Zm0-1 2-1v-3l-1-1h-2v4l1 1Zm10-6v7h-1v-6l-2 1v-1l2-1h1Zm8 7h-2l-1-2v-4l1-1h3l1 1 1 2-1 2-1 2h-1Zm0-1 1-1v-4h-2l-1 2 1 2v1h1Zm10-6v7h-1v-6h-1l-1 1v-1l2-1h1Zm7 7h-1l-1-2v-4l1-1h3l1 1v4l-1 2h-2Zm0-1 1-1 1-2v-1l-1-1h-2v4l1 1Zm10-6v7h-1v-6l-2 1v-1l2-1h1Zm8 7h-2l-1-2v-4l1-1h3l1 1 1 2-1 2-1 2h-1Zm0-1 1-1v-4h-2l-1 2 1 2v1h1Zm10 1h-2l-1-2v-4l1-1h3l1 1v4l-1 2h-1Zm0-1 1-1v-3l-1-1h-2v4l1 1h1Zm9-6v7h-1v-6l-2 1v-1l2-1h1Zm8 7h-1l-1-2-1-2 1-2 1-1h3v1l1 2-1 2v2h-2Zm0-1 1-1v-4h-2v5h1Zm-201 9v7h-1v-6l-2 1v-1l2-1h1Zm8 7h-2l-1-2v-4l1-1h3l1 1 1 2-1 2-1 2h-1Zm0-1 1-1v-4h-2l-1 2 1 2v1h1Zm10-6v7h-2v-6l-1 1v-1l2-1h1Zm7 7h-1l-1-2v-4l1-1h3l1 1v4l-1 2h-2Zm0-1 1-1 1-2v-1l-1-1h-2v4l1 1Zm10-6v7h-1v-6l-2 1v-1l2-1h1Zm8 7h-2l-1-2v-4l1-1h3l1 1 1 2-1 2-1 2h-1Zm0-1 1-1v-4h-2l-1 2 1 2v1h1Zm9 1h-1l-1-2v-4l1-1h3l1 1v4l-1 2h-2Zm0-1 2-1v-3l-1-1h-2v4l1 1Zm10-6v7h-1v-6l-2 1v-1l2-1h1Zm8 7h-2l-1-2v-4l1-1h3l1 1 1 2-1 2-1 2h-1Zm0-1 1-1v-4h-2l-1 2 1 2v1h1Zm10-6v7h-1v-6l-2 1v-1l2-1h1Zm7 7h-1l-1-2v-4l1-1h3l1 1v4l-1 2h-2Zm0-1 2-1v-3l-1-1h-2v4l1 1Zm10-6v7h-1v-6l-2 1v-1l2-1h1Zm8 7h-2l-1-2v-4l1-1h3l1 1 1 2-1 2-1 2h-1Zm0-1 1-1v-4h-2l-1 2 1 2v1h1Zm10 1h-2l-1-2v-4l1-1h3l1 1v4l-1 2h-1Zm0-1 1-1v-3l-1-1h-2v4l1 1h1Zm10-6v7h-2v-6l-2 1v-1l2-1h2Zm7 7h-1l-1-2-1-2 1-2 1-1h3l1 1v4l-1 2h-2Zm0-1 1-1 1-2-1-1v-1h-2v5h1Zm10-6v7h-1v-6l-2 1v-1l2-1h1Zm8 7h-2l-1-2v-4l1-1h3l1 1v4l-1 2h-1Zm0-1 1-1v-3l-1-1h-2v4l1 1h1Zm9-6v7h-1v-6l-2 1v-1l2-1h1Zm8 7h-2v-2l-1-2 1-2v-1h3l1 1 1 2-1 2-1 2h-1Zm0-1 1-1v-4h-2v5h1Zm10-6v7h-1v-6l-2 1v-1l2-1h1Zm8 0v7h-2v-6l-1 1v-1l1-1h2Zm7 7h-1l-1-2-1-2 1-2 1-1h3l1 1v4l-1 2h-2Zm0-1 1-1 1-2v-1l-1-1h-2v5h1Zm10 1h-2l-1-2v-4l1-1h3l1 1 1 2-1 2-1 2h-1Zm0-1 1-1v-4h-2l-1 2 1 2v1h1Zm-201 9v7h-1v-6l-2 1v-1l2-1h1Zm8 7h-2l-1-2v-4l1-1h3l1 1 1 2-1 2-1 2h-1Zm0-1 1-1v-4h-2l-1 2v2l1 1h1Zm10-6v7h-2v-6l-1 1v-1l1-1h2Zm7 7h-1l-1-2-1-2 1-2 1-1h3l1 1v4l-1 2h-2Zm0-1 1-1 1-2v-1l-1-1h-2v5h1Zm10 1h-2l-1-2v-4l1-1h3l1 1 1 2-1 2-1 2h-1Zm0-1 1-1v-4h-2l-1 2 1 2v1h1Zm10-6v7h-1v-6l-2 1v-1l2-1h1Zm8 0v7h-2v-6l-1 1v-1l1-1h2Zm7 7h-1l-1-2-1-2 1-2 1-1h3l1 1v4l-1 2h-2Zm0-1 1-1 1-2v-1l-1-1h-2v5h1Zm10-6v7h-1v-6l-2 1v-1l2-1h1Zm8 7h-2l-1-2v-4l1-1h3l1 1v4l-1 2h-1Zm0-1 1-1v-3l-1-1h-1l-1 2v2l1 1h1Zm10-6v7h-2v-6l-1 1v-1l1-1h2Zm7 0v7h-1v-6l-2 1v-1l2-1h1Zm8 7h-2v-2l-1-2 1-2v-1h3l1 1 1 2-1 2-1 2h-1Zm0-1 1-1v-4h-2l-1 2 1 2v1h1Zm10-6v7h-1v-6l-2 1v-1l2-1h1Zm7 7h-1l-1-2v-4l1-1h3l1 1v4l-1 2h-2Zm0-1 2-1v-3l-1-1h-2v4l1 1Zm10 1h-1l-1-2-1-2 1-2 1-1h3l1 1v4l-1 2h-2Zm0-1 1-1 1-2-1-1v-1h-2v5h1Zm10 1h-2l-1-2v-4l1-1h3l1 1 1 2-1 2-1 2h-1Zm0-1 1-1v-4h-2l-1 2v2l1 1h1Zm10-6v7h-2v-6l-1 1v-1l1-1h2Zm8 0v7h-2v-6l-2 1v-1l2-1h2Zm7 7h-1l-1-2-1-2 1-2 1-1h3l1 1v4l-1 2h-2Zm0-1 1-1 1-2-1-1v-1h-2v5h1Zm10-6v7h-1v-6l-2 1v-1l2-1h1Zm8 7h-2l-1-2v-4l1-1h3l1 1v4l-1 2h-1Zm0-1 1-1v-3l-1-1h-2v4l1 1h1Zm9-6v7h-1v-6l-2 1v-1l2-1h1Zm8 7h-1l-1-2-1-2 1-2 1-1h3v1l1 2-1 2v2h-2Zm0-1 1-1v-4h-2v5h1Zm-198 9v7h-1v-6l-2 1v-1l2-1h1Zm8 0v7h-1v-6l-2 1v-1l2-1h1Zm7 7h-1l-1-2v-4l1-1h3l1 1v4l-1 2h-2Zm0-1 2-1v-3l-1-1h-2v4l1 1Zm10-6v7h-1v-6l-2 1v-1l2-1h1Zm8 7h-2l-1-2v-4l1-1h3l1 1 1 2-1 2-1 2h-1Zm0-1 1-1v-4h-2l-1 2 1 2v1h1Zm10-6v7h-1v-6l-2 1v-1l2-1h1Zm7 7h-1l-1-2v-4l1-1h3l1 1v4l-1 2h-2Zm0-1 1-1 1-2v-1l-1-1h-2v4l1 1Zm10-6v7h-1v-6l-2 1v-1l2-1h1Zm8 7h-2l-1-2v-4l1-1h3l1 1 1 2-1 2-1 2h-1Zm0-1 1-1v-4h-2l-1 2 1 2v1h1Zm10-6v7h-1v-6h-1l-1 1v-1l2-1h1Zm7 7h-1l-1-2v-4l1-1h3l1 1v4l-1 2h-2Zm0-1 1-1 1-2v-1l-1-1h-2v4l1 1Zm10-6v7h-1v-6l-2 1v-1l2-1h1Zm8 7h-2l-1-2v-4l1-1h3l1 1 1 2-1 2-1 2h-1Zm0-1 1-1v-4h-2l-1 2 1 2v1h1Zm10-6v7h-2v-6l-1 1v-1l2-1h1Zm8 0v7h-2v-6l-1 1v-1l1-1h2Zm7 7h-1l-1-2-1-2 1-2 1-1h3l1 1v4l-1 2h-2Zm0-1 1-1 1-2-1-1v-1h-2v5h1Zm10-6v7h-1v-6l-2 1v-1l2-1h1Zm8 0v7h-1v-6h-1l-1 1v-1l2-1h1Zm8 0v7h-2v-6l-1 1v-1l1-1h2Zm7 7h-1l-1-2-1-2 1-2 1-1h3l1 1v4l-1 2h-2Zm0-1 1-1 1-2-1-1v-1h-2v5h1Zm10-6v7h-1v-6l-2 1v-1l2-1h1Zm8 7h-2l-1-2v-4l1-1h3l1 1v4l-1 2h-1Zm0-1 1-1v-3l-1-1h-1l-1 2v2l1 1h1Zm10-6v7h-2v-6l-1 1v-1l1-1h2Zm7 7h-1l-1-2-1-2 1-2 1-1h3l1 1v4l-1 2h-2Zm0-1 1-1 1-2-1-1v-1h-2v5h1Zm-197 9v7h-1v-6l-2 1v-1l2-1h1Zm8 7h-2l-1-2v-4l1-1h3l1 1 1 2-1 2-1 2h-1Zm0-1 1-1v-4h-2l-1 2v2l1 1h1Zm10-6v7h-2v-6l-1 1v-1l1-1h2Zm7 7h-1l-1-2-1-2 1-2 1-1h3l1 1v4l-1 2h-2Zm0-1 1-1 1-2-1-1v-1h-2v5h1Zm10 1h-2l-1-2v-4l1-1h3l1 1 1 2-1 2-1 2h-1Zm0-1 1-1v-4h-2l-1 2 1 2v1h1Zm10-6v7h-2v-6l-1 1v-1l2-1h1Zm8 0v7h-2v-6l-1 1v-1l1-1h2Zm7 0v7h-1v-6l-2 1v-1l2-1h1Zm8 7h-2l-1-2v-4l1-1h3l1 1 1 2-1 2-1 2h-1Zm0-1 1-1v-4h-2l-1 2 1 2v1h1Zm10-6v7h-1v-6l-2 1v-1l2-1h1Zm7 7h-1l-1-2v-4l1-1h3l1 1v4l-1 2h-2Zm0-1 2-1v-3l-1-1h-2v4l1 1Zm10-6v7h-1v-6l-2 1v-1l2-1h1Zm8 7h-2l-1-2v-4l1-1h3l1 1 1 2-1 2-1 2h-1Zm0-1 1-1v-4h-2l-1 2 1 2v1h1Zm10-6v7h-1v-6h-1l-1 1v-1l2-1h1Zm8 0v7h-2v-6l-1 1v-1l1-1h2Zm7 7h-1l-1-2-1-2 1-2 1-1h3l1 1v4l-1 2h-2Zm0-1 1-1 1-2-1-1v-1h-2v5h1Zm10 1h-2l-1-2v-4l1-1h3l1 1 1 2-1 2-1 2h-1Zm0-1 1-1v-4h-2l-1 2 1 2v1h1Zm10-6v7h-2v-6l-1 1v-1l2-1h1Zm7 7h-1l-1-2v-4l1-1h3l1 1v4l-1 2h-2Zm0-1 1-1 1-2v-1l-1-1h-2v4l1 1Zm10-6v7h-1v-6l-2 1v-1l2-1h1Zm8 7h-2l-1-2v-4l1-1h3l1 1 1 2-1 2-1 2h-1Zm0-1 1-1v-4h-2l-1 2 1 2v1h1Zm10-6v7h-2v-6l-1 1v-1l1-1h2Zm7 7h-1l-1-2-1-2 1-2 1-1h3l1 1v4l-1 2h-2Zm0-1 1-1 1-2v-1l-1-1h-2v5h1Zm10-6v7h-1v-6l-2 1v-1l2-1h1Z" opacity=".2"/><g filter="url(#b)" opacity=".2"><path fill="#806FE8" d="M74 94h-1l-1-2v-4l1-1h3l1 1v4l-1 2h-2Zm0-1 2-1v-3l-1-1h-2v4l1 1Z"/></g><g filter="url(#c)" opacity=".4"><path fill="#806FE8" d="M199 124h-2l-1-2v-4l1-1h3l1 1v4l-1 2h-1Zm0-1 1-1v-3l-1-1h-2v4l1 1h1Z"/></g><g filter="url(#d)" opacity=".5"><path fill="#806FE8" d="M129 102v7h-2v-6l-1 1v-1l1-1h2Z"/></g><g filter="url(#e)" opacity=".4"><path fill="#806FE8" d="M199 87v7h-2v-6l-1 1v-1l1-1h2Z"/></g><g filter="url(#f)" opacity=".2"><path fill="#806FE8" d="M61 147v7h-2v-6l-1 1v-1l1-1h2Z"/></g><g filter="url(#g)" opacity=".1"><path fill="#806FE8" d="M136 57v7h-2v-6l-1 1v-1l1-1h2Z"/></g><g filter="url(#h)" opacity=".3"><path fill="#806FE8" d="M106 72v7h-2v-6l-1 1v-1l1-1h2Z"/></g><g filter="url(#i)" opacity=".3"><path fill="#806FE8" d="M180 169h-2l-1-2v-4l1-1h3l1 1v4l-1 2h-1Zm0-1 1-1v-3l-1-1h-2v4l1 1h1Z"/></g><g filter="url(#j)" opacity=".4"><path fill="#806FE8" d="M162 94h-2l-1-2v-4l1-1h3l1 1v4l-1 2h-1Zm0-1 1-1v-3l-1-1h-2v4l1 1h1Z"/></g><g filter="url(#k)" opacity=".3"><path fill="#806FE8" d="M86 169h-1l-1-2v-4l1-1h3l1 1v4l-1 2h-2Zm0-1 2-1v-3l-1-1h-2v4l1 1Z"/></g><defs><filter id="b" width="119" height="120.9" x="15" y="29.9" color-interpolation-filters="sRGB" filterUnits="userSpaceOnUse"><feFlood flood-opacity="0" result="BackgroundImageFix"/><feColorMatrix in="SourceAlpha" result="hardAlpha" values="0 0 0 0 0 0 0 0 0 0 0 0 0 0 0 0 0 0 127 0"/><feOffset/><feGaussianBlur stdDeviation=".7"/><feColorMatrix values="0 0 0 0 0.501961 0 0 0 0 0.435294 0 0 0 0 0.909804 0 0 0 1 0"/><feBlend in2="BackgroundImageFix" result="effect1_dropShadow_563_261"/><feColorMatrix in="SourceAlpha" result="hardAlpha" values="0 0 0 0 0 0 0 0 0 0 0 0 0 0 0 0 0 0 127 0"/><feOffset/><feGaussianBlur stdDeviation="1.4"/><feColorMatrix values="0 0 0 0 0.501961 0 0 0 0 0.435294 0 0 0 0 0.909804 0 0 0 1 0"/><feBlend in2="effect1_dropShadow_563_261" result="effect2_dropShadow_563_261"/><feColorMatrix in="SourceAlpha" result="hardAlpha" values="0 0 0 0 0 0 0 0 0 0 0 0 0 0 0 0 0 0 127 0"/><feOffset/><feGaussianBlur stdDeviation="4.7"/><feColorMatrix values="0 0 0 0 0.501961 0 0 0 0 0.435294 0 0 0 0 0.909804 0 0 0 1 0"/><feBlend in2="effect2_dropShadow_563_261" result="effect3_dropShadow_563_261"/><feColorMatrix in="SourceAlpha" result="hardAlpha" values="0 0 0 0 0 0 0 0 0 0 0 0 0 0 0 0 0 0 127 0"/><feOffset/><feGaussianBlur stdDeviation="9.4"/><feColorMatrix values="0 0 0 0 0.501961 0 0 0 0 0.435294 0 0 0 0 0.909804 0 0 0 1 0"/><feBlend in2="effect3_dropShadow_563_261" result="effect4_dropShadow_563_261"/><feColorMatrix in="SourceAlpha" result="hardAlpha" values="0 0 0 0 0 0 0 0 0 0 0 0 0 0 0 0 0 0 127 0"/><feOffset/><feGaussianBlur stdDeviation="16.2"/><feColorMatrix values="0 0 0 0 0.501961 0 0 0 0 0.435294 0 0 0 0 0.909804 0 0 0 1 0"/><feBlend in2="effect4_dropShadow_563_261" result="effect5_dropShadow_563_261"/><feColorMatrix in="SourceAlpha" result="hardAlpha" values="0 0 0 0 0 0 0 0 0 0 0 0 0 0 0 0 0 0 127 0"/><feOffset/><feGaussianBlur stdDeviation="28.4"/><feColorMatrix values="0 0 0 0 0.501961 0 0 0 0 0.435294 0 0 0 0 0.909804 0 0 0 1 0"/><feBlend in2="effect5_dropShadow_563_261" result="effect6_dropShadow_563_261"/><feBlend in="SourceGraphic" in2="effect6_dropShadow_563_261" result="shape"/></filter><filter id="c" width="119" height="120.9" x="139" y="59.9" color-interpolation-filters="sRGB" filterUnits="userSpaceOnUse"><feFlood flood-opacity="0" result="BackgroundImageFix"/><feColorMatrix in="SourceAlpha" result="hardAlpha" values="0 0 0 0 0 0 0 0 0 0 0 0 0 0 0 0 0 0 127 0"/><feOffset/><feGaussianBlur stdDeviation=".7"/><feColorMatrix values="0 0 0 0 0.501961 0 0 0 0 0.435294 0 0 0 0 0.909804 0 0 0 1 0"/><feBlend in2="BackgroundImageFix" result="effect1_dropShadow_563_261"/><feColorMatrix in="SourceAlpha" result="hardAlpha" values="0 0 0 0 0 0 0 0 0 0 0 0 0 0 0 0 0 0 127 0"/><feOffset/><feGaussianBlur stdDeviation="1.4"/><feColorMatrix values="0 0 0 0 0.501961 0 0 0 0 0.435294 0 0 0 0 0.909804 0 0 0 1 0"/><feBlend in2="effect1_dropShadow_563_261" result="effect2_dropShadow_563_261"/><feColorMatrix in="SourceAlpha" result="hardAlpha" values="0 0 0 0 0 0 0 0 0 0 0 0 0 0 0 0 0 0 127 0"/><feOffset/><feGaussianBlur stdDeviation="4.7"/><feColorMatrix values="0 0 0 0 0.501961 0 0 0 0 0.435294 0 0 0 0 0.909804 0 0 0 1 0"/><feBlend in2="effect2_dropShadow_563_261" result="effect3_dropShadow_563_261"/><feColorMatrix in="SourceAlpha" result="hardAlpha" values="0 0 0 0 0 0 0 0 0 0 0 0 0 0 0 0 0 0 127 0"/><feOffset/><feGaussianBlur stdDeviation="9.4"/><feColorMatrix values="0 0 0 0 0.501961 0 0 0 0 0.435294 0 0 0 0 0.909804 0 0 0 1 0"/><feBlend in2="effect3_dropShadow_563_261" result="effect4_dropShadow_563_261"/><feColorMatrix in="SourceAlpha" result="hardAlpha" values="0 0 0 0 0 0 0 0 0 0 0 0 0 0 0 0 0 0 127 0"/><feOffset/><feGaussianBlur stdDeviation="16.2"/><feColorMatrix values="0 0 0 0 0.501961 0 0 0 0 0.435294 0 0 0 0 0.909804 0 0 0 1 0"/><feBlend in2="effect4_dropShadow_563_261" result="effect5_dropShadow_563_261"/><feColorMatrix in="SourceAlpha" result="hardAlpha" values="0 0 0 0 0 0 0 0 0 0 0 0 0 0 0 0 0 0 127 0"/><feOffset/><feGaussianBlur stdDeviation="28.4"/><feColorMatrix values="0 0 0 0 0.501961 0 0 0 0 0.435294 0 0 0 0 0.909804 0 0 0 1 0"/><feBlend in2="effect5_dropShadow_563_261" result="effect6_dropShadow_563_261"/><feBlend in="SourceGraphic" in2="effect6_dropShadow_563_261" result="shape"/></filter><filter id="d" width="116.5" height="120.7" x="68.9" y="45" color-interpolation-filters="sRGB" filterUnits="userSpaceOnUse"><feFlood flood-opacity="0" result="BackgroundImageFix"/><feColorMatrix in="SourceAlpha" result="hardAlpha" values="0 0 0 0 0 0 0 0 0 0 0 0 0 0 0 0 0 0 127 0"/><feOffset/><feGaussianBlur stdDeviation=".7"/><feColorMatrix values="0 0 0 0 0.501961 0 0 0 0 0.435294 0 0 0 0 0.909804 0 0 0 1 0"/><feBlend in2="BackgroundImageFix" result="effect1_dropShadow_563_261"/><feColorMatrix in="SourceAlpha" result="hardAlpha" values="0 0 0 0 0 0 0 0 0 0 0 0 0 0 0 0 0 0 127 0"/><feOffset/><feGaussianBlur stdDeviation="1.4"/><feColorMatrix values="0 0 0 0 0.501961 0 0 0 0 0.435294 0 0 0 0 0.909804 0 0 0 1 0"/><feBlend in2="effect1_dropShadow_563_261" result="effect2_dropShadow_563_261"/><feColorMatrix in="SourceAlpha" result="hardAlpha" values="0 0 0 0 0 0 0 0 0 0 0 0 0 0 0 0 0 0 127 0"/><feOffset/><feGaussianBlur stdDeviation="4.7"/><feColorMatrix values="0 0 0 0 0.501961 0 0 0 0 0.435294 0 0 0 0 0.909804 0 0 0 1 0"/><feBlend in2="effect2_dropShadow_563_261" result="effect3_dropShadow_563_261"/><feColorMatrix in="SourceAlpha" result="hardAlpha" values="0 0 0 0 0 0 0 0 0 0 0 0 0 0 0 0 0 0 127 0"/><feOffset/><feGaussianBlur stdDeviation="9.4"/><feColorMatrix values="0 0 0 0 0.501961 0 0 0 0 0.435294 0 0 0 0 0.909804 0 0 0 1 0"/><feBlend in2="effect3_dropShadow_563_261" result="effect4_dropShadow_563_261"/><feColorMatrix in="SourceAlpha" result="hardAlpha" values="0 0 0 0 0 0 0 0 0 0 0 0 0 0 0 0 0 0 127 0"/><feOffset/><feGaussianBlur stdDeviation="16.2"/><feColorMatrix values="0 0 0 0 0.501961 0 0 0 0 0.435294 0 0 0 0 0.909804 0 0 0 1 0"/><feBlend in2="effect4_dropShadow_563_261" result="effect5_dropShadow_563_261"/><feColorMatrix in="SourceAlpha" result="hardAlpha" values="0 0 0 0 0 0 0 0 0 0 0 0 0 0 0 0 0 0 127 0"/><feOffset/><feGaussianBlur stdDeviation="28.4"/><feColorMatrix values="0 0 0 0 0.501961 0 0 0 0 0.435294 0 0 0 0 0.909804 0 0 0 1 0"/><feBlend in2="effect5_dropShadow_563_261" result="effect6_dropShadow_563_261"/><feBlend in="SourceGraphic" in2="effect6_dropShadow_563_261" result="shape"/></filter><filter id="e" width="116.5" height="120.7" x="138.9" y="30" color-interpolation-filters="sRGB" filterUnits="userSpaceOnUse"><feFlood flood-opacity="0" result="BackgroundImageFix"/><feColorMatrix in="SourceAlpha" result="hardAlpha" values="0 0 0 0 0 0 0 0 0 0 0 0 0 0 0 0 0 0 127 0"/><feOffset/><feGaussianBlur stdDeviation=".7"/><feColorMatrix values="0 0 0 0 0.501961 0 0 0 0 0.435294 0 0 0 0 0.909804 0 0 0 1 0"/><feBlend in2="BackgroundImageFix" result="effect1_dropShadow_563_261"/><feColorMatrix in="SourceAlpha" result="hardAlpha" values="0 0 0 0 0 0 0 0 0 0 0 0 0 0 0 0 0 0 127 0"/><feOffset/><feGaussianBlur stdDeviation="1.4"/><feColorMatrix values="0 0 0 0 0.501961 0 0 0 0 0.435294 0 0 0 0 0.909804 0 0 0 1 0"/><feBlend in2="effect1_dropShadow_563_261" result="effect2_dropShadow_563_261"/><feColorMatrix in="SourceAlpha" result="hardAlpha" values="0 0 0 0 0 0 0 0 0 0 0 0 0 0 0 0 0 0 127 0"/><feOffset/><feGaussianBlur stdDeviation="4.7"/><feColorMatrix values="0 0 0 0 0.501961 0 0 0 0 0.435294 0 0 0 0 0.909804 0 0 0 1 0"/><feBlend in2="effect2_dropShadow_563_261" result="effect3_dropShadow_563_261"/><feColorMatrix in="SourceAlpha" result="hardAlpha" values="0 0 0 0 0 0 0 0 0 0 0 0 0 0 0 0 0 0 127 0"/><feOffset/><feGaussianBlur stdDeviation="9.4"/><feColorMatrix values="0 0 0 0 0.501961 0 0 0 0 0.435294 0 0 0 0 0.909804 0 0 0 1 0"/><feBlend in2="effect3_dropShadow_563_261" result="effect4_dropShadow_563_261"/><feColorMatrix in="SourceAlpha" result="hardAlpha" values="0 0 0 0 0 0 0 0 0 0 0 0 0 0 0 0 0 0 127 0"/><feOffset/><feGaussianBlur stdDeviation="16.2"/><feColorMatrix values="0 0 0 0 0.501961 0 0 0 0 0.435294 0 0 0 0 0.909804 0 0 0 1 0"/><feBlend in2="effect4_dropShadow_563_261" result="effect5_dropShadow_563_261"/><feColorMatrix in="SourceAlpha" result="hardAlpha" values="0 0 0 0 0 0 0 0 0 0 0 0 0 0 0 0 0 0 127 0"/><feOffset/><feGaussianBlur stdDeviation="28.4"/><feColorMatrix values="0 0 0 0 0.501961 0 0 0 0 0.435294 0 0 0 0 0.909804 0 0 0 1 0"/><feBlend in2="effect5_dropShadow_563_261" result="effect6_dropShadow_563_261"/><feBlend in="SourceGraphic" in2="effect6_dropShadow_563_261" result="shape"/></filter><filter id="f" width="116.5" height="120.7" x=".9" y="90" color-interpolation-filters="sRGB" filterUnits="userSpaceOnUse"><feFlood flood-opacity="0" result="BackgroundImageFix"/><feColorMatrix in="SourceAlpha" result="hardAlpha" values="0 0 0 0 0 0 0 0 0 0 0 0 0 0 0 0 0 0 127 0"/><feOffset/><feGaussianBlur stdDeviation=".7"/><feColorMatrix values="0 0 0 0 0.501961 0 0 0 0 0.435294 0 0 0 0 0.909804 0 0 0 1 0"/><feBlend in2="BackgroundImageFix" result="effect1_dropShadow_563_261"/><feColorMatrix in="SourceAlpha" result="hardAlpha" values="0 0 0 0 0 0 0 0 0 0 0 0 0 0 0 0 0 0 127 0"/><feOffset/><feGaussianBlur stdDeviation="1.4"/><feColorMatrix values="0 0 0 0 0.501961 0 0 0 0 0.435294 0 0 0 0 0.909804 0 0 0 1 0"/><feBlend in2="effect1_dropShadow_563_261" result="effect2_dropShadow_563_261"/><feColorMatrix in="SourceAlpha" result="hardAlpha" values="0 0 0 0 0 0 0 0 0 0 0 0 0 0 0 0 0 0 127 0"/><feOffset/><feGaussianBlur stdDeviation="4.7"/><feColorMatrix values="0 0 0 0 0.501961 0 0 0 0 0.435294 0 0 0 0 0.909804 0 0 0 1 0"/><feBlend in2="effect2_dropShadow_563_261" result="effect3_dropShadow_563_261"/><feColorMatrix in="SourceAlpha" result="hardAlpha" values="0 0 0 0 0 0 0 0 0 0 0 0 0 0 0 0 0 0 127 0"/><feOffset/><feGaussianBlur stdDeviation="9.4"/><feColorMatrix values="0 0 0 0 0.501961 0 0 0 0 0.435294 0 0 0 0 0.909804 0 0 0 1 0"/><feBlend in2="effect3_dropShadow_563_261" result="effect4_dropShadow_563_261"/><feColorMatrix in="SourceAlpha" result="hardAlpha" values="0 0 0 0 0 0 0 0 0 0 0 0 0 0 0 0 0 0 127 0"/><feOffset/><feGaussianBlur stdDeviation="16.2"/><feColorMatrix values="0 0 0 0 0.501961 0 0 0 0 0.435294 0 0 0 0 0.909804 0 0 0 1 0"/><feBlend in2="effect4_dropShadow_563_261" result="effect5_dropShadow_563_261"/><feColorMatrix in="SourceAlpha" result="hardAlpha" values="0 0 0 0 0 0 0 0 0 0 0 0 0 0 0 0 0 0 127 0"/><feOffset/><feGaussianBlur stdDeviation="28.4"/><feColorMatrix values="0 0 0 0 0.501961 0 0 0 0 0.435294 0 0 0 0 0.909804 0 0 0 1 0"/><feBlend in2="effect5_dropShadow_563_261" result="effect6_dropShadow_563_261"/><feBlend in="SourceGraphic" in2="effect6_dropShadow_563_261" result="shape"/></filter><filter id="g" width="116.5" height="120.7" x="75.9" y="0" color-interpolation-filters="sRGB" filterUnits="userSpaceOnUse"><feFlood flood-opacity="0" result="BackgroundImageFix"/><feColorMatrix in="SourceAlpha" result="hardAlpha" values="0 0 0 0 0 0 0 0 0 0 0 0 0 0 0 0 0 0 127 0"/><feOffset/><feGaussianBlur stdDeviation=".7"/><feColorMatrix values="0 0 0 0 0.501961 0 0 0 0 0.435294 0 0 0 0 0.909804 0 0 0 1 0"/><feBlend in2="BackgroundImageFix" result="effect1_dropShadow_563_261"/><feColorMatrix in="SourceAlpha" result="hardAlpha" values="0 0 0 0 0 0 0 0 0 0 0 0 0 0 0 0 0 0 127 0"/><feOffset/><feGaussianBlur stdDeviation="1.4"/><feColorMatrix values="0 0 0 0 0.501961 0 0 0 0 0.435294 0 0 0 0 0.909804 0 0 0 1 0"/><feBlend in2="effect1_dropShadow_563_261" result="effect2_dropShadow_563_261"/><feColorMatrix in="SourceAlpha" result="hardAlpha" values="0 0 0 0 0 0 0 0 0 0 0 0 0 0 0 0 0 0 127 0"/><feOffset/><feGaussianBlur stdDeviation="4.7"/><feColorMatrix values="0 0 0 0 0.501961 0 0 0 0 0.435294 0 0 0 0 0.909804 0 0 0 1 0"/><feBlend in2="effect2_dropShadow_563_261" result="effect3_dropShadow_563_261"/><feColorMatrix in="SourceAlpha" result="hardAlpha" values="0 0 0 0 0 0 0 0 0 0 0 0 0 0 0 0 0 0 127 0"/><feOffset/><feGaussianBlur stdDeviation="9.4"/><feColorMatrix values="0 0 0 0 0.501961 0 0 0 0 0.435294 0 0 0 0 0.909804 0 0 0 1 0"/><feBlend in2="effect3_dropShadow_563_261" result="effect4_dropShadow_563_261"/><feColorMatrix in="SourceAlpha" result="hardAlpha" values="0 0 0 0 0 0 0 0 0 0 0 0 0 0 0 0 0 0 127 0"/><feOffset/><feGaussianBlur stdDeviation="16.2"/><feColorMatrix values="0 0 0 0 0.501961 0 0 0 0 0.435294 0 0 0 0 0.909804 0 0 0 1 0"/><feBlend in2="effect4_dropShadow_563_261" result="effect5_dropShadow_563_261"/><feColorMatrix in="SourceAlpha" result="hardAlpha" values="0 0 0 0 0 0 0 0 0 0 0 0 0 0 0 0 0 0 127 0"/><feOffset/><feGaussianBlur stdDeviation="28.4"/><feColorMatrix values="0 0 0 0 0.501961 0 0 0 0 0.435294 0 0 0 0 0.909804 0 0 0 1 0"/><feBlend in2="effect5_dropShadow_563_261" result="effect6_dropShadow_563_261"/><feBlend in="SourceGraphic" in2="effect6_dropShadow_563_261" result="shape"/></filter><filter id="h" width="116.5" height="120.7" x="45.9" y="15" color-interpolation-filters="sRGB" filterUnits="userSpaceOnUse"><feFlood flood-opacity="0" result="BackgroundImageFix"/><feColorMatrix in="SourceAlpha" result="hardAlpha" values="0 0 0 0 0 0 0 0 0 0 0 0 0 0 0 0 0 0 127 0"/><feOffset/><feGaussianBlur stdDeviation=".7"/><feColorMatrix values="0 0 0 0 0.501961 0 0 0 0 0.435294 0 0 0 0 0.909804 0 0 0 1 0"/><feBlend in2="BackgroundImageFix" result="effect1_dropShadow_563_261"/><feColorMatrix in="SourceAlpha" result="hardAlpha" values="0 0 0 0 0 0 0 0 0 0 0 0 0 0 0 0 0 0 127 0"/><feOffset/><feGaussianBlur stdDeviation="1.4"/><feColorMatrix values="0 0 0 0 0.501961 0 0 0 0 0.435294 0 0 0 0 0.909804 0 0 0 1 0"/><feBlend in2="effect1_dropShadow_563_261" result="effect2_dropShadow_563_261"/><feColorMatrix in="SourceAlpha" result="hardAlpha" values="0 0 0 0 0 0 0 0 0 0 0 0 0 0 0 0 0 0 127 0"/><feOffset/><feGaussianBlur stdDeviation="4.7"/><feColorMatrix values="0 0 0 0 0.501961 0 0 0 0 0.435294 0 0 0 0 0.909804 0 0 0 1 0"/><feBlend in2="effect2_dropShadow_563_261" result="effect3_dropShadow_563_261"/><feColorMatrix in="SourceAlpha" result="hardAlpha" values="0 0 0 0 0 0 0 0 0 0 0 0 0 0 0 0 0 0 127 0"/><feOffset/><feGaussianBlur stdDeviation="9.4"/><feColorMatrix values="0 0 0 0 0.501961 0 0 0 0 0.435294 0 0 0 0 0.909804 0 0 0 1 0"/><feBlend in2="effect3_dropShadow_563_261" result="effect4_dropShadow_563_261"/><feColorMatrix in="SourceAlpha" result="hardAlpha" values="0 0 0 0 0 0 0 0 0 0 0 0 0 0 0 0 0 0 127 0"/><feOffset/><feGaussianBlur stdDeviation="16.2"/><feColorMatrix values="0 0 0 0 0.501961 0 0 0 0 0.435294 0 0 0 0 0.909804 0 0 0 1 0"/><feBlend in2="effect4_dropShadow_563_261" result="effect5_dropShadow_563_261"/><feColorMatrix in="SourceAlpha" result="hardAlpha" values="0 0 0 0 0 0 0 0 0 0 0 0 0 0 0 0 0 0 127 0"/><feOffset/><feGaussianBlur stdDeviation="28.4"/><feColorMatrix values="0 0 0 0 0.501961 0 0 0 0 0.435294 0 0 0 0 0.909804 0 0 0 1 0"/><feBlend in2="effect5_dropShadow_563_261" result="effect6_dropShadow_563_261"/><feBlend in="SourceGraphic" in2="effect6_dropShadow_563_261" result="shape"/></filter><filter id="i" width="119" height="120.9" x="120" y="104.9" color-interpolation-filters="sRGB" filterUnits="userSpaceOnUse"><feFlood flood-opacity="0" result="BackgroundImageFix"/><feColorMatrix in="SourceAlpha" result="hardAlpha" values="0 0 0 0 0 0 0 0 0 0 0 0 0 0 0 0 0 0 127 0"/><feOffset/><feGaussianBlur stdDeviation=".7"/><feColorMatrix values="0 0 0 0 0.501961 0 0 0 0 0.435294 0 0 0 0 0.909804 0 0 0 1 0"/><feBlend in2="BackgroundImageFix" result="effect1_dropShadow_563_261"/><feColorMatrix in="SourceAlpha" result="hardAlpha" values="0 0 0 0 0 0 0 0 0 0 0 0 0 0 0 0 0 0 127 0"/><feOffset/><feGaussianBlur stdDeviation="1.4"/><feColorMatrix values="0 0 0 0 0.501961 0 0 0 0 0.435294 0 0 0 0 0.909804 0 0 0 1 0"/><feBlend in2="effect1_dropShadow_563_261" result="effect2_dropShadow_563_261"/><feColorMatrix in="SourceAlpha" result="hardAlpha" values="0 0 0 0 0 0 0 0 0 0 0 0 0 0 0 0 0 0 127 0"/><feOffset/><feGaussianBlur stdDeviation="4.7"/><feColorMatrix values="0 0 0 0 0.501961 0 0 0 0 0.435294 0 0 0 0 0.909804 0 0 0 1 0"/><feBlend in2="effect2_dropShadow_563_261" result="effect3_dropShadow_563_261"/><feColorMatrix in="SourceAlpha" result="hardAlpha" values="0 0 0 0 0 0 0 0 0 0 0 0 0 0 0 0 0 0 127 0"/><feOffset/><feGaussianBlur stdDeviation="9.4"/><feColorMatrix values="0 0 0 0 0.501961 0 0 0 0 0.435294 0 0 0 0 0.909804 0 0 0 1 0"/><feBlend in2="effect3_dropShadow_563_261" result="effect4_dropShadow_563_261"/><feColorMatrix in="SourceAlpha" result="hardAlpha" values="0 0 0 0 0 0 0 0 0 0 0 0 0 0 0 0 0 0 127 0"/><feOffset/><feGaussianBlur stdDeviation="16.2"/><feColorMatrix values="0 0 0 0 0.501961 0 0 0 0 0.435294 0 0 0 0 0.909804 0 0 0 1 0"/><feBlend in2="effect4_dropShadow_563_261" result="effect5_dropShadow_563_261"/><feColorMatrix in="SourceAlpha" result="hardAlpha" values="0 0 0 0 0 0 0 0 0 0 0 0 0 0 0 0 0 0 127 0"/><feOffset/><feGaussianBlur stdDeviation="28.4"/><feColorMatrix values="0 0 0 0 0.501961 0 0 0 0 0.435294 0 0 0 0 0.909804 0 0 0 1 0"/><feBlend in2="effect5_dropShadow_563_261" result="effect6_dropShadow_563_261"/><feBlend in="SourceGraphic" in2="effect6_dropShadow_563_261" result="shape"/></filter><filter id="j" width="119" height="120.9" x="102" y="29.9" color-interpolation-filters="sRGB" filterUnits="userSpaceOnUse"><feFlood flood-opacity="0" result="BackgroundImageFix"/><feColorMatrix in="SourceAlpha" result="hardAlpha" values="0 0 0 0 0 0 0 0 0 0 0 0 0 0 0 0 0 0 127 0"/><feOffset/><feGaussianBlur stdDeviation=".7"/><feColorMatrix values="0 0 0 0 0.501961 0 0 0 0 0.435294 0 0 0 0 0.909804 0 0 0 1 0"/><feBlend in2="BackgroundImageFix" result="effect1_dropShadow_563_261"/><feColorMatrix in="SourceAlpha" result="hardAlpha" values="0 0 0 0 0 0 0 0 0 0 0 0 0 0 0 0 0 0 127 0"/><feOffset/><feGaussianBlur stdDeviation="1.4"/><feColorMatrix values="0 0 0 0 0.501961 0 0 0 0 0.435294 0 0 0 0 0.909804 0 0 0 1 0"/><feBlend in2="effect1_dropShadow_563_261" result="effect2_dropShadow_563_261"/><feColorMatrix in="SourceAlpha" result="hardAlpha" values="0 0 0 0 0 0 0 0 0 0 0 0 0 0 0 0 0 0 127 0"/><feOffset/><feGaussianBlur stdDeviation="4.7"/><feColorMatrix values="0 0 0 0 0.501961 0 0 0 0 0.435294 0 0 0 0 0.909804 0 0 0 1 0"/><feBlend in2="effect2_dropShadow_563_261" result="effect3_dropShadow_563_261"/><feColorMatrix in="SourceAlpha" result="hardAlpha" values="0 0 0 0 0 0 0 0 0 0 0 0 0 0 0 0 0 0 127 0"/><feOffset/><feGaussianBlur stdDeviation="9.4"/><feColorMatrix values="0 0 0 0 0.501961 0 0 0 0 0.435294 0 0 0 0 0.909804 0 0 0 1 0"/><feBlend in2="effect3_dropShadow_563_261" result="effect4_dropShadow_563_261"/><feColorMatrix in="SourceAlpha" result="hardAlpha" values="0 0 0 0 0 0 0 0 0 0 0 0 0 0 0 0 0 0 127 0"/><feOffset/><feGaussianBlur stdDeviation="16.2"/><feColorMatrix values="0 0 0 0 0.501961 0 0 0 0 0.435294 0 0 0 0 0.909804 0 0 0 1 0"/><feBlend in2="effect4_dropShadow_563_261" result="effect5_dropShadow_563_261"/><feColorMatrix in="SourceAlpha" result="hardAlpha" values="0 0 0 0 0 0 0 0 0 0 0 0 0 0 0 0 0 0 127 0"/><feOffset/><feGaussianBlur stdDeviation="28.4"/><feColorMatrix values="0 0 0 0 0.501961 0 0 0 0 0.435294 0 0 0 0 0.909804 0 0 0 1 0"/><feBlend in2="effect5_dropShadow_563_261" result="effect6_dropShadow_563_261"/><feBlend in="SourceGraphic" in2="effect6_dropShadow_563_261" result="shape"/></filter><filter id="k" width="119" height="120.9" x="27" y="104.9" color-interpolation-filters="sRGB" filterUnits="userSpaceOnUse"><feFlood flood-opacity="0" result="BackgroundImageFix"/><feColorMatrix in="SourceAlpha" result="hardAlpha" values="0 0 0 0 0 0 0 0 0 0 0 0 0 0 0 0 0 0 127 0"/><feOffset/><feGaussianBlur stdDeviation=".7"/><feColorMatrix values="0 0 0 0 0.501961 0 0 0 0 0.435294 0 0 0 0 0.909804 0 0 0 1 0"/><feBlend in2="BackgroundImageFix" result="effect1_dropShadow_563_261"/><feColorMatrix in="SourceAlpha" result="hardAlpha" values="0 0 0 0 0 0 0 0 0 0 0 0 0 0 0 0 0 0 127 0"/><feOffset/><feGaussianBlur stdDeviation="1.4"/><feColorMatrix values="0 0 0 0 0.501961 0 0 0 0 0.435294 0 0 0 0 0.909804 0 0 0 1 0"/><feBlend in2="effect1_dropShadow_563_261" result="effect2_dropShadow_563_261"/><feColorMatrix in="SourceAlpha" result="hardAlpha" values="0 0 0 0 0 0 0 0 0 0 0 0 0 0 0 0 0 0 127 0"/><feOffset/><feGaussianBlur stdDeviation="4.7"/><feColorMatrix values="0 0 0 0 0.501961 0 0 0 0 0.435294 0 0 0 0 0.909804 0 0 0 1 0"/><feBlend in2="effect2_dropShadow_563_261" result="effect3_dropShadow_563_261"/><feColorMatrix in="SourceAlpha" result="hardAlpha" values="0 0 0 0 0 0 0 0 0 0 0 0 0 0 0 0 0 0 127 0"/><feOffset/><feGaussianBlur stdDeviation="9.4"/><feColorMatrix values="0 0 0 0 0.501961 0 0 0 0 0.435294 0 0 0 0 0.909804 0 0 0 1 0"/><feBlend in2="effect3_dropShadow_563_261" result="effect4_dropShadow_563_261"/><feColorMatrix in="SourceAlpha" result="hardAlpha" values="0 0 0 0 0 0 0 0 0 0 0 0 0 0 0 0 0 0 127 0"/><feOffset/><feGaussianBlur stdDeviation="16.2"/><feColorMatrix values="0 0 0 0 0.501961 0 0 0 0 0.435294 0 0 0 0 0.909804 0 0 0 1 0"/><feBlend in2="effect4_dropShadow_563_261" result="effect5_dropShadow_563_261"/><feColorMatrix in="SourceAlpha" result="hardAlpha" values="0 0 0 0 0 0 0 0 0 0 0 0 0 0 0 0 0 0 127 0"/><feOffset/><feGaussianBlur stdDeviation="28.4"/><feColorMatrix values="0 0 0 0 0.501961 0 0 0 0 0.435294 0 0 0 0 0.909804 0 0 0 1 0"/><feBlend in2="effect5_dropShadow_563_261" result="effect6_dropShadow_563_261"/><feBlend in="SourceGraphic" in2="effect6_dropShadow_563_261" result="shape"/></filter><radialGradient id="a" cx="0" cy="0" r="1" gradientTransform="matrix(-1 72 -112 -2 127 120)" gradientUnits="userSpaceOnUse"><stop stop-color="#fff"/><stop offset="1" stop-color="#fff" stop-opacity="0"/></radialGradient></defs></svg>