<svg xmlns="http://www.w3.org/2000/svg" width="276" height="75" fill="none"><path fill="url(#a)" d="m1 38 8 4 2 1 2 1h1l4 1 3-1 4-2 8-8 9-11 2-4 3-2 2-1 4 1 3 1 2 2 14 26 3 6 2 3 2 2 2 2 4 1h3l3-1 2-2 2-2 3-8 6-13 2-4 3-4 5-2 4 2 8 8 7 3 5 1 3 2 3 5 2 3 2 1h5l2-2 1-2 1-3 4-6 6-11 3-5 2-4 4-2h4l3 1 4 2 2 3 12 13 2 3 2 1h6l2-2 2-2 1-3v-5l3-4h6l2 2 3 3v5l3 5 4 2 9 1 11 4 2 1h4l5-3 7-8v23l-2 4-5 3-3 1L1 63V38Z"/><path stroke="#806FE8" d="m1 38 11 5h1l2 1c4 1 7 0 10-3l11-11 1-1 2-3 4-5v-1c4-6 13-5 16 1l7 15 11 19c4 7 15 7 18-1l11-25c2-5 9-7 13-2l6 6 4 2 8 3c2 0 4 2 5 4l1 3c3 6 13 5 14-2l1-2 12-22c4-6 12-7 16-2l16 18c5 5 14 1 13-6v-1c0-6 8-10 12-6l3 5v2c0 5 4 9 9 9l4 1h3l11 4c3 1 7 1 10-1l2-2 2-3 4-5"/><defs><radialGradient id="a" cx="0" cy="0" r="1" gradientTransform="matrix(-5 -43 289 -30 142 5)" gradientUnits="userSpaceOnUse"><stop offset="0" stop-color="#403885" stop-opacity=".7"/><stop offset=".9" stop-color="#100F1D"/></radialGradient></defs></svg>