<svg xmlns="http://www.w3.org/2000/svg" width="141" height="59" fill="none"><path fill="url(#a)" d="m0 26 2-3 2-2h2l3 1 2 2 2 3 3 1 4-1 3-2 3-2 2-1h5l4 2 3 1 2 1h2l2-1 1-2 3-5 2-4 3-4h1l2 1 3-1h1v1l1 2 1 3 3 6 5 12 3 2 3-1 2-1 2-5 1-4 2-9 2-3h6l3 4 3 4 3 1 2 2v2l2 1 2 1 3-1 2-3 2-7 4-7 1-3 3-1h3l1 1 7 8 6 8v33l-2 2h-10v-5l-1-2-1-2-2-2H39l-19 1-2 1-1 2v8H3l-2-3-1-9V26Z"/><path stroke="#806FE8" d="m0 25 1-2c2-3 7-3 9 0l2 2c1 3 4 3 6 2l9-5h5l9 3c2 1 4 0 6-2l7-12c2-3 7-3 9 1l8 20c2 4 9 4 10-1l4-15c1-4 6-5 9-2l5 6 2 2c2 0 3 1 3 2 2 4 7 4 9 0l2-7 4-9c1-3 6-4 8-1l13 15"/><path fill="#000" stroke="#806FE8" stroke-width="1.4" d="M60 9a2 2 0 1 1-4 0 2 2 0 0 1 4 0Z"/><defs><radialGradient id="a" cx="0" cy="0" r="1" gradientTransform="matrix(-2 -50 160 -8 73 0)" gradientUnits="userSpaceOnUse"><stop stop-color="#403885" stop-opacity=".7"/><stop offset=".9" stop-color="#131220"/></radialGradient></defs></svg>