<svg width="12" height="12" viewBox="0 0 12 12" fill="none" xmlns="http://www.w3.org/2000/svg">
<g clip-path="url(#clip0_405_148)">
<path d="M5.04002 0.719971C2.7844 0.719971 0.960022 2.54435 0.960022 4.79997C0.960022 7.0556 2.7844 8.87997 5.04002 8.87997C5.84533 8.87997 6.59065 8.64372 7.22252 8.24247L10.17 11.19L11.19 10.17L8.28002 7.26747C8.80315 6.58122 9.12002 5.73091 9.12002 4.79997C9.12002 2.54435 7.29565 0.719971 5.04002 0.719971ZM5.04002 1.67997C6.76783 1.67997 8.16002 3.07216 8.16002 4.79997C8.16002 6.52778 6.76783 7.91997 5.04002 7.91997C3.31221 7.91997 1.92002 6.52778 1.92002 4.79997C1.92002 3.07216 3.31221 1.67997 5.04002 1.67997Z" fill="#806FE8"/>
</g>
<defs>
<clipPath id="clip0_405_148">
<rect width="12" height="12" fill="white"/>
</clipPath>
</defs>
</svg>
