<svg xmlns="http://www.w3.org/2000/svg" width="457" height="256" fill="none"><path fill="url(#a)" d="M95 39h-1v-1l1-1v1h1v1h-1Zm14 0-1-1h1v-1l1 1v1h-1Zm15 0h-1v-1l1-1v2Zm14 0h-1v-1l1-1 1 1v1h-1Zm14 0-1-1h1v-1l1 1v1h-1Zm15 0h-1v-1l1-1v1h1l-1 1Zm14 0h-1v-1l1-1 1 1v1h-1Zm14 0v-2l1 1v1h-1Zm15 0h-1v-1l1-1v1h1v1h-1Zm14 0-1-1h1v-1l1 1v1h-1Zm15 0h-1v-1l1-1v2Zm14 0h-1v-1l1-1 1 1v1h-1Zm14 0v-2l1 1v1h-1Zm15 0h-1v-1l1-1v1h1l-1 1Zm14 0-1-1h1v-1l1 1v1h-1Zm14 0v-2l1 1v1h-1Zm15 0h-1v-1l1-1v1h1v1h-1Zm14 0-1-1h1v-1l1 1v1h-1Zm15 0h-1v-1l1-1v2Zm14 0h-1v-1l1-1 1 1v1h-1Zm14 0v-2l1 1v1h-1Zm15 0h-1v-1l1-1v1h1l-1 1Zm14 0-1-1h1v-1l1 1v1h-1Zm15 0h-1v-1l1-1v2Zm14 0h-1v-1l1-1v1h1v1h-1Zm14 0-1-1h1v-1l1 1v1h-1ZM95 53h-1v-1l1-1v1h1v1h-1Zm14 0-1-1h1v-1l1 1v1h-1Zm15 0h-1v-1l1-1v2Zm14 0h-1v-1l1-1 1 1v1h-1Zm14 0-1-1h1v-1l1 1v1h-1Zm15 0h-1v-1l1-1v1h1l-1 1Zm14 0h-1v-1l1-1 1 1v1h-1Zm14 0v-2l1 1v1h-1Zm15 0h-1v-1l1-1v1h1v1h-1Zm14 0-1-1h1v-1l1 1v1h-1Zm15 0h-1v-1l1-1v2Zm14 0h-1v-1l1-1 1 1v1h-1Zm14 0v-2l1 1v1h-1Zm15 0h-1v-1l1-1v1h1l-1 1Zm14 0-1-1h1v-1l1 1v1h-1Zm14 0v-2l1 1v1h-1Zm15 0h-1v-1l1-1v1h1v1h-1Zm14 0-1-1h1v-1l1 1v1h-1Zm15 0h-1v-1l1-1v2Zm14 0h-1v-1l1-1 1 1v1h-1Zm14 0v-2l1 1v1h-1Zm15 0h-1v-1l1-1v1h1l-1 1Zm14 0-1-1h1v-1l1 1v1h-1Zm15 0h-1v-1l1-1v2Zm14 0h-1v-1l1-1v1h1v1h-1Zm14 0-1-1h1v-1l1 1v1h-1ZM95 68h-1v-1l1-1v1h1v1h-1Zm14 0-1-1h1v-1l1 1v1h-1Zm15 0h-1v-1l1-1v2Zm14 0h-1v-1l1-1 1 1v1h-1Zm14 0-1-1h1v-1l1 1v1h-1Zm15 0h-1v-1l1-1v1h1l-1 1Zm14 0h-1v-1l1-1 1 1v1h-1Zm14 0v-2l1 1v1h-1Zm15 0h-1v-1l1-1v1h1v1h-1Zm14 0-1-1h1v-1l1 1v1h-1Zm15 0h-1v-1l1-1v2Zm14 0h-1v-1l1-1 1 1v1h-1Zm14 0v-2l1 1v1h-1Zm15 0h-1v-1l1-1v1h1l-1 1Zm14 0-1-1h1v-1l1 1v1h-1Zm14 0v-2l1 1v1h-1Zm15 0h-1v-1l1-1v1h1v1h-1Zm14 0-1-1h1v-1l1 1v1h-1Zm15 0h-1v-1l1-1v2Zm14 0h-1v-1l1-1 1 1v1h-1Zm14 0v-2l1 1v1h-1Zm15 0h-1v-1l1-1v1h1l-1 1Zm14 0-1-1h1v-1l1 1v1h-1Zm15 0h-1v-1l1-1v2Zm14 0h-1v-1l1-1v1h1v1h-1Zm14 0-1-1h1v-1l1 1v1h-1ZM95 82h-1v-1l1-1v1h1v1h-1Zm14 0-1-1h1v-1l1 1v1h-1Zm15 0h-1v-1l1-1v2Zm14 0h-1v-1l1-1 1 1v1h-1Zm14 0-1-1h1v-1l1 1v1h-1Zm15 0h-1v-1l1-1v1h1l-1 1Zm14 0h-1v-1l1-1 1 1v1h-1Zm14 0v-2l1 1v1h-1Zm15 0h-1v-1l1-1v1h1v1h-1Zm14 0-1-1h1v-1l1 1v1h-1Zm15 0h-1v-1l1-1v2Zm14 0h-1v-1l1-1 1 1v1h-1Zm14 0v-2l1 1v1h-1Zm15 0h-1v-1l1-1v1h1l-1 1Zm14 0-1-1h1v-1l1 1v1h-1Zm14 0v-2l1 1v1h-1Zm15 0h-1v-1l1-1v1h1v1h-1Zm14 0-1-1h1v-1l1 1v1h-1Zm15 0h-1v-1l1-1v2Zm14 0h-1v-1l1-1 1 1v1h-1Zm14 0v-2l1 1v1h-1Zm15 0h-1v-1l1-1v1h1l-1 1Zm14 0-1-1h1v-1l1 1v1h-1Zm15 0h-1v-1l1-1v2Zm14 0h-1v-1l1-1v1h1v1h-1Zm14 0-1-1h1v-1l1 1v1h-1ZM95 97h-1v-1l1-1v1h1v1h-1Zm14 0-1-1h1v-1l1 1v1h-1Zm15 0h-1v-1l1-1v2Zm14 0h-1v-1l1-1 1 1v1h-1Zm14 0-1-1h1v-1l1 1v1h-1Zm15 0h-1v-1l1-1v1h1l-1 1Zm14 0h-1v-1l1-1 1 1v1h-1Zm14 0v-2l1 1v1h-1Zm15 0h-1v-1l1-1v1h1v1h-1Zm14 0-1-1h1v-1l1 1v1h-1Zm15 0h-1v-1l1-1v2Zm14 0h-1v-1l1-1 1 1v1h-1Zm14 0v-2l1 1v1h-1Zm15 0h-1v-1l1-1v1h1l-1 1Zm14 0-1-1h1v-1l1 1v1h-1Zm14 0v-2l1 1v1h-1Zm15 0h-1v-1l1-1v1h1v1h-1Zm14 0-1-1h1v-1l1 1v1h-1Zm15 0h-1v-1l1-1v2Zm14 0h-1v-1l1-1 1 1v1h-1Zm14 0v-2l1 1v1h-1Zm15 0h-1v-1l1-1v1h1l-1 1Zm14 0-1-1h1v-1l1 1v1h-1Zm15 0h-1v-1l1-1v2Zm14 0h-1v-1l1-1v1h1v1h-1Zm14 0-1-1h1v-1l1 1v1h-1ZM95 111h-1v-1l1-1v1h1v1h-1Zm14 0-1-1h1v-1l1 1v1h-1Zm15 0h-1v-1l1-1v2Zm14 0h-1v-1l1-1 1 1v1h-1Zm14 0-1-1h1v-1l1 1v1h-1Zm15 0h-1v-1l1-1v1h1l-1 1Zm14 0h-1v-1l1-1 1 1v1h-1Zm14 0v-2l1 1v1h-1Zm15 0h-1v-1l1-1v1h1v1h-1Zm14 0-1-1h1v-1l1 1v1h-1Zm15 0h-1v-1l1-1v2Zm14 0h-1v-1l1-1 1 1v1h-1Zm14 0v-2l1 1v1h-1Zm15 0h-1v-1l1-1v1h1l-1 1Zm14 0-1-1h1v-1l1 1v1h-1Zm14 0v-2l1 1v1h-1Zm15 0h-1v-1l1-1v1h1v1h-1Zm14 0-1-1h1v-1l1 1v1h-1Zm15 0h-1v-1l1-1v2Zm14 0h-1v-1l1-1 1 1v1h-1Zm14 0v-2l1 1v1h-1Zm15 0h-1v-1l1-1v1h1l-1 1Zm14 0-1-1h1v-1l1 1v1h-1Zm15 0h-1v-1l1-1v2Zm14 0h-1v-1l1-1v1h1v1h-1Zm14 0-1-1h1v-1l1 1v1h-1ZM95 126h-1v-1l1-1v1h1v1h-1Zm14 0-1-1h1v-1l1 1v1h-1Zm15 0h-1v-1l1-1v2Zm14 0h-1v-1l1-1 1 1v1h-1Zm14 0-1-1h1v-1l1 1v1h-1Zm15 0h-1v-1l1-1v1h1l-1 1Zm14 0h-1v-1l1-1 1 1v1h-1Zm14 0v-2l1 1v1h-1Zm15 0h-1v-1l1-1v1h1v1h-1Zm14 0-1-1h1v-1l1 1v1h-1Zm15 0h-1v-1l1-1v2Zm14 0h-1v-1l1-1 1 1v1h-1Zm14 0v-2l1 1v1h-1Zm15 0h-1v-1l1-1v1h1l-1 1Zm14 0-1-1h1v-1l1 1v1h-1Zm14 0v-2l1 1v1h-1Zm15 0h-1v-1l1-1v1h1v1h-1Zm14 0-1-1h1v-1l1 1v1h-1Zm15 0h-1v-1l1-1v2Zm14 0h-1v-1l1-1 1 1v1h-1Zm14 0v-2l1 1v1h-1Zm15 0h-1v-1l1-1v1h1l-1 1Zm14 0-1-1h1v-1l1 1v1h-1Zm15 0h-1v-1l1-1v2Zm14 0h-1v-1l1-1v1h1v1h-1Zm14 0-1-1h1v-1l1 1v1h-1ZM95 140h-1v-1l1-1v1h1v1h-1Zm14 0-1-1h1v-1l1 1v1h-1Zm15 0h-1v-1l1-1v2Zm14 0h-1v-1l1-1 1 1v1h-1Zm14 0-1-1h1v-1l1 1v1h-1Zm15 0h-1v-1l1-1v1h1l-1 1Zm14 0h-1v-1l1-1 1 1v1h-1Zm14 0v-2l1 1v1h-1Zm15 0h-1v-1l1-1v1h1v1h-1Zm14 0-1-1h1v-1l1 1v1h-1Zm15 0h-1v-1l1-1v2Zm14 0h-1v-1l1-1 1 1v1h-1Zm14 0v-2l1 1v1h-1Zm15 0h-1v-1l1-1v1h1l-1 1Zm14 0-1-1h1v-1l1 1v1h-1Zm14 0v-2l1 1v1h-1Zm15 0h-1v-1l1-1v1h1v1h-1Zm14 0-1-1h1v-1l1 1v1h-1Zm15 0h-1v-1l1-1v2Zm14 0h-1v-1l1-1 1 1v1h-1Zm14 0v-2l1 1v1h-1Zm15 0h-1v-1l1-1v1h1l-1 1Zm14 0-1-1h1v-1l1 1v1h-1Zm15 0h-1v-1l1-1v2Zm14 0h-1v-1l1-1v1h1v1h-1Zm14 0-1-1h1v-1l1 1v1h-1ZM95 155h-1v-1l1-1v1h1v1h-1Zm14 0-1-1h1v-1l1 1v1h-1Zm15 0h-1v-1l1-1v2Zm14 0h-1v-1l1-1 1 1v1h-1Zm14 0-1-1h1v-1l1 1v1h-1Zm15 0h-1v-1l1-1v1h1l-1 1Zm14 0h-1v-1l1-1 1 1v1h-1Zm14 0v-2l1 1v1h-1Zm15 0h-1v-1l1-1v1h1v1h-1Zm14 0-1-1h1v-1l1 1v1h-1Zm15 0h-1v-1l1-1v2Zm14 0h-1v-1l1-1 1 1v1h-1Zm14 0v-2l1 1v1h-1Zm15 0h-1v-1l1-1v1h1l-1 1Zm14 0-1-1h1v-1l1 1v1h-1Zm14 0v-2l1 1v1h-1Zm15 0h-1v-1l1-1v1h1v1h-1Zm14 0-1-1h1v-1l1 1v1h-1Zm15 0h-1v-1l1-1v2Zm14 0h-1v-1l1-1 1 1v1h-1Zm14 0v-2l1 1v1h-1Zm15 0h-1v-1l1-1v1h1l-1 1Zm14 0-1-1h1v-1l1 1v1h-1Zm15 0h-1v-1l1-1v2Zm14 0h-1v-1l1-1v1h1v1h-1Zm14 0-1-1h1v-1l1 1v1h-1ZM95 169h-1v-1l1-1v1h1v1h-1Zm14 0-1-1h1v-1l1 1v1h-1Zm15 0h-1v-1l1-1v2Zm14 0h-1v-1l1-1 1 1v1h-1Zm14 0-1-1h1v-1l1 1v1h-1Zm15 0h-1v-1l1-1v1h1l-1 1Zm14 0h-1v-1l1-1 1 1v1h-1Zm14 0v-2l1 1v1h-1Zm15 0h-1v-1l1-1v1h1v1h-1Zm14 0-1-1h1v-1l1 1v1h-1Zm15 0h-1v-1l1-1v2Zm14 0h-1v-1l1-1 1 1v1h-1Zm14 0v-2l1 1v1h-1Zm15 0h-1v-1l1-1v1h1l-1 1Zm14 0-1-1h1v-1l1 1v1h-1Zm14 0v-2l1 1v1h-1Zm15 0h-1v-1l1-1v1h1v1h-1Zm14 0-1-1h1v-1l1 1v1h-1Zm15 0h-1v-1l1-1v2Zm14 0h-1v-1l1-1 1 1v1h-1Zm14 0v-2l1 1v1h-1Zm15 0h-1v-1l1-1v1h1l-1 1Zm14 0-1-1h1v-1l1 1v1h-1Zm15 0h-1v-1l1-1v2Zm14 0h-1v-1l1-1v1h1v1h-1Zm14 0-1-1h1v-1l1 1v1h-1ZM95 184h-1v-1l1-1v1h1v1h-1Zm14 0-1-1h1v-1l1 1v1h-1Zm15 0h-1v-1l1-1v2Zm14 0h-1v-1l1-1 1 1v1h-1Zm14 0-1-1h1v-1l1 1v1h-1Zm15 0h-1v-1l1-1v1h1l-1 1Zm14 0h-1v-1l1-1 1 1v1h-1Zm14 0v-2l1 1v1h-1Zm15 0h-1v-1l1-1v1h1v1h-1Zm14 0-1-1h1v-1l1 1v1h-1Zm15 0h-1v-1l1-1v2Zm14 0h-1v-1l1-1 1 1v1h-1Zm14 0v-2l1 1v1h-1Zm15 0h-1v-1l1-1v1h1l-1 1Zm14 0-1-1h1v-1l1 1v1h-1Zm14 0v-2l1 1v1h-1Zm15 0h-1v-1l1-1v1h1v1h-1Zm14 0-1-1h1v-1l1 1v1h-1Zm15 0h-1v-1l1-1v2Zm14 0h-1v-1l1-1 1 1v1h-1Zm14 0v-2l1 1v1h-1Zm15 0h-1v-1l1-1v1h1l-1 1Zm14 0-1-1h1v-1l1 1v1h-1Zm15 0h-1v-1l1-1v2Zm14 0h-1v-1l1-1v1h1v1h-1Zm14 0-1-1h1v-1l1 1v1h-1ZM95 198h-1v-1l1-1v1h1v1h-1Zm14 0-1-1h1v-1l1 1v1h-1Zm15 0h-1v-1l1-1v2Zm14 0h-1v-1l1-1 1 1v1h-1Zm14 0-1-1h1v-1l1 1v1h-1Zm15 0h-1v-1l1-1v1h1l-1 1Zm14 0h-1v-1l1-1 1 1v1h-1Zm14 0v-2l1 1v1h-1Zm15 0h-1v-1l1-1v1h1v1h-1Zm14 0-1-1h1v-1l1 1v1h-1Zm15 0h-1v-1l1-1v2Zm14 0h-1v-1l1-1 1 1v1h-1Zm14 0v-2l1 1v1h-1Zm15 0h-1v-1l1-1v1h1l-1 1Zm14 0-1-1h1v-1l1 1v1h-1Zm14 0v-2l1 1v1h-1Zm15 0h-1v-1l1-1v1h1v1h-1Zm14 0-1-1h1v-1l1 1v1h-1Zm15 0h-1v-1l1-1v2Zm14 0h-1v-1l1-1 1 1v1h-1Zm14 0v-2l1 1v1h-1Zm15 0h-1v-1l1-1v1h1l-1 1Zm14 0-1-1h1v-1l1 1v1h-1Zm15 0h-1v-1l1-1v2Zm14 0h-1v-1l1-1v1h1v1h-1Zm14 0-1-1h1v-1l1 1v1h-1ZM95 213h-1v-1l1-1v1h1v1h-1Zm14 0-1-1h1v-1l1 1v1h-1Zm15 0h-1v-1l1-1v2Zm14 0h-1v-1l1-1 1 1v1h-1Zm14 0-1-1h1v-1l1 1v1h-1Zm15 0h-1v-1l1-1v1h1l-1 1Zm14 0h-1v-1l1-1 1 1v1h-1Zm14 0v-2l1 1v1h-1Zm15 0h-1v-1l1-1v1h1v1h-1Zm14 0-1-1h1v-1l1 1v1h-1Zm15 0h-1v-1l1-1v2Zm14 0h-1v-1l1-1 1 1v1h-1Zm14 0v-2l1 1v1h-1Zm15 0h-1v-1l1-1v1h1l-1 1Zm14 0-1-1h1v-1l1 1v1h-1Zm14 0v-2l1 1v1h-1Zm15 0h-1v-1l1-1v1h1v1h-1Zm14 0-1-1h1v-1l1 1v1h-1Zm15 0h-1v-1l1-1v2Zm14 0h-1v-1l1-1 1 1v1h-1Zm14 0v-2l1 1v1h-1Zm15 0h-1v-1l1-1v1h1l-1 1Zm14 0-1-1h1v-1l1 1v1h-1Zm15 0h-1v-1l1-1v2Zm14 0h-1v-1l1-1v1h1v1h-1Zm14 0-1-1h1v-1l1 1v1h-1ZM95 227h-1v-1l1-1v1h1v1h-1Zm14 0-1-1h1v-1l1 1v1h-1Zm15 0h-1v-1l1-1v2Zm14 0h-1v-1l1-1 1 1v1h-1Zm14 0-1-1h1v-1l1 1v1h-1Zm15 0h-1v-1l1-1v1h1l-1 1Zm14 0h-1v-1l1-1 1 1v1h-1Zm14 0v-2l1 1v1h-1Zm15 0h-1v-1l1-1v1h1v1h-1Zm14 0-1-1h1v-1l1 1v1h-1Zm15 0h-1v-1l1-1v2Zm14 0h-1v-1l1-1 1 1v1h-1Zm14 0v-2l1 1v1h-1Zm15 0h-1v-1l1-1v1h1l-1 1Zm14 0-1-1h1v-1l1 1v1h-1Zm14 0v-2l1 1v1h-1Zm15 0h-1v-1l1-1v1h1v1h-1Zm14 0-1-1h1v-1l1 1v1h-1Zm15 0h-1v-1l1-1v2Zm14 0h-1v-1l1-1 1 1v1h-1Zm14 0v-2l1 1v1h-1Zm15 0h-1v-1l1-1v1h1l-1 1Zm14 0-1-1h1v-1l1 1v1h-1Zm15 0h-1v-1l1-1v2Zm14 0h-1v-1l1-1v1h1v1h-1Zm14 0-1-1h1v-1l1 1v1h-1Z" opacity=".2"/><path stroke="#C6C6C6" d="M82 172h-2M103 172h-2M238 171h-3M232 171h-3" opacity=".5"/><path stroke="#C6C6C6" d="M234 136h-3M249 85h-3M256 85h-3M263 85h-3M284 85h-3M291 85h-3M296 85h-1M240 130v-3M240 124v-3M240 118v-3M240 93v-3M228 136h-4M201 136h-1" opacity=".4"/><path stroke="#C6C6C6" d="M225 171h-1M264 171h-2M259 171h-3M287 170h-4M292 170h-4" opacity=".5"/><path stroke="#C6C6C6" d="m240 132-2 2M240 88l1-2h1" opacity=".4"/><g filter="url(#b)"><path fill="url(#c)" d="M84 172Z"/></g><g filter="url(#d)" opacity=".4"><path fill="url(#e)" d="M204 136Z"/></g><g filter="url(#f)"><path fill="url(#g)" d="M241 171a152 152 0 0 1 12 0h-12Z"/></g><g filter="url(#h)" opacity=".4"><path fill="url(#i)" d="M265 85a178 178 0 0 1 13 0h-13Z"/></g><g filter="url(#j)"><path fill="url(#k)" d="M291 186v2l2 1h-2v2l-1-2h-2l2-1 1-2Z"/></g><g filter="url(#l)"><path fill="url(#m)" d="m422 140 1 3 3 1-3 1-1 3-1-3-3-1 3-1 1-3Z"/></g><g filter="url(#n)"><path fill="url(#o)" d="M430 152v1l1 1h-1v1l-1-1h-1l1-1 1-1Z"/></g><defs><linearGradient id="c" x1="98.1" x2="83.8" y1="171.5" y2="171.5" gradientUnits="userSpaceOnUse"><stop stop-color="#806FE8"/><stop offset=".2" stop-color="#8D7EE6" stop-opacity=".9"/><stop offset=".4" stop-color="#A095E3" stop-opacity=".6"/><stop offset=".6" stop-color="#B2ABE0" stop-opacity=".4"/><stop offset=".8" stop-color="#C4C0DD" stop-opacity=".2"/><stop offset="1" stop-color="#D9D9D9" stop-opacity="0"/></linearGradient><linearGradient id="e" x1="221.1" x2="203.7" y1="135.5" y2="135.5" gradientUnits="userSpaceOnUse"><stop stop-color="#806FE8"/><stop offset=".2" stop-color="#8D7EE6" stop-opacity=".9"/><stop offset=".4" stop-color="#A095E3" stop-opacity=".6"/><stop offset=".6" stop-color="#B2ABE0" stop-opacity=".4"/><stop offset=".8" stop-color="#C4C0DD" stop-opacity=".2"/><stop offset="1" stop-color="#D9D9D9" stop-opacity="0"/></linearGradient><linearGradient id="g" x1="253.1" x2="240.8" y1="170.5" y2="170.5" gradientUnits="userSpaceOnUse"><stop stop-color="#806FE8"/><stop offset=".2" stop-color="#8D7EE6" stop-opacity=".9"/><stop offset=".4" stop-color="#A095E3" stop-opacity=".6"/><stop offset=".6" stop-color="#B2ABE0" stop-opacity=".4"/><stop offset=".8" stop-color="#C4C0DD" stop-opacity=".2"/><stop offset="1" stop-color="#D9D9D9" stop-opacity="0"/></linearGradient><linearGradient id="i" x1="278.1" x2="264.8" y1="84.5" y2="84.5" gradientUnits="userSpaceOnUse"><stop stop-color="#806FE8"/><stop offset=".2" stop-color="#8D7EE6" stop-opacity=".9"/><stop offset=".4" stop-color="#A095E3" stop-opacity=".6"/><stop offset=".6" stop-color="#B2ABE0" stop-opacity=".4"/><stop offset=".8" stop-color="#C4C0DD" stop-opacity=".2"/><stop offset="1" stop-color="#D9D9D9" stop-opacity="0"/></linearGradient><linearGradient id="k" x1="288" x2="293.1" y1="188.5" y2="188.5" gradientUnits="userSpaceOnUse"><stop stop-color="#806FE8"/><stop offset=".2" stop-color="#8D7EE6" stop-opacity=".9"/><stop offset=".4" stop-color="#A095E3" stop-opacity=".6"/><stop offset=".6" stop-color="#B2ABE0" stop-opacity=".4"/><stop offset=".8" stop-color="#C4C0DD" stop-opacity=".2"/><stop offset="1" stop-color="#D9D9D9" stop-opacity="0"/></linearGradient><linearGradient id="m" x1="418" x2="426.2" y1="144" y2="144" gradientUnits="userSpaceOnUse"><stop stop-color="#806FE8"/><stop offset=".2" stop-color="#8D7EE6" stop-opacity=".9"/><stop offset=".4" stop-color="#A095E3" stop-opacity=".6"/><stop offset=".6" stop-color="#B2ABE0" stop-opacity=".4"/><stop offset=".8" stop-color="#C4C0DD" stop-opacity=".2"/><stop offset="1" stop-color="#D9D9D9" stop-opacity="0"/></linearGradient><linearGradient id="o" x1="428" x2="431.1" y1="153.5" y2="153.5" gradientUnits="userSpaceOnUse"><stop stop-color="#806FE8"/><stop offset=".2" stop-color="#8D7EE6" stop-opacity=".9"/><stop offset=".4" stop-color="#A095E3" stop-opacity=".6"/><stop offset=".6" stop-color="#B2ABE0" stop-opacity=".4"/><stop offset=".8" stop-color="#C4C0DD" stop-opacity=".2"/><stop offset="1" stop-color="#D9D9D9" stop-opacity="0"/></linearGradient><filter id="b" width="180.3" height="167.3" x=".9" y="87.8" color-interpolation-filters="sRGB" filterUnits="userSpaceOnUse"><feFlood flood-opacity="0" result="BackgroundImageFix"/><feColorMatrix in="SourceAlpha" result="hardAlpha" values="0 0 0 0 0 0 0 0 0 0 0 0 0 0 0 0 0 0 127 0"/><feOffset/><feGaussianBlur stdDeviation="1"/><feColorMatrix values="0 0 0 0 0.501961 0 0 0 0 0.435294 0 0 0 0 0.909804 0 0 0 1 0"/><feBlend in2="BackgroundImageFix" result="effect1_dropShadow_563_275"/><feColorMatrix in="SourceAlpha" result="hardAlpha" values="0 0 0 0 0 0 0 0 0 0 0 0 0 0 0 0 0 0 127 0"/><feOffset/><feGaussianBlur stdDeviation="2"/><feColorMatrix values="0 0 0 0 0.501961 0 0 0 0 0.435294 0 0 0 0 0.909804 0 0 0 1 0"/><feBlend in2="effect1_dropShadow_563_275" result="effect2_dropShadow_563_275"/><feColorMatrix in="SourceAlpha" result="hardAlpha" values="0 0 0 0 0 0 0 0 0 0 0 0 0 0 0 0 0 0 127 0"/><feOffset/><feGaussianBlur stdDeviation="6.9"/><feColorMatrix values="0 0 0 0 0.501961 0 0 0 0 0.435294 0 0 0 0 0.909804 0 0 0 1 0"/><feBlend in2="effect2_dropShadow_563_275" result="effect3_dropShadow_563_275"/><feColorMatrix in="SourceAlpha" result="hardAlpha" values="0 0 0 0 0 0 0 0 0 0 0 0 0 0 0 0 0 0 127 0"/><feOffset/><feGaussianBlur stdDeviation="13.9"/><feColorMatrix values="0 0 0 0 0.501961 0 0 0 0 0.435294 0 0 0 0 0.909804 0 0 0 1 0"/><feBlend in2="effect3_dropShadow_563_275" result="effect4_dropShadow_563_275"/><feColorMatrix in="SourceAlpha" result="hardAlpha" values="0 0 0 0 0 0 0 0 0 0 0 0 0 0 0 0 0 0 127 0"/><feOffset/><feGaussianBlur stdDeviation="23.8"/><feColorMatrix values="0 0 0 0 0.501961 0 0 0 0 0.435294 0 0 0 0 0.909804 0 0 0 1 0"/><feBlend in2="effect4_dropShadow_563_275" result="effect5_dropShadow_563_275"/><feColorMatrix in="SourceAlpha" result="hardAlpha" values="0 0 0 0 0 0 0 0 0 0 0 0 0 0 0 0 0 0 127 0"/><feOffset/><feGaussianBlur stdDeviation="41.6"/><feColorMatrix values="0 0 0 0 0.501961 0 0 0 0 0.435294 0 0 0 0 0.909804 0 0 0 1 0"/><feBlend in2="effect5_dropShadow_563_275" result="effect6_dropShadow_563_275"/><feBlend in="SourceGraphic" in2="effect6_dropShadow_563_275" result="shape"/></filter><filter id="d" width="183.3" height="167.3" x="120.9" y="51.8" color-interpolation-filters="sRGB" filterUnits="userSpaceOnUse"><feFlood flood-opacity="0" result="BackgroundImageFix"/><feColorMatrix in="SourceAlpha" result="hardAlpha" values="0 0 0 0 0 0 0 0 0 0 0 0 0 0 0 0 0 0 127 0"/><feOffset/><feGaussianBlur stdDeviation="1"/><feColorMatrix values="0 0 0 0 0.501961 0 0 0 0 0.435294 0 0 0 0 0.909804 0 0 0 1 0"/><feBlend in2="BackgroundImageFix" result="effect1_dropShadow_563_275"/><feColorMatrix in="SourceAlpha" result="hardAlpha" values="0 0 0 0 0 0 0 0 0 0 0 0 0 0 0 0 0 0 127 0"/><feOffset/><feGaussianBlur stdDeviation="2"/><feColorMatrix values="0 0 0 0 0.501961 0 0 0 0 0.435294 0 0 0 0 0.909804 0 0 0 1 0"/><feBlend in2="effect1_dropShadow_563_275" result="effect2_dropShadow_563_275"/><feColorMatrix in="SourceAlpha" result="hardAlpha" values="0 0 0 0 0 0 0 0 0 0 0 0 0 0 0 0 0 0 127 0"/><feOffset/><feGaussianBlur stdDeviation="6.9"/><feColorMatrix values="0 0 0 0 0.501961 0 0 0 0 0.435294 0 0 0 0 0.909804 0 0 0 1 0"/><feBlend in2="effect2_dropShadow_563_275" result="effect3_dropShadow_563_275"/><feColorMatrix in="SourceAlpha" result="hardAlpha" values="0 0 0 0 0 0 0 0 0 0 0 0 0 0 0 0 0 0 127 0"/><feOffset/><feGaussianBlur stdDeviation="13.9"/><feColorMatrix values="0 0 0 0 0.501961 0 0 0 0 0.435294 0 0 0 0 0.909804 0 0 0 1 0"/><feBlend in2="effect3_dropShadow_563_275" result="effect4_dropShadow_563_275"/><feColorMatrix in="SourceAlpha" result="hardAlpha" values="0 0 0 0 0 0 0 0 0 0 0 0 0 0 0 0 0 0 127 0"/><feOffset/><feGaussianBlur stdDeviation="23.8"/><feColorMatrix values="0 0 0 0 0.501961 0 0 0 0 0.435294 0 0 0 0 0.909804 0 0 0 1 0"/><feBlend in2="effect4_dropShadow_563_275" result="effect5_dropShadow_563_275"/><feColorMatrix in="SourceAlpha" result="hardAlpha" values="0 0 0 0 0 0 0 0 0 0 0 0 0 0 0 0 0 0 127 0"/><feOffset/><feGaussianBlur stdDeviation="41.6"/><feColorMatrix values="0 0 0 0 0.501961 0 0 0 0 0.435294 0 0 0 0 0.909804 0 0 0 1 0"/><feBlend in2="effect5_dropShadow_563_275" result="effect6_dropShadow_563_275"/><feBlend in="SourceGraphic" in2="effect6_dropShadow_563_275" result="shape"/></filter><filter id="f" width="178.3" height="167.3" x="157.9" y="86.8" color-interpolation-filters="sRGB" filterUnits="userSpaceOnUse"><feFlood flood-opacity="0" result="BackgroundImageFix"/><feColorMatrix in="SourceAlpha" result="hardAlpha" values="0 0 0 0 0 0 0 0 0 0 0 0 0 0 0 0 0 0 127 0"/><feOffset/><feGaussianBlur stdDeviation="1"/><feColorMatrix values="0 0 0 0 0.501961 0 0 0 0 0.435294 0 0 0 0 0.909804 0 0 0 1 0"/><feBlend in2="BackgroundImageFix" result="effect1_dropShadow_563_275"/><feColorMatrix in="SourceAlpha" result="hardAlpha" values="0 0 0 0 0 0 0 0 0 0 0 0 0 0 0 0 0 0 127 0"/><feOffset/><feGaussianBlur stdDeviation="2"/><feColorMatrix values="0 0 0 0 0.501961 0 0 0 0 0.435294 0 0 0 0 0.909804 0 0 0 1 0"/><feBlend in2="effect1_dropShadow_563_275" result="effect2_dropShadow_563_275"/><feColorMatrix in="SourceAlpha" result="hardAlpha" values="0 0 0 0 0 0 0 0 0 0 0 0 0 0 0 0 0 0 127 0"/><feOffset/><feGaussianBlur stdDeviation="6.9"/><feColorMatrix values="0 0 0 0 0.501961 0 0 0 0 0.435294 0 0 0 0 0.909804 0 0 0 1 0"/><feBlend in2="effect2_dropShadow_563_275" result="effect3_dropShadow_563_275"/><feColorMatrix in="SourceAlpha" result="hardAlpha" values="0 0 0 0 0 0 0 0 0 0 0 0 0 0 0 0 0 0 127 0"/><feOffset/><feGaussianBlur stdDeviation="13.9"/><feColorMatrix values="0 0 0 0 0.501961 0 0 0 0 0.435294 0 0 0 0 0.909804 0 0 0 1 0"/><feBlend in2="effect3_dropShadow_563_275" result="effect4_dropShadow_563_275"/><feColorMatrix in="SourceAlpha" result="hardAlpha" values="0 0 0 0 0 0 0 0 0 0 0 0 0 0 0 0 0 0 127 0"/><feOffset/><feGaussianBlur stdDeviation="23.8"/><feColorMatrix values="0 0 0 0 0.501961 0 0 0 0 0.435294 0 0 0 0 0.909804 0 0 0 1 0"/><feBlend in2="effect4_dropShadow_563_275" result="effect5_dropShadow_563_275"/><feColorMatrix in="SourceAlpha" result="hardAlpha" values="0 0 0 0 0 0 0 0 0 0 0 0 0 0 0 0 0 0 127 0"/><feOffset/><feGaussianBlur stdDeviation="41.6"/><feColorMatrix values="0 0 0 0 0.501961 0 0 0 0 0.435294 0 0 0 0 0.909804 0 0 0 1 0"/><feBlend in2="effect5_dropShadow_563_275" result="effect6_dropShadow_563_275"/><feBlend in="SourceGraphic" in2="effect6_dropShadow_563_275" result="shape"/></filter><filter id="h" width="179.3" height="167.3" x="181.9" y=".8" color-interpolation-filters="sRGB" filterUnits="userSpaceOnUse"><feFlood flood-opacity="0" result="BackgroundImageFix"/><feColorMatrix in="SourceAlpha" result="hardAlpha" values="0 0 0 0 0 0 0 0 0 0 0 0 0 0 0 0 0 0 127 0"/><feOffset/><feGaussianBlur stdDeviation="1"/><feColorMatrix values="0 0 0 0 0.501961 0 0 0 0 0.435294 0 0 0 0 0.909804 0 0 0 1 0"/><feBlend in2="BackgroundImageFix" result="effect1_dropShadow_563_275"/><feColorMatrix in="SourceAlpha" result="hardAlpha" values="0 0 0 0 0 0 0 0 0 0 0 0 0 0 0 0 0 0 127 0"/><feOffset/><feGaussianBlur stdDeviation="2"/><feColorMatrix values="0 0 0 0 0.501961 0 0 0 0 0.435294 0 0 0 0 0.909804 0 0 0 1 0"/><feBlend in2="effect1_dropShadow_563_275" result="effect2_dropShadow_563_275"/><feColorMatrix in="SourceAlpha" result="hardAlpha" values="0 0 0 0 0 0 0 0 0 0 0 0 0 0 0 0 0 0 127 0"/><feOffset/><feGaussianBlur stdDeviation="6.9"/><feColorMatrix values="0 0 0 0 0.501961 0 0 0 0 0.435294 0 0 0 0 0.909804 0 0 0 1 0"/><feBlend in2="effect2_dropShadow_563_275" result="effect3_dropShadow_563_275"/><feColorMatrix in="SourceAlpha" result="hardAlpha" values="0 0 0 0 0 0 0 0 0 0 0 0 0 0 0 0 0 0 127 0"/><feOffset/><feGaussianBlur stdDeviation="13.9"/><feColorMatrix values="0 0 0 0 0.501961 0 0 0 0 0.435294 0 0 0 0 0.909804 0 0 0 1 0"/><feBlend in2="effect3_dropShadow_563_275" result="effect4_dropShadow_563_275"/><feColorMatrix in="SourceAlpha" result="hardAlpha" values="0 0 0 0 0 0 0 0 0 0 0 0 0 0 0 0 0 0 127 0"/><feOffset/><feGaussianBlur stdDeviation="23.8"/><feColorMatrix values="0 0 0 0 0.501961 0 0 0 0 0.435294 0 0 0 0 0.909804 0 0 0 1 0"/><feBlend in2="effect4_dropShadow_563_275" result="effect5_dropShadow_563_275"/><feColorMatrix in="SourceAlpha" result="hardAlpha" values="0 0 0 0 0 0 0 0 0 0 0 0 0 0 0 0 0 0 127 0"/><feOffset/><feGaussianBlur stdDeviation="41.6"/><feColorMatrix values="0 0 0 0 0.501961 0 0 0 0 0.435294 0 0 0 0 0.909804 0 0 0 1 0"/><feBlend in2="effect5_dropShadow_563_275" result="effect6_dropShadow_563_275"/><feBlend in="SourceGraphic" in2="effect6_dropShadow_563_275" result="shape"/></filter><filter id="j" width="12.9" height="12.9" x="284" y="182" color-interpolation-filters="sRGB" filterUnits="userSpaceOnUse"><feFlood flood-opacity="0" result="BackgroundImageFix"/><feColorMatrix in="SourceAlpha" result="hardAlpha" values="0 0 0 0 0 0 0 0 0 0 0 0 0 0 0 0 0 0 127 0"/><feOffset/><feGaussianBlur stdDeviation="1"/><feColorMatrix values="0 0 0 0 0.501961 0 0 0 0 0.435294 0 0 0 0 0.909804 0 0 0 1 0"/><feBlend in2="BackgroundImageFix" result="effect1_dropShadow_563_275"/><feColorMatrix in="SourceAlpha" result="hardAlpha" values="0 0 0 0 0 0 0 0 0 0 0 0 0 0 0 0 0 0 127 0"/><feOffset/><feGaussianBlur stdDeviation="2"/><feColorMatrix values="0 0 0 0 0.501961 0 0 0 0 0.435294 0 0 0 0 0.909804 0 0 0 1 0"/><feBlend in2="effect1_dropShadow_563_275" result="effect2_dropShadow_563_275"/><feBlend in="SourceGraphic" in2="effect2_dropShadow_563_275" result="shape"/></filter><filter id="l" width="15.9" height="15.9" x="414" y="136" color-interpolation-filters="sRGB" filterUnits="userSpaceOnUse"><feFlood flood-opacity="0" result="BackgroundImageFix"/><feColorMatrix in="SourceAlpha" result="hardAlpha" values="0 0 0 0 0 0 0 0 0 0 0 0 0 0 0 0 0 0 127 0"/><feOffset/><feGaussianBlur stdDeviation="1"/><feColorMatrix values="0 0 0 0 0.501961 0 0 0 0 0.435294 0 0 0 0 0.909804 0 0 0 1 0"/><feBlend in2="BackgroundImageFix" result="effect1_dropShadow_563_275"/><feColorMatrix in="SourceAlpha" result="hardAlpha" values="0 0 0 0 0 0 0 0 0 0 0 0 0 0 0 0 0 0 127 0"/><feOffset/><feGaussianBlur stdDeviation="2"/><feColorMatrix values="0 0 0 0 0.501961 0 0 0 0 0.435294 0 0 0 0 0.909804 0 0 0 1 0"/><feBlend in2="effect1_dropShadow_563_275" result="effect2_dropShadow_563_275"/><feBlend in="SourceGraphic" in2="effect2_dropShadow_563_275" result="shape"/></filter><filter id="n" width="10.9" height="10.9" x="424" y="148" color-interpolation-filters="sRGB" filterUnits="userSpaceOnUse"><feFlood flood-opacity="0" result="BackgroundImageFix"/><feColorMatrix in="SourceAlpha" result="hardAlpha" values="0 0 0 0 0 0 0 0 0 0 0 0 0 0 0 0 0 0 127 0"/><feOffset/><feGaussianBlur stdDeviation="1"/><feColorMatrix values="0 0 0 0 0.501961 0 0 0 0 0.435294 0 0 0 0 0.909804 0 0 0 1 0"/><feBlend in2="BackgroundImageFix" result="effect1_dropShadow_563_275"/><feColorMatrix in="SourceAlpha" result="hardAlpha" values="0 0 0 0 0 0 0 0 0 0 0 0 0 0 0 0 0 0 127 0"/><feOffset/><feGaussianBlur stdDeviation="2"/><feColorMatrix values="0 0 0 0 0.501961 0 0 0 0 0.435294 0 0 0 0 0.909804 0 0 0 1 0"/><feBlend in2="effect1_dropShadow_563_275" result="effect2_dropShadow_563_275"/><feBlend in="SourceGraphic" in2="effect2_dropShadow_563_275" result="shape"/></filter><radialGradient id="a" cx="0" cy="0" r="1" gradientTransform="matrix(0 132 -238 0 275 129)" gradientUnits="userSpaceOnUse"><stop stop-color="#fff"/><stop offset="1" stop-color="#999" stop-opacity="0"/></radialGradient></defs></svg>