<svg xmlns="http://www.w3.org/2000/svg" width="415" height="270" fill="none"><path fill="#0F111E" stroke="#1F1F32" d="M268 142a16 16 0 1 1-33 0 16 16 0 0 1 33 0Z"/><path fill="#806FE8" d="M263 152c0 3-5 6-11 6s-13-4-12-6 6-6 12-6 9 3 11 6Z"/><path stroke="#1F1F32" d="M268 142a16 16 0 1 1-33 0 16 16 0 0 1 33 0Z"/><path fill="#806FE8" d="M258 138a6 6 0 1 1-12 0 6 6 0 0 1 12 0Z"/><g filter="url(#a)"><path fill="url(#b)" d="M271 120Z"/></g><g filter="url(#c)"><path fill="url(#d)" d="M314 85Z"/></g><path fill="#0F111E" stroke="#1F1F32" d="M275 130c0 4-4 8-8 8s-7-4-7-8c0-5 3-8 7-8s8 3 8 8Z"/><path fill="#7568D3" d="M270 127h-5l1 1h3v4l1-1v-4Zm-5 6 5-5-1-1-5 5 1 1Z"/><path fill="#0F111E" stroke="#1F1F32" d="M315 95a15 15 0 1 1-30 0 15 15 0 0 1 30 0Z"/><path fill="#806FE8" d="M310 104c0 3-4 6-10 6-5 0-11-3-10-5 1-3 5-6 10-6 6 0 9 3 10 5Z"/><path stroke="#1F1F32" d="M315 95a15 15 0 1 1-30 0 15 15 0 0 1 30 0Z"/><path fill="#806FE8" d="M306 92a5 5 0 1 1-11 0 5 5 0 0 1 11 0Z"/><path fill="#0F111E" stroke="#1F1F32" d="M103 127a17 17 0 1 1-34 0 17 17 0 0 1 34 0Z"/><path fill="#806FE8" d="M98 138c0 3-6 6-12 6s-13-4-12-6c1-3 6-6 12-7 6 1 10 3 12 7Z"/><path stroke="#1F1F32" d="M103 127a17 17 0 1 1-34 0 17 17 0 0 1 34 0Z"/><path fill="#806FE8" d="M92 123a6 6 0 1 1-12 0 6 6 0 0 1 12 0Z"/><path fill="#0F111E" stroke="#1F1F32" d="M318 84c0 3-3 6-6 6-4 0-6-3-6-6s2-5 6-5c3 0 6 2 6 5Z"/><path fill="#7568D3" d="M314 82h-4v1h3v3h1v-4Zm-4 4 4-3-1-1-3 4Z"/><path fill="#0F111E" stroke="#1F1F32" d="M108 116c0 4-4 7-7 7-4 0-7-3-7-7 0-3 3-6 7-6 3 0 7 3 7 6Z"/><path fill="#7568D3" d="M104 114h-5l1 1h3v3h1v-4Zm-5 4 4-4-4 4Z"/><path fill="#0F111E" stroke="#1F1F32" d="M57 83a14 14 0 1 1-29 0 14 14 0 0 1 29 0Z"/><path fill="#806FE8" d="M52 92c0 3-4 6-10 6-5 0-11-3-10-5 1-3 5-6 10-6 6 0 9 3 10 5Z"/><path stroke="#1F1F32" d="M57 83a14 14 0 1 1-29 0 14 14 0 0 1 29 0Z"/><path fill="#806FE8" d="M48 80a5 5 0 1 1-11 0 5 5 0 0 1 11 0Z"/><circle cx="56" cy="75.3" r="5.5" fill="#0F111E" stroke="#1F1F32"/><path fill="#7568D3" d="M58 73h-4v1h3v3h1v-4Zm-4 4 4-3v-1l-4 4Z"/><circle cx="174.5" cy="107.8" r="51" stroke="url(#e)"/><g filter="url(#f)"><path fill="url(#g)" d="M112 97a178 178 0 0 1 13 0h-13Z"/></g><g filter="url(#h)"><path fill="url(#i)" d="M97 109a105 105 0 0 1-10 0v-1l10 1Z"/></g><g filter="url(#j)"><path fill="url(#k)" d="M231 108h-6v1l6-1Z"/></g><circle cx="174.5" cy="107.8" r="51" stroke="url(#l)" transform="rotate(46 175 108)"/><path fill="url(#m)" d="M2 54H1v-1l1-1v1h1v1H2Zm14 0-1-1h1v-1l1 1v1h-1Zm15 0h-1v-1l1-1v2Zm14 0h-1v-1l1-1 1 1v1h-1Zm14 0-1-1h1v-1l1 1v1h-1Zm15 0h-1v-1l1-1v1h1l-1 1Zm14 0h-1v-1l1-1 1 1v1h-1Zm14 0v-2l1 1v1h-1Zm15 0h-1v-1l1-1v1h1v1h-1Zm14 0-1-1h1v-1l1 1v1h-1Zm15 0h-1v-1l1-1v2Zm14 0h-1v-1l1-1 1 1v1h-1Zm14 0v-2l1 1v1h-1Zm15 0h-1v-1l1-1v1h1l-1 1Zm14 0-1-1h1v-1l1 1v1h-1Zm14 0v-2l1 1v1h-1Zm15 0h-1v-1l1-1v1h1v1h-1Zm14 0-1-1h1v-1l1 1v1h-1Zm15 0h-1v-1l1-1v2Zm14 0h-1v-1l1-1 1 1v1h-1Zm14 0v-2l1 1v1h-1Zm15 0h-1v-1l1-1v1h1l-1 1Zm14 0-1-1h1v-1l1 1v1h-1Zm15 0h-1v-1l1-1v2Zm14 0h-1v-1l1-1v1h1v1h-1ZM2 66H1v-1l1-1v1h1v1H2Zm0 14H1v-1l1-1v1h1v1H2Zm14 0-1-1h1v-1l1 1v1h-1Zm15 0h-1v-1l1-1v2Zm14 0h-1v-1l1-1 1 1v1h-1Zm14 0-1-1h1v-1l1 1v1h-1Zm15 0h-1v-1l1-1v1h1l-1 1Zm14 0h-1v-1l1-1 1 1v1h-1Zm14 0v-2l1 1v1h-1Zm15 0h-1v-1l1-1v1h1v1h-1Zm14 0-1-1h1v-1l1 1v1h-1Zm15 0h-1v-1l1-1v2Zm14 0h-1v-1l1-1 1 1v1h-1Zm14 0v-2l1 1v1h-1Zm15 0h-1v-1l1-1v1h1l-1 1Zm14 0-1-1h1v-1l1 1v1h-1Zm14 0v-2l1 1v1h-1Zm15 0h-1v-1l1-1v1h1v1h-1Zm14 0-1-1h1v-1l1 1v1h-1Zm15 0h-1v-1l1-1v2Zm14 0h-1v-1l1-1 1 1v1h-1Zm14 0v-2l1 1v1h-1Zm15 0h-1v-1l1-1v1h1l-1 1Zm14 0-1-1h1v-1l1 1v1h-1Zm15 0h-1v-1l1-1v2Zm14 0h-1v-1l1-1v1h1v1h-1ZM2 92H1v-1l1-1v1h1v1H2Zm0 15H1v-1l1-1v1h1v1H2Zm14 0-1-1h1v-1l1 1v1h-1Zm15 0h-1v-1l1-1v2Zm14 0h-1v-1l1-1 1 1v1h-1Zm14 0-1-1h1v-1l1 1v1h-1Zm15 0h-1v-1l1-1v1h1l-1 1Zm14 0h-1v-1l1-1 1 1v1h-1Zm14 0v-2l1 1v1h-1Zm15 0h-1v-1l1-1v1h1v1h-1Zm14 0-1-1h1v-1l1 1v1h-1Zm15 0h-1v-1l1-1v2Zm14 0h-1v-1l1-1 1 1v1h-1Zm14 0v-2l1 1v1h-1Zm15 0h-1v-1l1-1v1h1l-1 1Zm14 0-1-1h1v-1l1 1v1h-1Zm14 0v-2l1 1v1h-1Zm15 0h-1v-1l1-1v1h1v1h-1Zm14 0-1-1h1v-1l1 1v1h-1Zm15 0h-1v-1l1-1v2Zm14 0h-1v-1l1-1 1 1v1h-1Zm14 0v-2l1 1v1h-1Zm15 0h-1v-1l1-1v1h1l-1 1Zm14 0-1-1h1v-1l1 1v1h-1Zm15 0h-1v-1l1-1v2Zm14 0h-1v-1l1-1v1h1v1h-1ZM2 119H1v-1l1-1v1h1v1H2Zm0 14H1v-1l1-1v1h1v1H2Zm14 0-1-1h1v-1l1 1v1h-1Zm15 0h-1v-1l1-1v2Zm14 0h-1v-1l1-1 1 1v1h-1Zm14 0-1-1h1v-1l1 1v1h-1Zm15 0h-1v-1l1-1v1h1l-1 1Zm14 0h-1v-1l1-1 1 1v1h-1Zm14 0v-2l1 1v1h-1Zm15 0h-1v-1l1-1v1h1v1h-1Zm14 0-1-1h1v-1l1 1v1h-1Zm15 0h-1v-1l1-1v2Zm14 0h-1v-1l1-1 1 1v1h-1Zm14 0v-2l1 1v1h-1Zm15 0h-1v-1l1-1v1h1l-1 1Zm14 0-1-1h1v-1l1 1v1h-1Zm14 0v-2l1 1v1h-1Zm15 0h-1v-1l1-1v1h1v1h-1Zm14 0-1-1h1v-1l1 1v1h-1Zm15 0h-1v-1l1-1v2Zm14 0h-1v-1l1-1 1 1v1h-1Zm14 0v-2l1 1v1h-1Zm15 0h-1v-1l1-1v1h1l-1 1Zm14 0-1-1h1v-1l1 1v1h-1Zm15 0h-1v-1l1-1v2Zm14 0h-1v-1l1-1v1h1v1h-1ZM2 145H1v-1l1-1v1h1v1H2Zm0 15H1v-1l1-1v1h1v1H2Zm14 0-1-1h1v-1l1 1v1h-1Zm15 0h-1v-1l1-1v2Zm14 0h-1v-1l1-1 1 1v1h-1Zm14 0-1-1h1v-1l1 1v1h-1Zm15 0h-1v-1l1-1v1h1l-1 1Zm14 0h-1v-1l1-1 1 1v1h-1Zm14 0v-2l1 1v1h-1Zm15 0h-1v-1l1-1v1h1v1h-1Zm14 0-1-1h1v-1l1 1v1h-1Zm15 0h-1v-1l1-1v2Zm14 0h-1v-1l1-1 1 1v1h-1Zm14 0v-2l1 1v1h-1Zm15 0h-1v-1l1-1v1h1l-1 1Zm14 0-1-1h1v-1l1 1v1h-1Zm14 0v-2l1 1v1h-1Zm15 0h-1v-1l1-1v1h1v1h-1Zm14 0-1-1h1v-1l1 1v1h-1Zm15 0h-1v-1l1-1v2Zm14 0h-1v-1l1-1 1 1v1h-1Zm14 0v-2l1 1v1h-1Zm15 0h-1v-1l1-1v1h1l-1 1Zm14 0-1-1h1v-1l1 1v1h-1Zm15 0h-1v-1l1-1v2Zm14 0h-1v-1l1-1v1h1v1h-1ZM2 172H1v-1l1-1v1h1v1H2Zm0 14H1v-1l1-1v1h1v1H2Zm14 0-1-1h1v-1l1 1v1h-1Zm15 0h-1v-1l1-1v2Zm14 0h-1v-1l1-1 1 1v1h-1Zm14 0-1-1h1v-1l1 1v1h-1Zm15 0h-1v-1l1-1v1h1l-1 1Zm14 0h-1v-1l1-1 1 1v1h-1Zm14 0v-2l1 1v1h-1Zm15 0h-1v-1l1-1v1h1v1h-1Zm14 0-1-1h1v-1l1 1v1h-1Zm15 0h-1v-1l1-1v2Zm14 0h-1v-1l1-1 1 1v1h-1Zm14 0v-2l1 1v1h-1Zm15 0h-1v-1l1-1v1h1l-1 1Zm14 0-1-1h1v-1l1 1v1h-1Zm14 0v-2l1 1v1h-1Zm15 0h-1v-1l1-1v1h1v1h-1Zm14 0-1-1h1v-1l1 1v1h-1Zm15 0h-1v-1l1-1v2Zm14 0h-1v-1l1-1 1 1v1h-1Zm14 0v-2l1 1v1h-1Zm15 0h-1v-1l1-1v1h1l-1 1Zm14 0-1-1h1v-1l1 1v1h-1Zm15 0h-1v-1l1-1v2Zm14 0h-1v-1l1-1v1h1v1h-1ZM2 198H1v-1l1-1v1h1v1H2Zm0 15H1v-1l1-1v1h1v1H2Zm14 0-1-1h1v-1l1 1v1h-1Zm15 0h-1v-1l1-1v2Zm14 0h-1v-1l1-1 1 1v1h-1Zm14 0-1-1h1v-1l1 1v1h-1Zm15 0h-1v-1l1-1v1h1l-1 1Zm14 0h-1v-1l1-1 1 1v1h-1Zm14 0v-2l1 1v1h-1Zm15 0h-1v-1l1-1v1h1v1h-1Zm14 0-1-1h1v-1l1 1v1h-1Zm15 0h-1v-1l1-1v2Zm14 0h-1v-1l1-1 1 1v1h-1Zm14 0v-2l1 1v1h-1Zm15 0h-1v-1l1-1v1h1l-1 1Zm14 0-1-1h1v-1l1 1v1h-1Zm14 0v-2l1 1v1h-1Zm15 0h-1v-1l1-1v1h1v1h-1Zm14 0-1-1h1v-1l1 1v1h-1Zm15 0h-1v-1l1-1v2Zm14 0h-1v-1l1-1 1 1v1h-1Zm14 0v-2l1 1v1h-1Zm15 0h-1v-1l1-1v1h1l-1 1Zm14 0-1-1h1v-1l1 1v1h-1Zm15 0h-1v-1l1-1v2Zm14 0h-1v-1l1-1v1h1v1h-1ZM2 225H1v-1l1-1v1h1v1H2Zm0 14H1v-1l1-1v1h1v1H2Zm14 0-1-1h1v-1l1 1v1h-1Zm15 0h-1v-1l1-1v2Zm14 0h-1v-1l1-1 1 1v1h-1Zm14 0-1-1h1v-1l1 1v1h-1Zm15 0h-1v-1l1-1v1h1l-1 1Zm14 0h-1v-1l1-1 1 1v1h-1Zm14 0v-2l1 1v1h-1Zm15 0h-1v-1l1-1v1h1v1h-1Zm14 0-1-1h1v-1l1 1v1h-1Zm15 0h-1v-1l1-1v2Zm14 0h-1v-1l1-1 1 1v1h-1Zm14 0v-2l1 1v1h-1Zm15 0h-1v-1l1-1v1h1l-1 1Zm14 0-1-1h1v-1l1 1v1h-1Zm14 0v-2l1 1v1h-1Zm15 0h-1v-1l1-1v1h1v1h-1Zm14 0-1-1h1v-1l1 1v1h-1Zm15 0h-1v-1l1-1v2Zm14 0h-1v-1l1-1 1 1v1h-1Zm14 0v-2l1 1v1h-1Zm15 0h-1v-1l1-1v1h1l-1 1Zm14 0-1-1h1v-1l1 1v1h-1Zm15 0h-1v-1l1-1v2Zm14 0h-1v-1l1-1v1h1v1h-1ZM2 251H1v-1l1-1v1h1v1H2Zm0 15H1v-1l1-1v1h1v1H2Zm14 0-1-1h1v-1l1 1v1h-1Zm15 0h-1v-1l1-1v2Zm14 0h-1v-1l1-1 1 1v1h-1Zm14 0-1-1h1v-1l1 1v1h-1Zm15 0h-1v-1l1-1v1h1l-1 1Zm14 0h-1v-1l1-1 1 1v1h-1Zm14 0v-2l1 1v1h-1Zm15 0h-1v-1l1-1v1h1v1h-1Zm14 0-1-1h1v-1l1 1v1h-1Zm15 0h-1v-1l1-1v2Zm14 0h-1v-1l1-1 1 1v1h-1Zm14 0v-2l1 1v1h-1Zm15 0h-1v-1l1-1v1h1l-1 1Zm14 0-1-1h1v-1l1 1v1h-1Zm14 0v-2l1 1v1h-1Zm15 0h-1v-1l1-1v1h1v1h-1Zm14 0-1-1h1v-1l1 1v1h-1Zm15 0h-1v-1l1-1v2Zm14 0h-1v-1l1-1 1 1v1h-1Zm14 0v-2l1 1v1h-1Zm15 0h-1v-1l1-1v1h1l-1 1Zm14 0-1-1h1v-1l1 1v1h-1Zm15 0h-1v-1l1-1v2Zm14 0h-1v-1l1-1v1h1v1h-1Z" opacity=".2"/><defs><linearGradient id="b" x1="285" x2="270.7" y1="120.3" y2="120.3" gradientUnits="userSpaceOnUse"><stop stop-color="#806FE8"/><stop offset=".2" stop-color="#8D7EE6" stop-opacity=".9"/><stop offset=".4" stop-color="#A095E3" stop-opacity=".6"/><stop offset=".6" stop-color="#B2ABE0" stop-opacity=".4"/><stop offset=".8" stop-color="#C4C0DD" stop-opacity=".2"/><stop offset="1" stop-color="#D9D9D9" stop-opacity="0"/></linearGradient><linearGradient id="d" x1="331" x2="313.6" y1="84.5" y2="84.5" gradientUnits="userSpaceOnUse"><stop stop-color="#806FE8"/><stop offset=".2" stop-color="#8D7EE6" stop-opacity=".9"/><stop offset=".4" stop-color="#A095E3" stop-opacity=".6"/><stop offset=".6" stop-color="#B2ABE0" stop-opacity=".4"/><stop offset=".8" stop-color="#C4C0DD" stop-opacity=".2"/><stop offset="1" stop-color="#D9D9D9" stop-opacity="0"/></linearGradient><linearGradient id="e" x1="174.5" x2="174.5" y1="56.3" y2="159.3" gradientUnits="userSpaceOnUse"><stop stop-color="#806FE8"/><stop offset=".4" stop-color="#1A1929"/></linearGradient><linearGradient id="g" x1="125" x2="111.7" y1="96.8" y2="96.8" gradientUnits="userSpaceOnUse"><stop stop-color="#806FE8"/><stop offset=".2" stop-color="#8D7EE6" stop-opacity=".9"/><stop offset=".4" stop-color="#A095E3" stop-opacity=".6"/><stop offset=".6" stop-color="#B2ABE0" stop-opacity=".4"/><stop offset=".8" stop-color="#C4C0DD" stop-opacity=".2"/><stop offset="1" stop-color="#D9D9D9" stop-opacity="0"/></linearGradient><linearGradient id="i" x1="87" x2="97.2" y1="108.8" y2="108.8" gradientUnits="userSpaceOnUse"><stop stop-color="#806FE8"/><stop offset=".2" stop-color="#8D7EE6" stop-opacity=".9"/><stop offset=".4" stop-color="#A095E3" stop-opacity=".6"/><stop offset=".6" stop-color="#B2ABE0" stop-opacity=".4"/><stop offset=".8" stop-color="#C4C0DD" stop-opacity=".2"/><stop offset="1" stop-color="#D9D9D9" stop-opacity="0"/></linearGradient><linearGradient id="k" x1="225" x2="231.1" y1="108.3" y2="108.3" gradientUnits="userSpaceOnUse"><stop stop-color="#806FE8"/><stop offset=".2" stop-color="#8D7EE6" stop-opacity=".9"/><stop offset=".4" stop-color="#A095E3" stop-opacity=".6"/><stop offset=".6" stop-color="#B2ABE0" stop-opacity=".4"/><stop offset=".8" stop-color="#C4C0DD" stop-opacity=".2"/><stop offset="1" stop-color="#D9D9D9" stop-opacity="0"/></linearGradient><linearGradient id="l" x1="142.7" x2="174.5" y1="69.6" y2="159.3" gradientUnits="userSpaceOnUse"><stop offset="0" stop-color="#806FE8"/><stop offset=".7" stop-color="#1A1929" stop-opacity="0"/></linearGradient><filter id="a" width="180.3" height="167.3" x="187.8" y="36.7" color-interpolation-filters="sRGB" filterUnits="userSpaceOnUse"><feFlood flood-opacity="0" result="BackgroundImageFix"/><feColorMatrix in="SourceAlpha" result="hardAlpha" values="0 0 0 0 0 0 0 0 0 0 0 0 0 0 0 0 0 0 127 0"/><feOffset/><feGaussianBlur stdDeviation="1"/><feColorMatrix values="0 0 0 0 0.501961 0 0 0 0 0.435294 0 0 0 0 0.909804 0 0 0 1 0"/><feBlend in2="BackgroundImageFix" result="effect1_dropShadow_559_85"/><feColorMatrix in="SourceAlpha" result="hardAlpha" values="0 0 0 0 0 0 0 0 0 0 0 0 0 0 0 0 0 0 127 0"/><feOffset/><feGaussianBlur stdDeviation="2"/><feColorMatrix values="0 0 0 0 0.501961 0 0 0 0 0.435294 0 0 0 0 0.909804 0 0 0 1 0"/><feBlend in2="effect1_dropShadow_559_85" result="effect2_dropShadow_559_85"/><feColorMatrix in="SourceAlpha" result="hardAlpha" values="0 0 0 0 0 0 0 0 0 0 0 0 0 0 0 0 0 0 127 0"/><feOffset/><feGaussianBlur stdDeviation="6.9"/><feColorMatrix values="0 0 0 0 0.501961 0 0 0 0 0.435294 0 0 0 0 0.909804 0 0 0 1 0"/><feBlend in2="effect2_dropShadow_559_85" result="effect3_dropShadow_559_85"/><feColorMatrix in="SourceAlpha" result="hardAlpha" values="0 0 0 0 0 0 0 0 0 0 0 0 0 0 0 0 0 0 127 0"/><feOffset/><feGaussianBlur stdDeviation="13.9"/><feColorMatrix values="0 0 0 0 0.501961 0 0 0 0 0.435294 0 0 0 0 0.909804 0 0 0 1 0"/><feBlend in2="effect3_dropShadow_559_85" result="effect4_dropShadow_559_85"/><feColorMatrix in="SourceAlpha" result="hardAlpha" values="0 0 0 0 0 0 0 0 0 0 0 0 0 0 0 0 0 0 127 0"/><feOffset/><feGaussianBlur stdDeviation="23.8"/><feColorMatrix values="0 0 0 0 0.501961 0 0 0 0 0.435294 0 0 0 0 0.909804 0 0 0 1 0"/><feBlend in2="effect4_dropShadow_559_85" result="effect5_dropShadow_559_85"/><feColorMatrix in="SourceAlpha" result="hardAlpha" values="0 0 0 0 0 0 0 0 0 0 0 0 0 0 0 0 0 0 127 0"/><feOffset/><feGaussianBlur stdDeviation="41.6"/><feColorMatrix values="0 0 0 0 0.501961 0 0 0 0 0.435294 0 0 0 0 0.909804 0 0 0 1 0"/><feBlend in2="effect5_dropShadow_559_85" result="effect6_dropShadow_559_85"/><feBlend in="SourceGraphic" in2="effect6_dropShadow_559_85" result="shape"/></filter><filter id="c" width="183.3" height="167.3" x="230.8" y=".8" color-interpolation-filters="sRGB" filterUnits="userSpaceOnUse"><feFlood flood-opacity="0" result="BackgroundImageFix"/><feColorMatrix in="SourceAlpha" result="hardAlpha" values="0 0 0 0 0 0 0 0 0 0 0 0 0 0 0 0 0 0 127 0"/><feOffset/><feGaussianBlur stdDeviation="1"/><feColorMatrix values="0 0 0 0 0.501961 0 0 0 0 0.435294 0 0 0 0 0.909804 0 0 0 1 0"/><feBlend in2="BackgroundImageFix" result="effect1_dropShadow_559_85"/><feColorMatrix in="SourceAlpha" result="hardAlpha" values="0 0 0 0 0 0 0 0 0 0 0 0 0 0 0 0 0 0 127 0"/><feOffset/><feGaussianBlur stdDeviation="2"/><feColorMatrix values="0 0 0 0 0.501961 0 0 0 0 0.435294 0 0 0 0 0.909804 0 0 0 1 0"/><feBlend in2="effect1_dropShadow_559_85" result="effect2_dropShadow_559_85"/><feColorMatrix in="SourceAlpha" result="hardAlpha" values="0 0 0 0 0 0 0 0 0 0 0 0 0 0 0 0 0 0 127 0"/><feOffset/><feGaussianBlur stdDeviation="6.9"/><feColorMatrix values="0 0 0 0 0.501961 0 0 0 0 0.435294 0 0 0 0 0.909804 0 0 0 1 0"/><feBlend in2="effect2_dropShadow_559_85" result="effect3_dropShadow_559_85"/><feColorMatrix in="SourceAlpha" result="hardAlpha" values="0 0 0 0 0 0 0 0 0 0 0 0 0 0 0 0 0 0 127 0"/><feOffset/><feGaussianBlur stdDeviation="13.9"/><feColorMatrix values="0 0 0 0 0.501961 0 0 0 0 0.435294 0 0 0 0 0.909804 0 0 0 1 0"/><feBlend in2="effect3_dropShadow_559_85" result="effect4_dropShadow_559_85"/><feColorMatrix in="SourceAlpha" result="hardAlpha" values="0 0 0 0 0 0 0 0 0 0 0 0 0 0 0 0 0 0 127 0"/><feOffset/><feGaussianBlur stdDeviation="23.8"/><feColorMatrix values="0 0 0 0 0.501961 0 0 0 0 0.435294 0 0 0 0 0.909804 0 0 0 1 0"/><feBlend in2="effect4_dropShadow_559_85" result="effect5_dropShadow_559_85"/><feColorMatrix in="SourceAlpha" result="hardAlpha" values="0 0 0 0 0 0 0 0 0 0 0 0 0 0 0 0 0 0 127 0"/><feOffset/><feGaussianBlur stdDeviation="41.6"/><feColorMatrix values="0 0 0 0 0.501961 0 0 0 0 0.435294 0 0 0 0 0.909804 0 0 0 1 0"/><feBlend in2="effect5_dropShadow_559_85" result="effect6_dropShadow_559_85"/><feBlend in="SourceGraphic" in2="effect6_dropShadow_559_85" result="shape"/></filter><filter id="f" width="179.3" height="167.3" x="28.8" y="13.2" color-interpolation-filters="sRGB" filterUnits="userSpaceOnUse"><feFlood flood-opacity="0" result="BackgroundImageFix"/><feColorMatrix in="SourceAlpha" result="hardAlpha" values="0 0 0 0 0 0 0 0 0 0 0 0 0 0 0 0 0 0 127 0"/><feOffset/><feGaussianBlur stdDeviation="1"/><feColorMatrix values="0 0 0 0 0.501961 0 0 0 0 0.435294 0 0 0 0 0.909804 0 0 0 1 0"/><feBlend in2="BackgroundImageFix" result="effect1_dropShadow_559_85"/><feColorMatrix in="SourceAlpha" result="hardAlpha" values="0 0 0 0 0 0 0 0 0 0 0 0 0 0 0 0 0 0 127 0"/><feOffset/><feGaussianBlur stdDeviation="2"/><feColorMatrix values="0 0 0 0 0.501961 0 0 0 0 0.435294 0 0 0 0 0.909804 0 0 0 1 0"/><feBlend in2="effect1_dropShadow_559_85" result="effect2_dropShadow_559_85"/><feColorMatrix in="SourceAlpha" result="hardAlpha" values="0 0 0 0 0 0 0 0 0 0 0 0 0 0 0 0 0 0 127 0"/><feOffset/><feGaussianBlur stdDeviation="6.9"/><feColorMatrix values="0 0 0 0 0.501961 0 0 0 0 0.435294 0 0 0 0 0.909804 0 0 0 1 0"/><feBlend in2="effect2_dropShadow_559_85" result="effect3_dropShadow_559_85"/><feColorMatrix in="SourceAlpha" result="hardAlpha" values="0 0 0 0 0 0 0 0 0 0 0 0 0 0 0 0 0 0 127 0"/><feOffset/><feGaussianBlur stdDeviation="13.9"/><feColorMatrix values="0 0 0 0 0.501961 0 0 0 0 0.435294 0 0 0 0 0.909804 0 0 0 1 0"/><feBlend in2="effect3_dropShadow_559_85" result="effect4_dropShadow_559_85"/><feColorMatrix in="SourceAlpha" result="hardAlpha" values="0 0 0 0 0 0 0 0 0 0 0 0 0 0 0 0 0 0 127 0"/><feOffset/><feGaussianBlur stdDeviation="23.8"/><feColorMatrix values="0 0 0 0 0.501961 0 0 0 0 0.435294 0 0 0 0 0.909804 0 0 0 1 0"/><feBlend in2="effect4_dropShadow_559_85" result="effect5_dropShadow_559_85"/><feColorMatrix in="SourceAlpha" result="hardAlpha" values="0 0 0 0 0 0 0 0 0 0 0 0 0 0 0 0 0 0 127 0"/><feOffset/><feGaussianBlur stdDeviation="41.6"/><feColorMatrix values="0 0 0 0 0.501961 0 0 0 0 0.435294 0 0 0 0 0.909804 0 0 0 1 0"/><feBlend in2="effect5_dropShadow_559_85" result="effect6_dropShadow_559_85"/><feBlend in="SourceGraphic" in2="effect6_dropShadow_559_85" result="shape"/></filter><filter id="h" width="176.3" height="167.3" x="3.8" y="25.2" color-interpolation-filters="sRGB" filterUnits="userSpaceOnUse"><feFlood flood-opacity="0" result="BackgroundImageFix"/><feColorMatrix in="SourceAlpha" result="hardAlpha" values="0 0 0 0 0 0 0 0 0 0 0 0 0 0 0 0 0 0 127 0"/><feOffset/><feGaussianBlur stdDeviation="1"/><feColorMatrix values="0 0 0 0 0.501961 0 0 0 0 0.435294 0 0 0 0 0.909804 0 0 0 1 0"/><feBlend in2="BackgroundImageFix" result="effect1_dropShadow_559_85"/><feColorMatrix in="SourceAlpha" result="hardAlpha" values="0 0 0 0 0 0 0 0 0 0 0 0 0 0 0 0 0 0 127 0"/><feOffset/><feGaussianBlur stdDeviation="2"/><feColorMatrix values="0 0 0 0 0.501961 0 0 0 0 0.435294 0 0 0 0 0.909804 0 0 0 1 0"/><feBlend in2="effect1_dropShadow_559_85" result="effect2_dropShadow_559_85"/><feColorMatrix in="SourceAlpha" result="hardAlpha" values="0 0 0 0 0 0 0 0 0 0 0 0 0 0 0 0 0 0 127 0"/><feOffset/><feGaussianBlur stdDeviation="6.9"/><feColorMatrix values="0 0 0 0 0.501961 0 0 0 0 0.435294 0 0 0 0 0.909804 0 0 0 1 0"/><feBlend in2="effect2_dropShadow_559_85" result="effect3_dropShadow_559_85"/><feColorMatrix in="SourceAlpha" result="hardAlpha" values="0 0 0 0 0 0 0 0 0 0 0 0 0 0 0 0 0 0 127 0"/><feOffset/><feGaussianBlur stdDeviation="13.9"/><feColorMatrix values="0 0 0 0 0.501961 0 0 0 0 0.435294 0 0 0 0 0.909804 0 0 0 1 0"/><feBlend in2="effect3_dropShadow_559_85" result="effect4_dropShadow_559_85"/><feColorMatrix in="SourceAlpha" result="hardAlpha" values="0 0 0 0 0 0 0 0 0 0 0 0 0 0 0 0 0 0 127 0"/><feOffset/><feGaussianBlur stdDeviation="23.8"/><feColorMatrix values="0 0 0 0 0.501961 0 0 0 0 0.435294 0 0 0 0 0.909804 0 0 0 1 0"/><feBlend in2="effect4_dropShadow_559_85" result="effect5_dropShadow_559_85"/><feColorMatrix in="SourceAlpha" result="hardAlpha" values="0 0 0 0 0 0 0 0 0 0 0 0 0 0 0 0 0 0 127 0"/><feOffset/><feGaussianBlur stdDeviation="41.6"/><feColorMatrix values="0 0 0 0 0.501961 0 0 0 0 0.435294 0 0 0 0 0.909804 0 0 0 1 0"/><feBlend in2="effect5_dropShadow_559_85" result="effect6_dropShadow_559_85"/><feBlend in="SourceGraphic" in2="effect6_dropShadow_559_85" result="shape"/></filter><filter id="j" width="172.3" height="167.3" x="141.8" y="24.7" color-interpolation-filters="sRGB" filterUnits="userSpaceOnUse"><feFlood flood-opacity="0" result="BackgroundImageFix"/><feColorMatrix in="SourceAlpha" result="hardAlpha" values="0 0 0 0 0 0 0 0 0 0 0 0 0 0 0 0 0 0 127 0"/><feOffset/><feGaussianBlur stdDeviation="1"/><feColorMatrix values="0 0 0 0 0.501961 0 0 0 0 0.435294 0 0 0 0 0.909804 0 0 0 1 0"/><feBlend in2="BackgroundImageFix" result="effect1_dropShadow_559_85"/><feColorMatrix in="SourceAlpha" result="hardAlpha" values="0 0 0 0 0 0 0 0 0 0 0 0 0 0 0 0 0 0 127 0"/><feOffset/><feGaussianBlur stdDeviation="2"/><feColorMatrix values="0 0 0 0 0.501961 0 0 0 0 0.435294 0 0 0 0 0.909804 0 0 0 1 0"/><feBlend in2="effect1_dropShadow_559_85" result="effect2_dropShadow_559_85"/><feColorMatrix in="SourceAlpha" result="hardAlpha" values="0 0 0 0 0 0 0 0 0 0 0 0 0 0 0 0 0 0 127 0"/><feOffset/><feGaussianBlur stdDeviation="6.9"/><feColorMatrix values="0 0 0 0 0.501961 0 0 0 0 0.435294 0 0 0 0 0.909804 0 0 0 1 0"/><feBlend in2="effect2_dropShadow_559_85" result="effect3_dropShadow_559_85"/><feColorMatrix in="SourceAlpha" result="hardAlpha" values="0 0 0 0 0 0 0 0 0 0 0 0 0 0 0 0 0 0 127 0"/><feOffset/><feGaussianBlur stdDeviation="13.9"/><feColorMatrix values="0 0 0 0 0.501961 0 0 0 0 0.435294 0 0 0 0 0.909804 0 0 0 1 0"/><feBlend in2="effect3_dropShadow_559_85" result="effect4_dropShadow_559_85"/><feColorMatrix in="SourceAlpha" result="hardAlpha" values="0 0 0 0 0 0 0 0 0 0 0 0 0 0 0 0 0 0 127 0"/><feOffset/><feGaussianBlur stdDeviation="23.8"/><feColorMatrix values="0 0 0 0 0.501961 0 0 0 0 0.435294 0 0 0 0 0.909804 0 0 0 1 0"/><feBlend in2="effect4_dropShadow_559_85" result="effect5_dropShadow_559_85"/><feColorMatrix in="SourceAlpha" result="hardAlpha" values="0 0 0 0 0 0 0 0 0 0 0 0 0 0 0 0 0 0 127 0"/><feOffset/><feGaussianBlur stdDeviation="41.6"/><feColorMatrix values="0 0 0 0 0.501961 0 0 0 0 0.435294 0 0 0 0 0.909804 0 0 0 1 0"/><feBlend in2="effect5_dropShadow_559_85" result="effect6_dropShadow_559_85"/><feBlend in="SourceGraphic" in2="effect6_dropShadow_559_85" result="shape"/></filter><radialGradient id="m" cx="0" cy="0" r="1" gradientTransform="matrix(0 127 -196 0 176 124)" gradientUnits="userSpaceOnUse"><stop stop-color="#fff"/><stop offset="1" stop-color="#999" stop-opacity=".3"/></radialGradient></defs></svg>